<svg width="20" height="20" viewBox="0 0 20 20" fill="none" xmlns="http://www.w3.org/2000/svg">
<g clip-path="url(#clip0_14_2584)">
<g clip-path="url(#clip1_14_2584)">
<path d="M7.289 2.88294C7.186 2.81994 7.128 2.70194 7.141 2.58194C7.155 2.46094 7.237 2.35894 7.352 2.31994C9.658 1.52294 12.2 1.80694 14.273 3.09394C14.35 3.13994 14.404 3.21694 14.42 3.30494C14.437 3.39294 14.415 3.48394 14.359 3.55494C13.451 4.70694 12.342 5.68694 11.086 6.44494C10.069 5.01794 8.779 3.80694 7.289 2.88294ZM9.969 7.03094C8.825 5.47694 7.324 4.22094 5.594 3.36694C5.49 3.31994 5.369 3.32894 5.273 3.39094C3.873 4.39894 2.826 5.82294 2.281 7.46094C2.255 7.54494 2.266 7.63594 2.31 7.71194C2.355 7.78794 2.43 7.84094 2.516 7.85894C3.332 8.03594 4.165 8.12494 5 8.12494C6.716 8.12694 8.412 7.75394 9.969 7.03094ZM18.078 9.11694C17.878 7.30494 17.075 5.61294 15.797 4.31194C15.733 4.24994 15.646 4.21794 15.557 4.22194C15.468 4.22594 15.385 4.26794 15.328 4.33594C14.34 5.59694 13.13 6.66594 11.758 7.49194C12.186 8.23494 12.542 9.01694 12.82 9.82794C13.938 9.52594 15.092 9.37294 16.25 9.37494C16.746 9.37594 17.242 9.40494 17.734 9.46094C17.828 9.47094 17.922 9.43794 17.988 9.37094C18.055 9.30394 18.088 9.21094 18.078 9.11694ZM13.164 11.0309C13.394 12.0169 13.509 13.0269 13.508 14.0389C13.507 15.0059 13.4 15.9699 13.188 16.9139C13.159 17.0329 13.202 17.1569 13.298 17.2319C13.393 17.3079 13.524 17.3209 13.633 17.2659C16.04 16.0619 17.695 13.7449 18.055 11.0779C18.066 10.9949 18.043 10.9109 17.992 10.8449C17.94 10.7789 17.864 10.7359 17.781 10.7269C17.274 10.6569 16.762 10.6229 16.25 10.6249C15.208 10.6239 14.17 10.7599 13.164 11.0309ZM11.625 10.2189C11.377 9.47794 11.053 8.76594 10.656 8.09394C8.891 8.93894 6.958 9.37694 5 9.37494C4.084 9.37494 3.17 9.27794 2.273 9.08594C2.186 9.06794 2.094 9.08794 2.022 9.14194C1.951 9.19594 1.906 9.27794 1.898 9.36694C1.883 9.57594 1.875 9.78594 1.875 9.99994C1.874 12.2489 2.808 14.3969 4.453 15.9299C4.521 15.9949 4.615 16.0249 4.709 16.0109C4.802 15.9979 4.883 15.9409 4.93 15.8589C6.454 13.2719 8.816 11.2819 11.625 10.2189ZM5.914 16.6559C5.872 16.7289 5.861 16.8149 5.883 16.8959C5.905 16.9759 5.958 17.0449 6.031 17.0859C7.242 17.7699 8.609 18.1279 10 18.1249C10.474 18.1269 10.948 18.0849 11.414 17.9999C11.524 17.9819 11.615 17.9029 11.648 17.7969C12.054 16.5859 12.259 15.3159 12.258 14.0389C12.257 13.1589 12.16 12.2809 11.969 11.4219C9.41 12.4199 7.272 14.2679 5.914 16.6559Z" fill="white"/>
</g>
</g>
<defs>
<clipPath id="clip0_14_2584">
<rect width="20" height="20" fill="white"/>
</clipPath>
<clipPath id="clip1_14_2584">
<rect width="20" height="20" fill="white"/>
</clipPath>
</defs>
</svg>
