<svg width="196" height="646" viewBox="0 0 196 646" fill="none" xmlns="http://www.w3.org/2000/svg">
<path d="M32 0.5H139C145.351 0.5 150.5 5.64873 150.5 12V171C150.5 177.351 145.351 182.5 139 182.5H32C25.6487 182.5 20.5 177.351 20.5 171V12C20.5 5.64873 25.6487 0.5 32 0.5Z" fill="#111827"/>
<path d="M32 0.5H139C145.351 0.5 150.5 5.64873 150.5 12V171C150.5 177.351 145.351 182.5 139 182.5H32C25.6487 182.5 20.5 177.351 20.5 171V12C20.5 5.64873 25.6487 0.5 32 0.5Z" stroke="black"/>
<path d="M26.8857 21C26.8857 17.6863 29.572 15 32.8857 15H139.448C142.762 15 145.448 17.6863 145.448 21V35C145.448 38.3137 142.762 41 139.448 41H32.8857C29.572 41 26.8857 38.3137 26.8857 35V21Z" fill="url(#paint0_linear_24_8)"/>
<path d="M40.6155 31V25.2734H42.7757C43.1559 25.2734 43.4462 25.2917 43.6468 25.3281C43.928 25.375 44.1637 25.4648 44.3538 25.5977C44.5439 25.7279 44.6962 25.9115 44.8108 26.1484C44.928 26.3854 44.9866 26.6458 44.9866 26.9297C44.9866 27.4167 44.8317 27.8294 44.5218 28.168C44.2119 28.5039 43.652 28.6719 42.8421 28.6719H41.3733V31H40.6155ZM41.3733 27.9961H42.8538C43.3434 27.9961 43.691 27.9049 43.8968 27.7227C44.1025 27.5404 44.2054 27.2839 44.2054 26.9531C44.2054 26.7135 44.1442 26.5091 44.0218 26.3398C43.902 26.168 43.7431 26.0547 43.5452 26C43.4176 25.9661 43.1819 25.9492 42.8382 25.9492H41.3733V27.9961ZM46.2632 31V25.2734H48.8022C49.3126 25.2734 49.7007 25.3255 49.9663 25.4297C50.2319 25.5312 50.4442 25.7122 50.603 25.9727C50.7619 26.2331 50.8413 26.5208 50.8413 26.8359C50.8413 27.2422 50.7098 27.5846 50.4468 27.8633C50.1837 28.1419 49.7775 28.319 49.228 28.3945C49.4285 28.4909 49.5809 28.5859 49.685 28.6797C49.9064 28.8828 50.116 29.1367 50.3139 29.4414L51.31 31H50.3569L49.5991 29.8086C49.3777 29.4648 49.1955 29.2018 49.0522 29.0195C48.909 28.8372 48.7801 28.7096 48.6655 28.6367C48.5535 28.5638 48.4389 28.513 48.3218 28.4844C48.2358 28.4661 48.0952 28.457 47.8999 28.457H47.021V31H46.2632ZM47.021 27.8008H48.6499C48.9962 27.8008 49.2671 27.7656 49.4624 27.6953C49.6577 27.6224 49.8061 27.5078 49.9077 27.3516C50.0093 27.1927 50.06 27.0208 50.06 26.8359C50.06 26.5651 49.9611 26.3424 49.7632 26.168C49.5679 25.9935 49.258 25.9062 48.8335 25.9062H47.021V27.8008ZM52.1022 28.2109C52.1022 27.2604 52.3574 26.5169 52.8679 25.9805C53.3783 25.4414 54.0371 25.1719 54.8444 25.1719C55.3731 25.1719 55.8496 25.2982 56.2741 25.5508C56.6986 25.8034 57.0215 26.1562 57.2429 26.6094C57.4668 27.0599 57.5788 27.5716 57.5788 28.1445C57.5788 28.7253 57.4616 29.2448 57.2272 29.7031C56.9929 30.1615 56.6608 30.5091 56.2311 30.7461C55.8014 30.9805 55.3379 31.0977 54.8405 31.0977C54.3014 31.0977 53.8197 30.9674 53.3952 30.707C52.9707 30.4466 52.6491 30.0911 52.4304 29.6406C52.2116 29.1901 52.1022 28.7135 52.1022 28.2109ZM52.8835 28.2227C52.8835 28.9128 53.0684 29.457 53.4382 29.8555C53.8106 30.2513 54.2767 30.4492 54.8366 30.4492C55.4069 30.4492 55.8757 30.2487 56.2429 29.8477C56.6126 29.4466 56.7975 28.8776 56.7975 28.1406C56.7975 27.6745 56.7181 27.2682 56.5593 26.9219C56.403 26.5729 56.1725 26.3034 55.8679 26.1133C55.5658 25.9206 55.2259 25.8242 54.8483 25.8242C54.3119 25.8242 53.8496 26.0091 53.4616 26.3789C53.0762 26.7461 52.8835 27.3607 52.8835 28.2227ZM58.8358 31V25.2734H59.9764L61.3319 29.3281C61.4569 29.7057 61.5481 29.9883 61.6054 30.1758C61.6705 29.9674 61.772 29.6615 61.91 29.2578L63.2811 25.2734H64.3007V31H63.5702V26.207L61.9061 31H61.2225L59.5663 26.125V31H58.8358ZM65.5929 28.2109C65.5929 27.2604 65.8481 26.5169 66.3585 25.9805C66.8689 25.4414 67.5277 25.1719 68.335 25.1719C68.8637 25.1719 69.3402 25.2982 69.7647 25.5508C70.1892 25.8034 70.5121 26.1562 70.7335 26.6094C70.9574 27.0599 71.0694 27.5716 71.0694 28.1445C71.0694 28.7253 70.9522 29.2448 70.7179 29.7031C70.4835 30.1615 70.1514 30.5091 69.7218 30.7461C69.2921 30.9805 68.8285 31.0977 68.3311 31.0977C67.7921 31.0977 67.3103 30.9674 66.8858 30.707C66.4613 30.4466 66.1397 30.0911 65.921 29.6406C65.7022 29.1901 65.5929 28.7135 65.5929 28.2109ZM66.3741 28.2227C66.3741 28.9128 66.559 29.457 66.9288 29.8555C67.3012 30.2513 67.7673 30.4492 68.3272 30.4492C68.8975 30.4492 69.3663 30.2487 69.7335 29.8477C70.1033 29.4466 70.2882 28.8776 70.2882 28.1406C70.2882 27.6745 70.2087 27.2682 70.0499 26.9219C69.8936 26.5729 69.6632 26.3034 69.3585 26.1133C69.0564 25.9206 68.7166 25.8242 68.3389 25.8242C67.8025 25.8242 67.3402 26.0091 66.9522 26.3789C66.5668 26.7461 66.3741 27.3607 66.3741 28.2227ZM76.4358 28.9922L77.1936 29.1836C77.0348 29.806 76.7483 30.2812 76.3343 30.6094C75.9228 30.9349 75.4189 31.0977 74.8225 31.0977C74.2054 31.0977 73.7027 30.9727 73.3147 30.7227C72.9293 30.4701 72.635 30.1055 72.4319 29.6289C72.2314 29.1523 72.1311 28.6406 72.1311 28.0938C72.1311 27.4974 72.2444 26.9779 72.471 26.5352C72.7001 26.0898 73.0244 25.7526 73.4436 25.5234C73.8655 25.2917 74.3291 25.1758 74.8343 25.1758C75.4072 25.1758 75.8889 25.3216 76.2796 25.6133C76.6702 25.9049 76.9423 26.3151 77.096 26.8438L76.3499 27.0195C76.2171 26.6029 76.0244 26.2995 75.7718 26.1094C75.5192 25.9193 75.2014 25.8242 74.8186 25.8242C74.3785 25.8242 74.01 25.9297 73.7132 26.1406C73.4189 26.3516 73.2119 26.6354 73.0921 26.9922C72.9723 27.3464 72.9124 27.7122 72.9124 28.0898C72.9124 28.5768 72.9827 29.0026 73.1233 29.3672C73.2666 29.7292 73.4879 30 73.7874 30.1797C74.0869 30.3594 74.4111 30.4492 74.76 30.4492C75.1845 30.4492 75.5439 30.3268 75.8382 30.082C76.1324 29.8372 76.3317 29.474 76.4358 28.9922ZM74.1546 31.6016L74.3577 30.9102H74.8811L74.7522 31.3281C74.9736 31.3542 75.1402 31.4219 75.2522 31.5312C75.3642 31.6432 75.4202 31.7669 75.4202 31.9023C75.4202 32.0977 75.3264 32.2695 75.1389 32.418C74.9514 32.569 74.6689 32.6445 74.2913 32.6445C74.0777 32.6445 73.8902 32.6289 73.7288 32.5977L73.7718 32.1406C73.9384 32.151 74.0608 32.1562 74.1389 32.1562C74.3837 32.1562 74.5556 32.1224 74.6546 32.0547C74.7301 32.0026 74.7679 31.9388 74.7679 31.8633C74.7679 31.8164 74.7522 31.7747 74.721 31.7383C74.6923 31.7018 74.6376 31.6706 74.5569 31.6445C74.4762 31.6185 74.3421 31.6042 74.1546 31.6016ZM77.8022 31L80.0014 25.2734H80.8179L83.1616 31H82.2983L81.6304 29.2656H79.2358L78.6069 31H77.8022ZM79.4546 28.6484H81.396L80.7983 27.0625C80.616 26.5807 80.4806 26.1849 80.3921 25.875C80.3192 26.2422 80.2163 26.6068 80.0835 26.9688L79.4546 28.6484ZM79.1772 24.9219C79.1746 24.651 79.2488 24.4349 79.3999 24.2734C79.5483 24.112 79.7384 24.0312 79.9702 24.0312C80.1317 24.0312 80.3517 24.1016 80.6304 24.2422C80.784 24.3203 80.9064 24.3594 80.9975 24.3594C81.0809 24.3594 81.1447 24.3372 81.1889 24.293C81.2332 24.2461 81.2645 24.1549 81.2827 24.0195H81.7905C81.7827 24.3164 81.7072 24.5391 81.5639 24.6875C81.4233 24.8359 81.2436 24.9102 81.0249 24.9102C80.8608 24.9102 80.6447 24.8372 80.3764 24.6914C80.202 24.5977 80.0744 24.5508 79.9936 24.5508C79.9051 24.5508 79.8335 24.582 79.7788 24.6445C79.7215 24.707 79.6942 24.7995 79.6968 24.9219H79.1772ZM83.8366 28.2109C83.8366 27.2604 84.0918 26.5169 84.6022 25.9805C85.1126 25.4414 85.7715 25.1719 86.5788 25.1719C87.1074 25.1719 87.584 25.2982 88.0085 25.5508C88.433 25.8034 88.7559 26.1562 88.9772 26.6094C89.2012 27.0599 89.3132 27.5716 89.3132 28.1445C89.3132 28.7253 89.196 29.2448 88.9616 29.7031C88.7272 30.1615 88.3952 30.5091 87.9655 30.7461C87.5358 30.9805 87.0723 31.0977 86.5749 31.0977C86.0358 31.0977 85.554 30.9674 85.1296 30.707C84.7051 30.4466 84.3835 30.0911 84.1647 29.6406C83.946 29.1901 83.8366 28.7135 83.8366 28.2109ZM84.6179 28.2227C84.6179 28.9128 84.8027 29.457 85.1725 29.8555C85.5449 30.2513 86.0111 30.4492 86.571 30.4492C87.1413 30.4492 87.61 30.2487 87.9772 29.8477C88.347 29.4466 88.5319 28.8776 88.5319 28.1406C88.5319 27.6745 88.4525 27.2682 88.2936 26.9219C88.1374 26.5729 87.9069 26.3034 87.6022 26.1133C87.3001 25.9206 86.9603 25.8242 86.5827 25.8242C86.0462 25.8242 85.584 26.0091 85.196 26.3789C84.8106 26.7461 84.6179 27.3607 84.6179 28.2227ZM93.0889 31V25.2734H93.8468V30.3242H96.6671V31H93.0889ZM98.0022 31V25.2734H98.76V31H98.0022ZM100.376 31V25.2734H101.517L102.873 29.3281C102.998 29.7057 103.089 29.9883 103.146 30.1758C103.211 29.9674 103.313 29.6615 103.451 29.2578L104.822 25.2734H105.841V31H105.111V26.207L103.447 31H102.763L101.107 26.125V31H100.376ZM107.493 31V25.2734H108.251V31H107.493ZM111.348 31V25.9492H109.461V25.2734H114V25.9492H112.105V31H111.348ZM113.858 31L116.058 25.2734H116.874L119.218 31H118.355L117.687 29.2656H115.292L114.663 31H113.858ZM115.511 28.6484H117.452L116.855 27.0625C116.672 26.5807 116.537 26.1849 116.448 25.875C116.375 26.2422 116.273 26.6068 116.14 26.9688L115.511 28.6484ZM120.123 31V25.2734H122.096C122.541 25.2734 122.881 25.3008 123.116 25.3555C123.444 25.431 123.724 25.5677 123.955 25.7656C124.257 26.0208 124.483 26.3477 124.631 26.7461C124.782 27.1419 124.858 27.5951 124.858 28.1055C124.858 28.5404 124.807 28.9258 124.705 29.2617C124.604 29.5977 124.474 29.8763 124.315 30.0977C124.156 30.3164 123.981 30.4896 123.791 30.6172C123.604 30.7422 123.376 30.8372 123.108 30.9023C122.842 30.9674 122.536 31 122.19 31H120.123ZM120.881 30.3242H122.104C122.481 30.3242 122.777 30.2891 122.991 30.2188C123.207 30.1484 123.379 30.0495 123.506 29.9219C123.686 29.7422 123.825 29.5013 123.924 29.1992C124.026 28.8945 124.076 28.526 124.076 28.0938C124.076 27.4948 123.977 27.0352 123.78 26.7148C123.584 26.3919 123.346 26.1758 123.065 26.0664C122.862 25.9883 122.535 25.9492 122.084 25.9492H120.881V30.3242ZM125.576 31L127.775 25.2734H128.591L130.935 31H130.072L129.404 29.2656H127.009L126.38 31H125.576ZM127.228 28.6484H129.169L128.572 27.0625C128.389 26.5807 128.254 26.1849 128.166 25.875C128.093 26.2422 127.99 26.6068 127.857 26.9688L127.228 28.6484Z" fill="white"/>
<path d="M46.9971 95.2803L48.248 95.1709C48.3073 95.6722 48.444 96.0846 48.6582 96.4082C48.877 96.7272 49.2142 96.987 49.6699 97.1875C50.1257 97.3835 50.6383 97.4814 51.208 97.4814C51.7139 97.4814 52.1605 97.4062 52.5479 97.2559C52.9352 97.1055 53.2223 96.9004 53.4092 96.6406C53.6006 96.3763 53.6963 96.0892 53.6963 95.7793C53.6963 95.4648 53.6051 95.1914 53.4229 94.959C53.2406 94.722 52.9398 94.5238 52.5205 94.3643C52.2516 94.2594 51.6569 94.0977 50.7363 93.8789C49.8158 93.6556 49.1709 93.446 48.8018 93.25C48.3232 92.9993 47.9655 92.6895 47.7285 92.3203C47.4961 91.9466 47.3799 91.5296 47.3799 91.0693C47.3799 90.5635 47.5234 90.0918 47.8105 89.6543C48.0977 89.2122 48.5169 88.8773 49.0684 88.6494C49.6198 88.4215 50.2327 88.3076 50.9072 88.3076C51.6501 88.3076 52.304 88.4284 52.8691 88.6699C53.4388 88.9069 53.8763 89.2578 54.1816 89.7227C54.487 90.1875 54.651 90.7139 54.6738 91.3018L53.4023 91.3975C53.334 90.764 53.1016 90.2855 52.7051 89.9619C52.3132 89.6383 51.7321 89.4766 50.9619 89.4766C50.1598 89.4766 49.5742 89.6247 49.2051 89.9209C48.8405 90.2126 48.6582 90.5658 48.6582 90.9805C48.6582 91.3405 48.7881 91.6367 49.0479 91.8691C49.3031 92.1016 49.9684 92.3408 51.0439 92.5869C52.124 92.8285 52.8646 93.0404 53.2656 93.2227C53.849 93.4915 54.2796 93.8333 54.5576 94.248C54.8356 94.6582 54.9746 95.1322 54.9746 95.6699C54.9746 96.2031 54.8219 96.7067 54.5166 97.1807C54.2113 97.6501 53.7715 98.0169 53.1973 98.2812C52.6276 98.541 51.985 98.6709 51.2695 98.6709C50.3626 98.6709 49.6016 98.5387 48.9863 98.2744C48.3757 98.0101 47.8949 97.6136 47.5439 97.085C47.1976 96.5518 47.0153 95.9502 46.9971 95.2803ZM61.3867 98.5V97.4336C60.8216 98.2539 60.0537 98.6641 59.083 98.6641C58.6546 98.6641 58.2536 98.582 57.8799 98.418C57.5107 98.2539 57.235 98.0488 57.0527 97.8027C56.875 97.5521 56.7497 97.2467 56.6768 96.8867C56.6266 96.6452 56.6016 96.2624 56.6016 95.7383V91.2402H57.832V95.2666C57.832 95.9092 57.8571 96.3421 57.9072 96.5654C57.9847 96.889 58.1488 97.1442 58.3994 97.3311C58.6501 97.5133 58.96 97.6045 59.3291 97.6045C59.6982 97.6045 60.0446 97.5111 60.3682 97.3242C60.6917 97.1328 60.9196 96.8753 61.0518 96.5518C61.1885 96.2236 61.2568 95.7497 61.2568 95.1299V91.2402H62.4873V98.5H61.3867ZM63.9297 96.333L65.1465 96.1416C65.2148 96.6292 65.404 97.0029 65.7139 97.2627C66.0283 97.5225 66.4658 97.6523 67.0264 97.6523C67.5915 97.6523 68.0107 97.5384 68.2842 97.3105C68.5576 97.0781 68.6943 96.807 68.6943 96.4971C68.6943 96.2191 68.5736 96.0003 68.332 95.8408C68.1634 95.7314 67.7441 95.5924 67.0742 95.4238C66.1719 95.196 65.5452 95 65.1943 94.8359C64.848 94.6673 64.5837 94.4372 64.4014 94.1455C64.2236 93.8493 64.1348 93.5234 64.1348 93.168C64.1348 92.8444 64.2077 92.5459 64.3535 92.2725C64.5039 91.9945 64.7067 91.7643 64.9619 91.582C65.1533 91.4408 65.4131 91.3223 65.7412 91.2266C66.0739 91.1263 66.4294 91.0762 66.8076 91.0762C67.3773 91.0762 67.8763 91.1582 68.3047 91.3223C68.7376 91.4863 69.0566 91.7096 69.2617 91.9922C69.4668 92.2702 69.6081 92.6439 69.6855 93.1133L68.4824 93.2773C68.4277 92.9036 68.2682 92.612 68.0039 92.4023C67.7441 92.1927 67.375 92.0879 66.8965 92.0879C66.3314 92.0879 65.9281 92.1813 65.6865 92.3682C65.445 92.555 65.3242 92.7738 65.3242 93.0244C65.3242 93.1839 65.3743 93.3275 65.4746 93.4551C65.5749 93.5872 65.7321 93.6966 65.9463 93.7832C66.0693 93.8288 66.4316 93.9336 67.0332 94.0977C67.9036 94.3301 68.5098 94.5215 68.8516 94.6719C69.1979 94.8177 69.4691 95.0319 69.665 95.3145C69.861 95.597 69.959 95.9479 69.959 96.3672C69.959 96.7773 69.8382 97.1647 69.5967 97.5293C69.3597 97.8893 69.0156 98.1696 68.5645 98.3701C68.1133 98.5661 67.6029 98.6641 67.0332 98.6641C66.0898 98.6641 65.3698 98.4681 64.873 98.0762C64.3809 97.6842 64.0664 97.1032 63.9297 96.333ZM71.4219 101.282V91.2402H72.543V92.1836C72.8073 91.8145 73.1058 91.5387 73.4385 91.3564C73.7712 91.1696 74.1745 91.0762 74.6484 91.0762C75.2682 91.0762 75.8151 91.2357 76.2891 91.5547C76.763 91.8737 77.1208 92.3249 77.3623 92.9082C77.6038 93.487 77.7246 94.1227 77.7246 94.8154C77.7246 95.5583 77.5902 96.2282 77.3213 96.8252C77.057 97.4176 76.6696 97.8734 76.1592 98.1924C75.6533 98.5068 75.1201 98.6641 74.5596 98.6641C74.1494 98.6641 73.7803 98.5775 73.4521 98.4043C73.1286 98.2311 72.862 98.0124 72.6523 97.748V101.282H71.4219ZM72.5361 94.9111C72.5361 95.8454 72.7253 96.5358 73.1035 96.9824C73.4818 97.429 73.9398 97.6523 74.4775 97.6523C75.0244 97.6523 75.4915 97.4222 75.8789 96.9619C76.2708 96.4971 76.4668 95.7793 76.4668 94.8086C76.4668 93.8835 76.2754 93.1908 75.8926 92.7305C75.5143 92.2702 75.0609 92.04 74.5322 92.04C74.0081 92.04 73.5433 92.2861 73.1377 92.7783C72.7367 93.266 72.5361 93.9769 72.5361 94.9111ZM84.1846 96.1621L85.4561 96.3193C85.2555 97.0622 84.8841 97.6387 84.3418 98.0488C83.7995 98.459 83.1068 98.6641 82.2637 98.6641C81.2018 98.6641 80.3587 98.3382 79.7344 97.6865C79.1146 97.0303 78.8047 96.112 78.8047 94.9316C78.8047 93.7103 79.1191 92.7624 79.748 92.0879C80.377 91.4134 81.1927 91.0762 82.1953 91.0762C83.166 91.0762 83.959 91.4066 84.5742 92.0674C85.1895 92.7282 85.4971 93.6579 85.4971 94.8564C85.4971 94.9294 85.4948 95.0387 85.4902 95.1846H80.0762C80.1217 95.9821 80.3473 96.5928 80.7529 97.0166C81.1585 97.4404 81.6644 97.6523 82.2705 97.6523C82.7217 97.6523 83.1068 97.5339 83.4258 97.2969C83.7448 97.0599 83.9977 96.6816 84.1846 96.1621ZM80.1445 94.1729H84.1982C84.1436 93.5622 83.9886 93.1042 83.7334 92.7988C83.3415 92.3249 82.8333 92.0879 82.209 92.0879C81.6439 92.0879 81.1676 92.277 80.7803 92.6553C80.3975 93.0335 80.1855 93.5394 80.1445 94.1729ZM87.0078 98.5V91.2402H88.1152V92.2725C88.6484 91.4749 89.4186 91.0762 90.4258 91.0762C90.8633 91.0762 91.2643 91.1559 91.6289 91.3154C91.998 91.4704 92.2738 91.6755 92.4561 91.9307C92.6383 92.1859 92.766 92.4889 92.8389 92.8398C92.8844 93.0677 92.9072 93.4665 92.9072 94.0361V98.5H91.6768V94.084C91.6768 93.5827 91.6289 93.209 91.5332 92.9629C91.4375 92.7122 91.2666 92.514 91.0205 92.3682C90.779 92.2178 90.4941 92.1426 90.166 92.1426C89.6419 92.1426 89.1885 92.3089 88.8057 92.6416C88.4274 92.9743 88.2383 93.6055 88.2383 94.5352V98.5H87.0078ZM99.5381 95.8408L100.748 95.998C100.616 96.832 100.276 97.486 99.7295 97.96C99.1872 98.4294 98.5195 98.6641 97.7266 98.6641C96.7331 98.6641 95.9333 98.3405 95.3271 97.6934C94.7256 97.0417 94.4248 96.1097 94.4248 94.8975C94.4248 94.1136 94.5547 93.4277 94.8145 92.8398C95.0742 92.252 95.4684 91.8122 95.9971 91.5205C96.5303 91.2243 97.109 91.0762 97.7334 91.0762C98.5218 91.0762 99.1667 91.2767 99.668 91.6777C100.169 92.0742 100.491 92.6393 100.632 93.373L99.4355 93.5576C99.3216 93.07 99.1188 92.7031 98.8271 92.457C98.54 92.2109 98.1914 92.0879 97.7812 92.0879C97.1615 92.0879 96.6579 92.3112 96.2705 92.7578C95.8831 93.1999 95.6895 93.9017 95.6895 94.8633C95.6895 95.8385 95.8763 96.5472 96.25 96.9893C96.6237 97.4313 97.1113 97.6523 97.7129 97.6523C98.196 97.6523 98.5993 97.5042 98.9229 97.208C99.2464 96.9118 99.4515 96.4561 99.5381 95.8408ZM96.6875 99.416L97.043 98.2061H97.959L97.7334 98.9375C98.1208 98.9831 98.4124 99.1016 98.6084 99.293C98.8044 99.4889 98.9023 99.7054 98.9023 99.9424C98.9023 100.284 98.7383 100.585 98.4102 100.845C98.082 101.109 97.5876 101.241 96.9268 101.241C96.5531 101.241 96.2249 101.214 95.9424 101.159L96.0176 100.359C96.3092 100.378 96.5234 100.387 96.6602 100.387C97.0885 100.387 97.3893 100.327 97.5625 100.209C97.6947 100.118 97.7607 100.006 97.7607 99.874C97.7607 99.792 97.7334 99.7191 97.6787 99.6553C97.6286 99.5915 97.5329 99.5368 97.3916 99.4912C97.2503 99.4456 97.0156 99.4206 96.6875 99.416ZM106.538 97.6045C106.082 97.9919 105.643 98.2653 105.219 98.4248C104.799 98.5843 104.348 98.6641 103.865 98.6641C103.068 98.6641 102.455 98.4704 102.026 98.083C101.598 97.6911 101.384 97.1921 101.384 96.5859C101.384 96.2305 101.464 95.9069 101.623 95.6152C101.787 95.319 101.999 95.082 102.259 94.9043C102.523 94.7266 102.819 94.5921 103.147 94.501C103.389 94.4372 103.754 94.3757 104.241 94.3164C105.235 94.1979 105.966 94.0566 106.436 93.8926C106.44 93.724 106.442 93.6169 106.442 93.5713C106.442 93.07 106.326 92.7168 106.094 92.5117C105.779 92.2337 105.312 92.0947 104.692 92.0947C104.114 92.0947 103.685 92.1973 103.407 92.4023C103.134 92.6029 102.931 92.9606 102.799 93.4756L101.596 93.3115C101.705 92.7965 101.885 92.3818 102.136 92.0674C102.386 91.7484 102.749 91.5046 103.223 91.3359C103.697 91.1628 104.246 91.0762 104.87 91.0762C105.49 91.0762 105.993 91.1491 106.381 91.2949C106.768 91.4408 107.053 91.6253 107.235 91.8486C107.418 92.0674 107.545 92.3454 107.618 92.6826C107.659 92.8923 107.68 93.2705 107.68 93.8174V95.458C107.68 96.6019 107.705 97.3265 107.755 97.6318C107.81 97.9326 107.914 98.222 108.069 98.5H106.784C106.657 98.2448 106.575 97.9463 106.538 97.6045ZM106.436 94.8564C105.989 95.0387 105.319 95.1937 104.426 95.3213C103.92 95.3942 103.562 95.4762 103.353 95.5674C103.143 95.6585 102.981 95.793 102.867 95.9707C102.753 96.1439 102.696 96.3376 102.696 96.5518C102.696 96.8799 102.819 97.1533 103.065 97.3721C103.316 97.5908 103.681 97.7002 104.159 97.7002C104.633 97.7002 105.055 97.5977 105.424 97.3926C105.793 97.1829 106.064 96.8981 106.237 96.5381C106.369 96.2601 106.436 95.8499 106.436 95.3076V94.8564ZM102.443 90.167C102.439 89.693 102.569 89.3148 102.833 89.0322C103.093 88.7497 103.425 88.6084 103.831 88.6084C104.114 88.6084 104.499 88.7314 104.986 88.9775C105.255 89.1143 105.469 89.1826 105.629 89.1826C105.775 89.1826 105.886 89.1439 105.964 89.0664C106.041 88.9844 106.096 88.8249 106.128 88.5879H107.017C107.003 89.1074 106.871 89.4971 106.62 89.7568C106.374 90.0166 106.06 90.1465 105.677 90.1465C105.39 90.1465 105.011 90.0189 104.542 89.7637C104.237 89.5996 104.013 89.5176 103.872 89.5176C103.717 89.5176 103.592 89.5723 103.496 89.6816C103.396 89.791 103.348 89.9528 103.353 90.167H102.443ZM109.136 94.8701C109.136 93.5257 109.509 92.5299 110.257 91.8828C110.881 91.3451 111.642 91.0762 112.54 91.0762C113.538 91.0762 114.354 91.4043 114.987 92.0605C115.621 92.7122 115.938 93.6146 115.938 94.7676C115.938 95.7018 115.796 96.4378 115.514 96.9756C115.236 97.5088 114.828 97.9235 114.29 98.2197C113.757 98.516 113.174 98.6641 112.54 98.6641C111.524 98.6641 110.701 98.3382 110.072 97.6865C109.448 97.0348 109.136 96.096 109.136 94.8701ZM110.4 94.8701C110.4 95.7998 110.603 96.4971 111.009 96.9619C111.414 97.4222 111.925 97.6523 112.54 97.6523C113.151 97.6523 113.659 97.4199 114.064 96.9551C114.47 96.4902 114.673 95.7816 114.673 94.8291C114.673 93.9313 114.468 93.2523 114.058 92.792C113.652 92.3271 113.146 92.0947 112.54 92.0947C111.925 92.0947 111.414 92.3249 111.009 92.7852C110.603 93.2454 110.4 93.9404 110.4 94.8701Z" fill="#D1D5DB"/>
<path d="M82.8213 121V110.979H84.8174L87.1895 118.074C87.4082 118.735 87.5677 119.229 87.668 119.558C87.7819 119.193 87.9596 118.658 88.2012 117.951L90.6006 110.979H92.3848V121H91.1064V112.612L88.1943 121H86.998L84.0996 112.469V121H82.8213ZM94.5518 121V110.979H101.798V112.161H95.8779V115.23H101.422V116.406H95.8779V119.817H102.03V121H94.5518ZM103.849 121V110.979H105.209L110.473 118.847V110.979H111.744V121H110.384L105.12 113.125V121H103.849ZM113.528 117.78L114.779 117.671C114.839 118.172 114.975 118.585 115.189 118.908C115.408 119.227 115.745 119.487 116.201 119.688C116.657 119.883 117.17 119.981 117.739 119.981C118.245 119.981 118.692 119.906 119.079 119.756C119.466 119.605 119.754 119.4 119.94 119.141C120.132 118.876 120.228 118.589 120.228 118.279C120.228 117.965 120.136 117.691 119.954 117.459C119.772 117.222 119.471 117.024 119.052 116.864C118.783 116.759 118.188 116.598 117.268 116.379C116.347 116.156 115.702 115.946 115.333 115.75C114.854 115.499 114.497 115.189 114.26 114.82C114.027 114.447 113.911 114.03 113.911 113.569C113.911 113.063 114.055 112.592 114.342 112.154C114.629 111.712 115.048 111.377 115.6 111.149C116.151 110.922 116.764 110.808 117.438 110.808C118.181 110.808 118.835 110.928 119.4 111.17C119.97 111.407 120.408 111.758 120.713 112.223C121.018 112.688 121.182 113.214 121.205 113.802L119.934 113.897C119.865 113.264 119.633 112.785 119.236 112.462C118.844 112.138 118.263 111.977 117.493 111.977C116.691 111.977 116.105 112.125 115.736 112.421C115.372 112.713 115.189 113.066 115.189 113.48C115.189 113.84 115.319 114.137 115.579 114.369C115.834 114.602 116.5 114.841 117.575 115.087C118.655 115.328 119.396 115.54 119.797 115.723C120.38 115.992 120.811 116.333 121.089 116.748C121.367 117.158 121.506 117.632 121.506 118.17C121.506 118.703 121.353 119.207 121.048 119.681C120.743 120.15 120.303 120.517 119.729 120.781C119.159 121.041 118.516 121.171 117.801 121.171C116.894 121.171 116.133 121.039 115.518 120.774C114.907 120.51 114.426 120.114 114.075 119.585C113.729 119.052 113.547 118.45 113.528 117.78ZM122.217 121L126.065 110.979H127.494L131.596 121H130.085L128.916 117.965H124.726L123.625 121H122.217ZM125.108 116.885H128.506L127.46 114.109C127.141 113.266 126.904 112.574 126.749 112.031C126.621 112.674 126.441 113.312 126.209 113.945L125.108 116.885ZM132.601 121V110.979H133.927V119.817H138.862V121H132.601Z" fill="#E5E7EB"/>
<path d="M27.4817 152.514C27.4817 151.326 27.8007 150.396 28.4388 149.726C29.0768 149.052 29.9003 148.715 30.9095 148.715C31.5703 148.715 32.166 148.873 32.6966 149.188C33.2272 149.504 33.6308 149.945 33.9075 150.512C34.1874 151.075 34.3274 151.715 34.3274 152.431C34.3274 153.157 34.1809 153.806 33.888 154.379C33.595 154.952 33.18 155.386 32.6429 155.683C32.1057 155.976 31.5263 156.122 30.9046 156.122C30.2307 156.122 29.6285 155.959 29.0979 155.634C28.5673 155.308 28.1653 154.864 27.8919 154.301C27.6184 153.738 27.4817 153.142 27.4817 152.514ZM28.4583 152.528C28.4583 153.391 28.6894 154.071 29.1516 154.569C29.6171 155.064 30.1998 155.312 30.8997 155.312C31.6126 155.312 32.1985 155.061 32.6575 154.56C33.1197 154.058 33.3509 153.347 33.3509 152.426C33.3509 151.843 33.2516 151.335 33.053 150.902C32.8577 150.466 32.5696 150.129 32.1888 149.892C31.8111 149.651 31.3863 149.53 30.9143 149.53C30.2438 149.53 29.666 149.761 29.1809 150.224C28.6992 150.683 28.4583 151.451 28.4583 152.528ZM35.6507 156V151.498H34.8743V150.814H35.6507V150.263C35.6507 149.914 35.6816 149.656 35.7434 149.486C35.8281 149.258 35.9762 149.075 36.1878 148.935C36.4026 148.791 36.7021 148.72 37.0862 148.72C37.3336 148.72 37.607 148.749 37.9065 148.808L37.7747 149.574C37.5924 149.542 37.4199 149.525 37.2571 149.525C36.9902 149.525 36.8014 149.582 36.6907 149.696C36.58 149.81 36.5247 150.023 36.5247 150.336V150.814H37.5354V151.498H36.5247V156H35.6507ZM41.7737 154.33L42.6819 154.442C42.5387 154.973 42.2734 155.385 41.886 155.678C41.4986 155.971 41.0039 156.117 40.4016 156.117C39.6432 156.117 39.041 155.884 38.595 155.419C38.1523 154.95 37.9309 154.294 37.9309 153.451C37.9309 152.579 38.1555 151.902 38.6048 151.42C39.054 150.938 39.6367 150.697 40.3528 150.697C41.0462 150.697 41.6126 150.933 42.052 151.405C42.4915 151.877 42.7112 152.541 42.7112 153.397C42.7112 153.45 42.7096 153.528 42.7063 153.632H38.8391C38.8717 154.201 39.0328 154.638 39.3225 154.94C39.6123 155.243 39.9736 155.395 40.4065 155.395C40.7288 155.395 41.0039 155.31 41.2317 155.141C41.4596 154.971 41.6402 154.701 41.7737 154.33ZM38.888 152.909H41.7835C41.7444 152.473 41.6337 152.146 41.4514 151.928C41.1715 151.589 40.8085 151.42 40.3626 151.42C39.9589 151.42 39.6188 151.555 39.3421 151.825C39.0686 152.095 38.9173 152.457 38.888 152.909ZM43.7805 156V150.814H44.5716V151.601C44.7734 151.233 44.9589 150.99 45.1282 150.873C45.3007 150.756 45.4895 150.697 45.6946 150.697C45.9908 150.697 46.2919 150.792 46.5979 150.98L46.2952 151.796C46.0804 151.669 45.8655 151.605 45.6507 151.605C45.4586 151.605 45.2861 151.664 45.1331 151.781C44.9801 151.895 44.871 152.055 44.8059 152.26C44.7083 152.572 44.6595 152.914 44.6595 153.285V156H43.7805ZM49.0393 155.214L49.1663 155.99C48.9189 156.042 48.6975 156.068 48.5022 156.068C48.1832 156.068 47.9358 156.018 47.76 155.917C47.5843 155.816 47.4606 155.684 47.3889 155.521C47.3173 155.355 47.2815 155.009 47.2815 154.481V151.498H46.637V150.814H47.2815V149.53L48.1555 149.003V150.814H49.0393V151.498H48.1555V154.53C48.1555 154.781 48.1702 154.942 48.1995 155.014C48.232 155.085 48.2825 155.142 48.3509 155.185C48.4225 155.227 48.5234 155.248 48.6536 155.248C48.7513 155.248 48.8798 155.237 49.0393 155.214ZM53.2874 155.36C52.9619 155.637 52.6477 155.832 52.345 155.946C52.0455 156.06 51.7233 156.117 51.3782 156.117C50.8085 156.117 50.3707 155.979 50.0647 155.702C49.7587 155.422 49.6057 155.066 49.6057 154.633C49.6057 154.379 49.6627 154.148 49.7766 153.939C49.8938 153.728 50.0452 153.559 50.2307 153.432C50.4195 153.305 50.6311 153.209 50.8655 153.144C51.038 153.098 51.2985 153.054 51.6468 153.012C52.3564 152.927 52.8789 152.826 53.2141 152.709C53.2174 152.589 53.219 152.512 53.219 152.479C53.219 152.121 53.136 151.869 52.97 151.723C52.7454 151.524 52.4117 151.425 51.969 151.425C51.5556 151.425 51.2496 151.498 51.0511 151.645C50.8557 151.788 50.7109 152.043 50.6165 152.411L49.7571 152.294C49.8352 151.926 49.9638 151.63 50.1429 151.405C50.3219 151.177 50.5807 151.003 50.9192 150.883C51.2578 150.759 51.65 150.697 52.096 150.697C52.5387 150.697 52.8984 150.749 53.1751 150.854C53.4518 150.958 53.6552 151.09 53.7854 151.249C53.9156 151.405 54.0068 151.604 54.0589 151.845C54.0882 151.994 54.1028 152.265 54.1028 152.655V153.827C54.1028 154.644 54.1207 155.162 54.1565 155.38C54.1956 155.595 54.2705 155.801 54.3811 156H53.4632C53.372 155.818 53.3134 155.604 53.2874 155.36ZM53.2141 153.397C52.8951 153.528 52.4166 153.638 51.7786 153.729C51.4173 153.782 51.1617 153.84 51.012 153.905C50.8623 153.97 50.7467 154.066 50.6653 154.193C50.5839 154.317 50.5432 154.455 50.5432 154.608C50.5432 154.843 50.6311 155.038 50.8069 155.194C50.986 155.351 51.2464 155.429 51.5882 155.429C51.9267 155.429 52.2278 155.355 52.4915 155.209C52.7552 155.059 52.9488 154.856 53.0725 154.599C53.1669 154.4 53.2141 154.107 53.2141 153.72V153.397ZM58.2532 157.987V150.814H59.054V151.488C59.2428 151.225 59.456 151.028 59.6936 150.897C59.9313 150.764 60.2194 150.697 60.5579 150.697C61.0006 150.697 61.3912 150.811 61.7298 151.039C62.0683 151.267 62.3238 151.589 62.4964 152.006C62.6689 152.419 62.7552 152.873 62.7552 153.368C62.7552 153.899 62.6591 154.377 62.4671 154.804C62.2783 155.227 62.0016 155.552 61.637 155.78C61.2757 156.005 60.8948 156.117 60.4944 156.117C60.2014 156.117 59.9378 156.055 59.7034 155.932C59.4723 155.808 59.2819 155.652 59.1321 155.463V157.987H58.2532ZM59.0491 153.437C59.0491 154.104 59.1842 154.597 59.4544 154.916C59.7246 155.235 60.0517 155.395 60.4358 155.395C60.8264 155.395 61.1601 155.23 61.4368 154.901C61.7167 154.569 61.8567 154.057 61.8567 153.363C61.8567 152.702 61.72 152.208 61.4466 151.879C61.1764 151.55 60.8525 151.386 60.4749 151.386C60.1005 151.386 59.7685 151.562 59.4788 151.913C59.1923 152.261 59.0491 152.769 59.0491 153.437ZM63.4925 153.407C63.4925 152.447 63.7594 151.736 64.2932 151.273C64.7392 150.889 65.2828 150.697 65.9241 150.697C66.637 150.697 67.2197 150.932 67.6721 151.4C68.1246 151.866 68.3509 152.51 68.3509 153.334C68.3509 154.001 68.2499 154.527 68.0481 154.911C67.8496 155.292 67.5582 155.588 67.1741 155.8C66.7932 156.011 66.3766 156.117 65.9241 156.117C65.1982 156.117 64.6106 155.884 64.1614 155.419C63.7154 154.953 63.4925 154.283 63.4925 153.407ZM64.3958 153.407C64.3958 154.071 64.5406 154.569 64.8304 154.901C65.1201 155.23 65.4846 155.395 65.9241 155.395C66.3603 155.395 66.7233 155.229 67.013 154.896C67.3027 154.564 67.4475 154.058 67.4475 153.378C67.4475 152.737 67.3011 152.252 67.0081 151.923C66.7184 151.591 66.357 151.425 65.9241 151.425C65.4846 151.425 65.1201 151.589 64.8304 151.918C64.5406 152.247 64.3958 152.743 64.3958 153.407ZM69.3763 156V150.814H70.1673V151.601C70.3691 151.233 70.5546 150.99 70.7239 150.873C70.8964 150.756 71.0852 150.697 71.2903 150.697C71.5865 150.697 71.8876 150.792 72.1936 150.98L71.8909 151.796C71.6761 151.669 71.4612 151.605 71.2464 151.605C71.0543 151.605 70.8818 151.664 70.7288 151.781C70.5758 151.895 70.4667 152.055 70.4016 152.26C70.304 152.572 70.2552 152.914 70.2552 153.285V156H69.3763ZM77.4182 155.214L77.5452 155.99C77.2978 156.042 77.0764 156.068 76.8811 156.068C76.5621 156.068 76.3147 156.018 76.1389 155.917C75.9632 155.816 75.8395 155.684 75.7679 155.521C75.6962 155.355 75.6604 155.009 75.6604 154.481V151.498H75.0159V150.814H75.6604V149.53L76.5345 149.003V150.814H77.4182V151.498H76.5345V154.53C76.5345 154.781 76.5491 154.942 76.5784 155.014C76.611 155.085 76.6614 155.142 76.7298 155.185C76.8014 155.227 76.9023 155.248 77.0325 155.248C77.1302 155.248 77.2587 155.237 77.4182 155.214ZM81.8323 154.33L82.7405 154.442C82.5973 154.973 82.332 155.385 81.9446 155.678C81.5572 155.971 81.0624 156.117 80.4602 156.117C79.7018 156.117 79.0996 155.884 78.6536 155.419C78.2109 154.95 77.9895 154.294 77.9895 153.451C77.9895 152.579 78.2141 151.902 78.6634 151.42C79.1126 150.938 79.6953 150.697 80.4114 150.697C81.1048 150.697 81.6712 150.933 82.1106 151.405C82.5501 151.877 82.7698 152.541 82.7698 153.397C82.7698 153.45 82.7682 153.528 82.7649 153.632H78.8977C78.9303 154.201 79.0914 154.638 79.3811 154.94C79.6708 155.243 80.0322 155.395 80.4651 155.395C80.7874 155.395 81.0624 155.31 81.2903 155.141C81.5182 154.971 81.6988 154.701 81.8323 154.33ZM78.9466 152.909H81.8421C81.803 152.473 81.6923 152.146 81.51 151.928C81.2301 151.589 80.8671 151.42 80.4212 151.42C80.0175 151.42 79.6774 151.555 79.4007 151.825C79.1272 152.095 78.9759 152.457 78.9466 152.909ZM83.8489 156V150.814H84.635V151.542C84.7978 151.288 85.0143 151.085 85.2845 150.932C85.5546 150.775 85.8623 150.697 86.2073 150.697C86.5914 150.697 86.9055 150.777 87.1497 150.937C87.3971 151.096 87.5712 151.319 87.6721 151.605C88.0823 151 88.6162 150.697 89.2737 150.697C89.788 150.697 90.1835 150.84 90.4602 151.127C90.7369 151.41 90.8753 151.848 90.8753 152.44V156H90.0013V152.733C90.0013 152.382 89.972 152.13 89.9134 151.977C89.858 151.82 89.7555 151.695 89.6057 151.601C89.456 151.506 89.2802 151.459 89.0784 151.459C88.7138 151.459 88.4111 151.581 88.1702 151.825C87.9293 152.066 87.8089 152.453 87.8089 152.987V156H86.93V152.631C86.93 152.24 86.8583 151.947 86.7151 151.752C86.5719 151.557 86.3375 151.459 86.012 151.459C85.7646 151.459 85.5351 151.524 85.3235 151.654C85.1152 151.785 84.9638 151.975 84.8694 152.226C84.775 152.476 84.7278 152.838 84.7278 153.31V156H83.8489ZM92.179 157.987V150.814H92.9798V151.488C93.1686 151.225 93.3818 151.028 93.6194 150.897C93.857 150.764 94.1451 150.697 94.4837 150.697C94.9264 150.697 95.317 150.811 95.6555 151.039C95.9941 151.267 96.2496 151.589 96.4221 152.006C96.5947 152.419 96.6809 152.873 96.6809 153.368C96.6809 153.899 96.5849 154.377 96.3929 154.804C96.2041 155.227 95.9274 155.552 95.5628 155.78C95.2014 156.005 94.8206 156.117 94.4202 156.117C94.1272 156.117 93.8636 156.055 93.6292 155.932C93.3981 155.808 93.2076 155.652 93.0579 155.463V157.987H92.179ZM92.9749 153.437C92.9749 154.104 93.11 154.597 93.3802 154.916C93.6503 155.235 93.9775 155.395 94.3616 155.395C94.7522 155.395 95.0859 155.23 95.3626 154.901C95.6425 154.569 95.7825 154.057 95.7825 153.363C95.7825 152.702 95.6458 152.208 95.3723 151.879C95.1022 151.55 94.7783 151.386 94.4007 151.386C94.0263 151.386 93.6943 151.562 93.4046 151.913C93.1181 152.261 92.9749 152.769 92.9749 153.437ZM97.4182 153.407C97.4182 152.447 97.6852 151.736 98.219 151.273C98.665 150.889 99.2086 150.697 99.8499 150.697C100.563 150.697 101.145 150.932 101.598 151.4C102.05 151.866 102.277 152.51 102.277 153.334C102.277 154.001 102.176 154.527 101.974 154.911C101.775 155.292 101.484 155.588 101.1 155.8C100.719 156.011 100.302 156.117 99.8499 156.117C99.124 156.117 98.5364 155.884 98.0872 155.419C97.6412 154.953 97.4182 154.283 97.4182 153.407ZM98.3216 153.407C98.3216 154.071 98.4664 154.569 98.7561 154.901C99.0458 155.23 99.4104 155.395 99.8499 155.395C100.286 155.395 100.649 155.229 100.939 154.896C101.228 154.564 101.373 154.058 101.373 153.378C101.373 152.737 101.227 152.252 100.934 151.923C100.644 151.591 100.283 151.425 99.8499 151.425C99.4104 151.425 99.0458 151.589 98.7561 151.918C98.4664 152.247 98.3216 152.743 98.3216 153.407ZM106.075 156V148.842H106.954V156H106.075ZM108.326 149.853V148.842H109.205V149.853H108.326ZM108.326 156V150.814H109.205V156H108.326ZM110.548 156V150.814H111.334V151.542C111.497 151.288 111.713 151.085 111.984 150.932C112.254 150.775 112.561 150.697 112.907 150.697C113.291 150.697 113.605 150.777 113.849 150.937C114.096 151.096 114.27 151.319 114.371 151.605C114.782 151 115.315 150.697 115.973 150.697C116.487 150.697 116.883 150.84 117.159 151.127C117.436 151.41 117.574 151.848 117.574 152.44V156H116.7V152.733C116.7 152.382 116.671 152.13 116.613 151.977C116.557 151.82 116.455 151.695 116.305 151.601C116.155 151.506 115.979 151.459 115.778 151.459C115.413 151.459 115.11 151.581 114.869 151.825C114.629 152.066 114.508 152.453 114.508 152.987V156H113.629V152.631C113.629 152.24 113.558 151.947 113.414 151.752C113.271 151.557 113.037 151.459 112.711 151.459C112.464 151.459 112.234 151.524 112.023 151.654C111.814 151.785 111.663 151.975 111.569 152.226C111.474 152.476 111.427 152.838 111.427 153.31V156H110.548ZM118.883 149.853V148.842H119.762V149.853H118.883ZM118.883 156V150.814H119.762V156H118.883ZM123.024 155.214L123.151 155.99C122.903 156.042 122.682 156.068 122.487 156.068C122.168 156.068 121.92 156.018 121.744 155.917C121.569 155.816 121.445 155.684 121.373 155.521C121.302 155.355 121.266 155.009 121.266 154.481V151.498H120.621V150.814H121.266V149.53L122.14 149.003V150.814H123.024V151.498H122.14V154.53C122.14 154.781 122.155 154.942 122.184 155.014C122.216 155.085 122.267 155.142 122.335 155.185C122.407 155.227 122.508 155.248 122.638 155.248C122.736 155.248 122.864 155.237 123.024 155.214ZM127.272 155.36C126.946 155.637 126.632 155.832 126.329 155.946C126.03 156.06 125.708 156.117 125.363 156.117C124.793 156.117 124.355 155.979 124.049 155.702C123.743 155.422 123.59 155.066 123.59 154.633C123.59 154.379 123.647 154.148 123.761 153.939C123.878 153.728 124.03 153.559 124.215 153.432C124.404 153.305 124.616 153.209 124.85 153.144C125.022 153.098 125.283 153.054 125.631 153.012C126.341 152.927 126.863 152.826 127.199 152.709C127.202 152.589 127.203 152.512 127.203 152.479C127.203 152.121 127.12 151.869 126.954 151.723C126.73 151.524 126.396 151.425 125.953 151.425C125.54 151.425 125.234 151.498 125.035 151.645C124.84 151.788 124.695 152.043 124.601 152.411L123.741 152.294C123.82 151.926 123.948 151.63 124.127 151.405C124.306 151.177 124.565 151.003 124.904 150.883C125.242 150.759 125.634 150.697 126.08 150.697C126.523 150.697 126.883 150.749 127.159 150.854C127.436 150.958 127.64 151.09 127.77 151.249C127.9 151.405 127.991 151.604 128.043 151.845C128.073 151.994 128.087 152.265 128.087 152.655V153.827C128.087 154.644 128.105 155.162 128.141 155.38C128.18 155.595 128.255 155.801 128.366 156H127.448C127.356 155.818 127.298 155.604 127.272 155.36ZM127.199 153.397C126.88 153.528 126.401 153.638 125.763 153.729C125.402 153.782 125.146 153.84 124.996 153.905C124.847 153.97 124.731 154.066 124.65 154.193C124.568 154.317 124.528 154.455 124.528 154.608C124.528 154.843 124.616 155.038 124.791 155.194C124.97 155.351 125.231 155.429 125.573 155.429C125.911 155.429 126.212 155.355 126.476 155.209C126.74 155.059 126.933 154.856 127.057 154.599C127.151 154.4 127.199 154.107 127.199 153.72V153.397ZM132.819 156V155.346C132.49 155.86 132.006 156.117 131.368 156.117C130.955 156.117 130.574 156.003 130.226 155.775C129.881 155.548 129.612 155.23 129.42 154.823C129.231 154.413 129.137 153.943 129.137 153.412C129.137 152.895 129.223 152.426 129.396 152.006C129.568 151.583 129.827 151.259 130.172 151.034C130.517 150.81 130.903 150.697 131.329 150.697C131.642 150.697 131.92 150.764 132.164 150.897C132.408 151.028 132.607 151.199 132.76 151.41V148.842H133.634V156H132.819ZM130.04 153.412C130.04 154.076 130.18 154.573 130.46 154.901C130.74 155.23 131.071 155.395 131.451 155.395C131.836 155.395 132.161 155.238 132.428 154.926C132.698 154.61 132.833 154.13 132.833 153.485C132.833 152.776 132.697 152.255 132.423 151.923C132.15 151.591 131.813 151.425 131.412 151.425C131.022 151.425 130.695 151.584 130.431 151.903C130.171 152.222 130.04 152.725 130.04 153.412ZM134.694 153.407C134.694 152.447 134.961 151.736 135.494 151.273C135.94 150.889 136.484 150.697 137.125 150.697C137.838 150.697 138.421 150.932 138.873 151.4C139.326 151.866 139.552 152.51 139.552 153.334C139.552 154.001 139.451 154.527 139.249 154.911C139.051 155.292 138.759 155.588 138.375 155.8C137.994 156.011 137.578 156.117 137.125 156.117C136.399 156.117 135.812 155.884 135.363 155.419C134.917 154.953 134.694 154.283 134.694 153.407ZM135.597 153.407C135.597 154.071 135.742 154.569 136.032 154.901C136.321 155.23 136.686 155.395 137.125 155.395C137.561 155.395 137.924 155.229 138.214 154.896C138.504 154.564 138.649 154.058 138.649 153.378C138.649 152.737 138.502 152.252 138.209 151.923C137.92 151.591 137.558 151.425 137.125 151.425C136.686 151.425 136.321 151.589 136.032 151.918C135.742 152.247 135.597 152.743 135.597 153.407Z" fill="#4ADE80"/>
<path d="M34.9427 121L31.0598 110.979H32.4954L35.0999 118.259C35.3095 118.842 35.485 119.389 35.6263 119.899C35.7812 119.353 35.9612 118.806 36.1663 118.259L38.8733 110.979H40.2268L36.303 121H34.9427ZM39.2766 121L43.1253 110.979H44.554L48.6555 121H47.1448L45.9759 117.965H41.7854L40.6848 121H39.2766ZM42.1682 116.885H45.5657L44.5198 114.109C44.2008 113.266 43.9638 112.574 43.8089 112.031C43.6813 112.674 43.5013 113.312 43.2688 113.945L42.1682 116.885ZM49.6604 121V110.979H50.9866V119.817H55.9221V121H49.6604ZM57.1048 116.119C57.1048 114.456 57.5514 113.155 58.4446 112.216C59.3378 111.272 60.4908 110.801 61.9036 110.801C62.8287 110.801 63.6627 111.022 64.4055 111.464C65.1484 111.906 65.7135 112.523 66.1009 113.316C66.4928 114.105 66.6888 115 66.6888 116.003C66.6888 117.019 66.4837 117.928 66.0735 118.73C65.6634 119.533 65.0823 120.141 64.3304 120.556C63.5784 120.966 62.7672 121.171 61.8968 121.171C60.9534 121.171 60.1103 120.943 59.3675 120.487C58.6246 120.032 58.0618 119.41 57.679 118.621C57.2962 117.833 57.1048 116.999 57.1048 116.119ZM58.472 116.14C58.472 117.347 58.7955 118.3 59.4427 118.997C60.0944 119.69 60.9101 120.036 61.8899 120.036C62.888 120.036 63.7083 119.685 64.3509 118.983C64.998 118.282 65.3216 117.286 65.3216 115.996C65.3216 115.18 65.1826 114.469 64.9046 113.863C64.6311 113.253 64.2278 112.781 63.6946 112.448C63.166 112.111 62.5712 111.942 61.9104 111.942C60.9716 111.942 60.1627 112.266 59.4837 112.913C58.8092 113.556 58.472 114.631 58.472 116.14ZM68.4251 121V110.979H72.8684C73.7617 110.979 74.4407 111.07 74.9055 111.252C75.3704 111.43 75.7418 111.746 76.0198 112.202C76.2978 112.658 76.4368 113.161 76.4368 113.713C76.4368 114.424 76.2067 115.023 75.7464 115.511C75.2861 115.998 74.5751 116.308 73.6136 116.44C73.9645 116.609 74.2311 116.775 74.4134 116.939C74.8007 117.295 75.1676 117.739 75.5139 118.272L77.2571 121H75.5891L74.263 118.915C73.8756 118.313 73.5566 117.853 73.3059 117.534C73.0553 117.215 72.8297 116.992 72.6292 116.864C72.4332 116.737 72.2327 116.648 72.0276 116.598C71.8772 116.566 71.6311 116.55 71.2893 116.55H69.7513V121H68.4251ZM69.7513 115.401H72.6018C73.208 115.401 73.6819 115.34 74.0237 115.217C74.3655 115.089 74.6253 114.889 74.803 114.615C74.9807 114.337 75.0696 114.036 75.0696 113.713C75.0696 113.239 74.8964 112.849 74.5501 112.544C74.2083 112.239 73.666 112.086 72.9231 112.086H69.7513V115.401Z" fill="url(#paint1_linear_24_8)"/>
<path d="M52.6566 70V59.2627H57.4173C58.3744 59.2627 59.1019 59.3604 59.6 59.5557C60.098 59.7461 60.496 60.0854 60.7938 60.5737C61.0917 61.062 61.2406 61.6016 61.2406 62.1924C61.2406 62.9541 60.994 63.5962 60.5008 64.1187C60.0077 64.6411 59.246 64.9731 58.2157 65.1147C58.5917 65.2954 58.8773 65.4736 59.0726 65.6494C59.4877 66.0303 59.8807 66.5063 60.2518 67.0776L62.1195 70H60.3324L58.9115 67.7661C58.4964 67.1216 58.1546 66.6284 57.8861 66.2866C57.6175 65.9448 57.3758 65.7056 57.161 65.5688C56.951 65.4321 56.7362 65.3369 56.5165 65.2832C56.3553 65.249 56.0917 65.2319 55.7254 65.2319H54.0775V70H52.6566ZM54.0775 64.0015H57.1317C57.7811 64.0015 58.2889 63.9355 58.6551 63.8037C59.0213 63.667 59.2997 63.4521 59.4901 63.1592C59.6805 62.8613 59.7757 62.5391 59.7757 62.1924C59.7757 61.6846 59.5902 61.2671 59.2191 60.9399C58.8529 60.6128 58.2718 60.4492 57.4759 60.4492H54.0775V64.0015ZM66.0526 71.5454V70.2271C65.3934 70.144 64.8563 69.9976 64.4413 69.7876C64.0311 69.5728 63.6747 69.2285 63.3719 68.7549C63.0741 68.2812 62.9007 67.7026 62.8519 67.019L64.1776 66.77C64.2801 67.478 64.4608 67.998 64.7196 68.3301C65.0907 68.7988 65.535 69.0601 66.0526 69.1138V64.917C65.5106 64.8145 64.9564 64.6045 64.39 64.2871C63.9701 64.0527 63.6454 63.728 63.4159 63.313C63.1913 62.8979 63.079 62.4268 63.079 61.8994C63.079 60.9619 63.411 60.2026 64.0751 59.6216C64.5194 59.231 65.1786 58.9917 66.0526 58.9038V58.2739H66.829V58.9038C67.5956 58.9771 68.2035 59.2017 68.6527 59.5776C69.2289 60.0562 69.5755 60.7129 69.6927 61.5479L68.3304 61.7529C68.2523 61.2354 68.0887 60.8398 67.8397 60.5664C67.5956 60.2881 67.2587 60.105 66.829 60.0171V63.8184C67.493 63.9844 67.9325 64.1138 68.1473 64.2065C68.5575 64.3872 68.892 64.6069 69.1507 64.8657C69.4095 65.1245 69.6073 65.4321 69.744 65.7886C69.8856 66.145 69.9564 66.5308 69.9564 66.9458C69.9564 67.8589 69.6659 68.6206 69.0848 69.231C68.5038 69.8413 67.7518 70.1685 66.829 70.2124V71.5454H66.0526ZM66.0526 60.0024C65.5399 60.0806 65.1346 60.2856 64.8368 60.6177C64.5438 60.9497 64.3973 61.3428 64.3973 61.7969C64.3973 62.2461 64.5218 62.6221 64.7709 62.9248C65.0248 63.2275 65.452 63.4692 66.0526 63.6499V60.0024ZM66.829 69.1138C67.3417 69.0503 67.764 68.8281 68.0961 68.4473C68.433 68.0664 68.6014 67.5952 68.6014 67.0337C68.6014 66.5552 68.4818 66.1719 68.2425 65.8838C68.0082 65.5908 67.537 65.3296 66.829 65.1001V69.1138ZM76.2552 70H74.9369V61.5991C74.6195 61.9019 74.202 62.2046 73.6844 62.5073C73.1717 62.8101 72.7103 63.0371 72.3002 63.1885V61.9141C73.0375 61.5674 73.682 61.1475 74.2337 60.6543C74.7855 60.1611 75.1761 59.6826 75.4056 59.2188H76.2552V70ZM79.639 67.1875L81.0233 67.0703C81.1258 67.7441 81.3627 68.252 81.7337 68.5938C82.1097 68.9307 82.5614 69.0991 83.0887 69.0991C83.7235 69.0991 84.2606 68.8599 84.7001 68.3813C85.1395 67.9028 85.3592 67.2681 85.3592 66.4771C85.3592 65.7251 85.1468 65.1318 84.722 64.6973C84.3021 64.2627 83.7504 64.0454 83.0668 64.0454C82.642 64.0454 82.2587 64.1431 81.9169 64.3384C81.5751 64.5288 81.3065 64.7778 81.1112 65.0854L79.8734 64.9243L80.9134 59.4092H86.2528V60.6689H81.9681L81.3895 63.5547C82.034 63.1055 82.7103 62.8809 83.4183 62.8809C84.3558 62.8809 85.1468 63.2056 85.7914 63.855C86.4359 64.5044 86.7582 65.3394 86.7582 66.3599C86.7582 67.3315 86.475 68.1714 85.9086 68.8794C85.2201 69.7485 84.2801 70.1831 83.0887 70.1831C82.1122 70.1831 81.3138 69.9097 80.6937 69.3628C80.0785 68.8159 79.7269 68.0908 79.639 67.1875ZM87.9886 64.7046C87.9886 63.4351 88.118 62.4146 88.3768 61.6431C88.6405 60.8667 89.0287 60.2686 89.5414 59.8486C90.0589 59.4287 90.7084 59.2188 91.4896 59.2188C92.0658 59.2188 92.5712 59.3359 93.0057 59.5703C93.4403 59.7998 93.7992 60.1343 94.0824 60.5737C94.3656 61.0083 94.5878 61.5405 94.7489 62.1704C94.91 62.7954 94.9906 63.6401 94.9906 64.7046C94.9906 65.9644 94.8612 66.9824 94.6024 67.7588C94.3436 68.5303 93.9554 69.1284 93.4379 69.5532C92.9252 69.9731 92.2757 70.1831 91.4896 70.1831C90.4545 70.1831 89.6415 69.812 89.0506 69.0698C88.3426 68.1763 87.9886 66.7212 87.9886 64.7046ZM89.3436 64.7046C89.3436 66.4673 89.5487 67.6416 89.9588 68.2275C90.3739 68.8086 90.8841 69.0991 91.4896 69.0991C92.0951 69.0991 92.6029 68.8062 93.013 68.2202C93.4281 67.6343 93.6356 66.4624 93.6356 64.7046C93.6356 62.937 93.4281 61.7627 93.013 61.1816C92.6029 60.6006 92.0902 60.3101 91.475 60.3101C90.8695 60.3101 90.3861 60.5664 90.0248 61.0791C89.5707 61.7334 89.3436 62.9419 89.3436 64.7046ZM97.0487 70V68.4985H98.5502V70C98.5502 70.5518 98.4525 70.9961 98.2572 71.333C98.0619 71.6748 97.7518 71.9385 97.327 72.124L96.9608 71.5601C97.2391 71.438 97.4442 71.2573 97.576 71.0181C97.7079 70.7837 97.7811 70.4443 97.7958 70H97.0487ZM100.513 64.7046C100.513 63.4351 100.642 62.4146 100.901 61.6431C101.165 60.8667 101.553 60.2686 102.066 59.8486C102.583 59.4287 103.233 59.2188 104.014 59.2188C104.59 59.2188 105.096 59.3359 105.53 59.5703C105.965 59.7998 106.324 60.1343 106.607 60.5737C106.89 61.0083 107.112 61.5405 107.273 62.1704C107.434 62.7954 107.515 63.6401 107.515 64.7046C107.515 65.9644 107.386 66.9824 107.127 67.7588C106.868 68.5303 106.48 69.1284 105.962 69.5532C105.45 69.9731 104.8 70.1831 104.014 70.1831C102.979 70.1831 102.166 69.812 101.575 69.0698C100.867 68.1763 100.513 66.7212 100.513 64.7046ZM101.868 64.7046C101.868 66.4673 102.073 67.6416 102.483 68.2275C102.898 68.8086 103.409 69.0991 104.014 69.0991C104.619 69.0991 105.127 68.8062 105.537 68.2202C105.952 67.6343 106.16 66.4624 106.16 64.7046C106.16 62.937 105.952 61.7627 105.537 61.1816C105.127 60.6006 104.615 60.3101 103.999 60.3101C103.394 60.3101 102.911 60.5664 102.549 61.0791C102.095 61.7334 101.868 62.9419 101.868 64.7046ZM108.863 64.7046C108.863 63.4351 108.992 62.4146 109.251 61.6431C109.515 60.8667 109.903 60.2686 110.415 59.8486C110.933 59.4287 111.582 59.2188 112.364 59.2188C112.94 59.2188 113.445 59.3359 113.88 59.5703C114.314 59.7998 114.673 60.1343 114.956 60.5737C115.24 61.0083 115.462 61.5405 115.623 62.1704C115.784 62.7954 115.865 63.6401 115.865 64.7046C115.865 65.9644 115.735 66.9824 115.476 67.7588C115.218 68.5303 114.829 69.1284 114.312 69.5532C113.799 69.9731 113.15 70.1831 112.364 70.1831C111.328 70.1831 110.515 69.812 109.925 69.0698C109.217 68.1763 108.863 66.7212 108.863 64.7046ZM110.218 64.7046C110.218 66.4673 110.423 67.6416 110.833 68.2275C111.248 68.8086 111.758 69.0991 112.364 69.0991C112.969 69.0991 113.477 68.8062 113.887 68.2202C114.302 67.6343 114.51 66.4624 114.51 64.7046C114.51 62.937 114.302 61.7627 113.887 61.1816C113.477 60.6006 112.964 60.3101 112.349 60.3101C111.744 60.3101 111.26 60.5664 110.899 61.0791C110.445 61.7334 110.218 62.9419 110.218 64.7046Z" fill="white"/>
<path d="M32 194.5H139C145.351 194.5 150.5 199.649 150.5 206V365C150.5 371.351 145.351 376.5 139 376.5H32C25.6487 376.5 20.5 371.351 20.5 365V206C20.5 199.649 25.6487 194.5 32 194.5Z" fill="#111827"/>
<path d="M32 194.5H139C145.351 194.5 150.5 199.649 150.5 206V365C150.5 371.351 145.351 376.5 139 376.5H32C25.6487 376.5 20.5 371.351 20.5 365V206C20.5 199.649 25.6487 194.5 32 194.5Z" stroke="black"/>
<path d="M26.8857 215C26.8857 211.686 29.572 209 32.8857 209H139.448C142.762 209 145.448 211.686 145.448 215V229C145.448 232.314 142.762 235 139.448 235H32.8857C29.572 235 26.8857 232.314 26.8857 229V215Z" fill="url(#paint2_linear_24_8)"/>
<path d="M40.6155 225V219.273H42.7757C43.1559 219.273 43.4462 219.292 43.6468 219.328C43.928 219.375 44.1637 219.465 44.3538 219.598C44.5439 219.728 44.6962 219.911 44.8108 220.148C44.928 220.385 44.9866 220.646 44.9866 220.93C44.9866 221.417 44.8317 221.829 44.5218 222.168C44.2119 222.504 43.652 222.672 42.8421 222.672H41.3733V225H40.6155ZM41.3733 221.996H42.8538C43.3434 221.996 43.691 221.905 43.8968 221.723C44.1025 221.54 44.2054 221.284 44.2054 220.953C44.2054 220.714 44.1442 220.509 44.0218 220.34C43.902 220.168 43.7431 220.055 43.5452 220C43.4176 219.966 43.1819 219.949 42.8382 219.949H41.3733V221.996ZM46.2632 225V219.273H48.8022C49.3126 219.273 49.7007 219.326 49.9663 219.43C50.2319 219.531 50.4442 219.712 50.603 219.973C50.7619 220.233 50.8413 220.521 50.8413 220.836C50.8413 221.242 50.7098 221.585 50.4468 221.863C50.1837 222.142 49.7775 222.319 49.228 222.395C49.4285 222.491 49.5809 222.586 49.685 222.68C49.9064 222.883 50.116 223.137 50.3139 223.441L51.31 225H50.3569L49.5991 223.809C49.3777 223.465 49.1955 223.202 49.0522 223.02C48.909 222.837 48.7801 222.71 48.6655 222.637C48.5535 222.564 48.4389 222.513 48.3218 222.484C48.2358 222.466 48.0952 222.457 47.8999 222.457H47.021V225H46.2632ZM47.021 221.801H48.6499C48.9962 221.801 49.2671 221.766 49.4624 221.695C49.6577 221.622 49.8061 221.508 49.9077 221.352C50.0093 221.193 50.06 221.021 50.06 220.836C50.06 220.565 49.9611 220.342 49.7632 220.168C49.5679 219.993 49.258 219.906 48.8335 219.906H47.021V221.801ZM52.1022 222.211C52.1022 221.26 52.3574 220.517 52.8679 219.98C53.3783 219.441 54.0371 219.172 54.8444 219.172C55.3731 219.172 55.8496 219.298 56.2741 219.551C56.6986 219.803 57.0215 220.156 57.2429 220.609C57.4668 221.06 57.5788 221.572 57.5788 222.145C57.5788 222.725 57.4616 223.245 57.2272 223.703C56.9929 224.161 56.6608 224.509 56.2311 224.746C55.8014 224.98 55.3379 225.098 54.8405 225.098C54.3014 225.098 53.8197 224.967 53.3952 224.707C52.9707 224.447 52.6491 224.091 52.4304 223.641C52.2116 223.19 52.1022 222.714 52.1022 222.211ZM52.8835 222.223C52.8835 222.913 53.0684 223.457 53.4382 223.855C53.8106 224.251 54.2767 224.449 54.8366 224.449C55.4069 224.449 55.8757 224.249 56.2429 223.848C56.6126 223.447 56.7975 222.878 56.7975 222.141C56.7975 221.674 56.7181 221.268 56.5593 220.922C56.403 220.573 56.1725 220.303 55.8679 220.113C55.5658 219.921 55.2259 219.824 54.8483 219.824C54.3119 219.824 53.8496 220.009 53.4616 220.379C53.0762 220.746 52.8835 221.361 52.8835 222.223ZM58.8358 225V219.273H59.9764L61.3319 223.328C61.4569 223.706 61.5481 223.988 61.6054 224.176C61.6705 223.967 61.772 223.661 61.91 223.258L63.2811 219.273H64.3007V225H63.5702V220.207L61.9061 225H61.2225L59.5663 220.125V225H58.8358ZM65.5929 222.211C65.5929 221.26 65.8481 220.517 66.3585 219.98C66.8689 219.441 67.5277 219.172 68.335 219.172C68.8637 219.172 69.3402 219.298 69.7647 219.551C70.1892 219.803 70.5121 220.156 70.7335 220.609C70.9574 221.06 71.0694 221.572 71.0694 222.145C71.0694 222.725 70.9522 223.245 70.7179 223.703C70.4835 224.161 70.1514 224.509 69.7218 224.746C69.2921 224.98 68.8285 225.098 68.3311 225.098C67.7921 225.098 67.3103 224.967 66.8858 224.707C66.4613 224.447 66.1397 224.091 65.921 223.641C65.7022 223.19 65.5929 222.714 65.5929 222.211ZM66.3741 222.223C66.3741 222.913 66.559 223.457 66.9288 223.855C67.3012 224.251 67.7673 224.449 68.3272 224.449C68.8975 224.449 69.3663 224.249 69.7335 223.848C70.1033 223.447 70.2882 222.878 70.2882 222.141C70.2882 221.674 70.2087 221.268 70.0499 220.922C69.8936 220.573 69.6632 220.303 69.3585 220.113C69.0564 219.921 68.7166 219.824 68.3389 219.824C67.8025 219.824 67.3402 220.009 66.9522 220.379C66.5668 220.746 66.3741 221.361 66.3741 222.223ZM76.4358 222.992L77.1936 223.184C77.0348 223.806 76.7483 224.281 76.3343 224.609C75.9228 224.935 75.4189 225.098 74.8225 225.098C74.2054 225.098 73.7027 224.973 73.3147 224.723C72.9293 224.47 72.635 224.105 72.4319 223.629C72.2314 223.152 72.1311 222.641 72.1311 222.094C72.1311 221.497 72.2444 220.978 72.471 220.535C72.7001 220.09 73.0244 219.753 73.4436 219.523C73.8655 219.292 74.3291 219.176 74.8343 219.176C75.4072 219.176 75.8889 219.322 76.2796 219.613C76.6702 219.905 76.9423 220.315 77.096 220.844L76.3499 221.02C76.2171 220.603 76.0244 220.299 75.7718 220.109C75.5192 219.919 75.2014 219.824 74.8186 219.824C74.3785 219.824 74.01 219.93 73.7132 220.141C73.4189 220.352 73.2119 220.635 73.0921 220.992C72.9723 221.346 72.9124 221.712 72.9124 222.09C72.9124 222.577 72.9827 223.003 73.1233 223.367C73.2666 223.729 73.4879 224 73.7874 224.18C74.0869 224.359 74.4111 224.449 74.76 224.449C75.1845 224.449 75.5439 224.327 75.8382 224.082C76.1324 223.837 76.3317 223.474 76.4358 222.992ZM74.1546 225.602L74.3577 224.91H74.8811L74.7522 225.328C74.9736 225.354 75.1402 225.422 75.2522 225.531C75.3642 225.643 75.4202 225.767 75.4202 225.902C75.4202 226.098 75.3264 226.27 75.1389 226.418C74.9514 226.569 74.6689 226.645 74.2913 226.645C74.0777 226.645 73.8902 226.629 73.7288 226.598L73.7718 226.141C73.9384 226.151 74.0608 226.156 74.1389 226.156C74.3837 226.156 74.5556 226.122 74.6546 226.055C74.7301 226.003 74.7679 225.939 74.7679 225.863C74.7679 225.816 74.7522 225.775 74.721 225.738C74.6923 225.702 74.6376 225.671 74.5569 225.645C74.4762 225.618 74.3421 225.604 74.1546 225.602ZM77.8022 225L80.0014 219.273H80.8179L83.1616 225H82.2983L81.6304 223.266H79.2358L78.6069 225H77.8022ZM79.4546 222.648H81.396L80.7983 221.062C80.616 220.581 80.4806 220.185 80.3921 219.875C80.3192 220.242 80.2163 220.607 80.0835 220.969L79.4546 222.648ZM79.1772 218.922C79.1746 218.651 79.2488 218.435 79.3999 218.273C79.5483 218.112 79.7384 218.031 79.9702 218.031C80.1317 218.031 80.3517 218.102 80.6304 218.242C80.784 218.32 80.9064 218.359 80.9975 218.359C81.0809 218.359 81.1447 218.337 81.1889 218.293C81.2332 218.246 81.2645 218.155 81.2827 218.02H81.7905C81.7827 218.316 81.7072 218.539 81.5639 218.688C81.4233 218.836 81.2436 218.91 81.0249 218.91C80.8608 218.91 80.6447 218.837 80.3764 218.691C80.202 218.598 80.0744 218.551 79.9936 218.551C79.9051 218.551 79.8335 218.582 79.7788 218.645C79.7215 218.707 79.6942 218.799 79.6968 218.922H79.1772ZM83.8366 222.211C83.8366 221.26 84.0918 220.517 84.6022 219.98C85.1126 219.441 85.7715 219.172 86.5788 219.172C87.1074 219.172 87.584 219.298 88.0085 219.551C88.433 219.803 88.7559 220.156 88.9772 220.609C89.2012 221.06 89.3132 221.572 89.3132 222.145C89.3132 222.725 89.196 223.245 88.9616 223.703C88.7272 224.161 88.3952 224.509 87.9655 224.746C87.5358 224.98 87.0723 225.098 86.5749 225.098C86.0358 225.098 85.554 224.967 85.1296 224.707C84.7051 224.447 84.3835 224.091 84.1647 223.641C83.946 223.19 83.8366 222.714 83.8366 222.211ZM84.6179 222.223C84.6179 222.913 84.8027 223.457 85.1725 223.855C85.5449 224.251 86.0111 224.449 86.571 224.449C87.1413 224.449 87.61 224.249 87.9772 223.848C88.347 223.447 88.5319 222.878 88.5319 222.141C88.5319 221.674 88.4525 221.268 88.2936 220.922C88.1374 220.573 87.9069 220.303 87.6022 220.113C87.3001 219.921 86.9603 219.824 86.5827 219.824C86.0462 219.824 85.584 220.009 85.196 220.379C84.8106 220.746 84.6179 221.361 84.6179 222.223ZM93.0889 225V219.273H93.8468V224.324H96.6671V225H93.0889ZM98.0022 225V219.273H98.76V225H98.0022ZM100.376 225V219.273H101.517L102.873 223.328C102.998 223.706 103.089 223.988 103.146 224.176C103.211 223.967 103.313 223.661 103.451 223.258L104.822 219.273H105.841V225H105.111V220.207L103.447 225H102.763L101.107 220.125V225H100.376ZM107.493 225V219.273H108.251V225H107.493ZM111.348 225V219.949H109.461V219.273H114V219.949H112.105V225H111.348ZM113.858 225L116.058 219.273H116.874L119.218 225H118.355L117.687 223.266H115.292L114.663 225H113.858ZM115.511 222.648H117.452L116.855 221.062C116.672 220.581 116.537 220.185 116.448 219.875C116.375 220.242 116.273 220.607 116.14 220.969L115.511 222.648ZM120.123 225V219.273H122.096C122.541 219.273 122.881 219.301 123.116 219.355C123.444 219.431 123.724 219.568 123.955 219.766C124.257 220.021 124.483 220.348 124.631 220.746C124.782 221.142 124.858 221.595 124.858 222.105C124.858 222.54 124.807 222.926 124.705 223.262C124.604 223.598 124.474 223.876 124.315 224.098C124.156 224.316 123.981 224.49 123.791 224.617C123.604 224.742 123.376 224.837 123.108 224.902C122.842 224.967 122.536 225 122.19 225H120.123ZM120.881 224.324H122.104C122.481 224.324 122.777 224.289 122.991 224.219C123.207 224.148 123.379 224.049 123.506 223.922C123.686 223.742 123.825 223.501 123.924 223.199C124.026 222.895 124.076 222.526 124.076 222.094C124.076 221.495 123.977 221.035 123.78 220.715C123.584 220.392 123.346 220.176 123.065 220.066C122.862 219.988 122.535 219.949 122.084 219.949H120.881V224.324ZM125.576 225L127.775 219.273H128.591L130.935 225H130.072L129.404 223.266H127.009L126.38 225H125.576ZM127.228 222.648H129.169L128.572 221.062C128.389 220.581 128.254 220.185 128.166 219.875C128.093 220.242 127.99 220.607 127.857 220.969L127.228 222.648Z" fill="white"/>
<path d="M43.6299 293V284.161H40.3281V282.979H48.2715V284.161H44.9561V293H43.6299ZM48.9482 293V285.74H50.0557V286.841C50.3382 286.326 50.598 285.986 50.835 285.822C51.0765 285.658 51.3408 285.576 51.6279 285.576C52.0426 285.576 52.4642 285.708 52.8926 285.973L52.4688 287.114C52.168 286.937 51.8672 286.848 51.5664 286.848C51.2975 286.848 51.056 286.93 50.8418 287.094C50.6276 287.253 50.4749 287.477 50.3838 287.764C50.2471 288.201 50.1787 288.68 50.1787 289.199V293H48.9482ZM53.166 289.37C53.166 288.026 53.5397 287.03 54.2871 286.383C54.9115 285.845 55.6725 285.576 56.5703 285.576C57.5684 285.576 58.3841 285.904 59.0176 286.561C59.651 287.212 59.9678 288.115 59.9678 289.268C59.9678 290.202 59.8265 290.938 59.5439 291.476C59.266 292.009 58.8581 292.424 58.3203 292.72C57.7871 293.016 57.2038 293.164 56.5703 293.164C55.554 293.164 54.7314 292.838 54.1025 292.187C53.4782 291.535 53.166 290.596 53.166 289.37ZM54.4307 289.37C54.4307 290.3 54.6335 290.997 55.0391 291.462C55.4447 291.922 55.9551 292.152 56.5703 292.152C57.181 292.152 57.6891 291.92 58.0947 291.455C58.5003 290.99 58.7031 290.282 58.7031 289.329C58.7031 288.431 58.498 287.752 58.0879 287.292C57.6823 286.827 57.1764 286.595 56.5703 286.595C55.9551 286.595 55.4447 286.825 55.0391 287.285C54.6335 287.745 54.4307 288.44 54.4307 289.37ZM66.1543 290.341L67.3643 290.498C67.2321 291.332 66.8926 291.986 66.3457 292.46C65.8034 292.929 65.1357 293.164 64.3428 293.164C63.3493 293.164 62.5495 292.84 61.9434 292.193C61.3418 291.542 61.041 290.61 61.041 289.397C61.041 288.614 61.1709 287.928 61.4307 287.34C61.6904 286.752 62.0846 286.312 62.6133 286.021C63.1465 285.724 63.7253 285.576 64.3496 285.576C65.138 285.576 65.7829 285.777 66.2842 286.178C66.7855 286.574 67.1068 287.139 67.248 287.873L66.0518 288.058C65.9378 287.57 65.735 287.203 65.4434 286.957C65.1562 286.711 64.8076 286.588 64.3975 286.588C63.7777 286.588 63.2741 286.811 62.8867 287.258C62.4993 287.7 62.3057 288.402 62.3057 289.363C62.3057 290.339 62.4925 291.047 62.8662 291.489C63.2399 291.931 63.7275 292.152 64.3291 292.152C64.8122 292.152 65.2155 292.004 65.5391 291.708C65.8626 291.412 66.0677 290.956 66.1543 290.341ZM73.1543 292.104C72.6986 292.492 72.2588 292.765 71.835 292.925C71.4157 293.084 70.9645 293.164 70.4814 293.164C69.6839 293.164 69.071 292.97 68.6426 292.583C68.2142 292.191 68 291.692 68 291.086C68 290.73 68.0798 290.407 68.2393 290.115C68.4033 289.819 68.6152 289.582 68.875 289.404C69.1393 289.227 69.4355 289.092 69.7637 289.001C70.0052 288.937 70.3698 288.876 70.8574 288.816C71.8509 288.698 72.5824 288.557 73.0518 288.393C73.0563 288.224 73.0586 288.117 73.0586 288.071C73.0586 287.57 72.9424 287.217 72.71 287.012C72.3955 286.734 71.9284 286.595 71.3086 286.595C70.7298 286.595 70.3014 286.697 70.0234 286.902C69.75 287.103 69.5472 287.461 69.415 287.976L68.2119 287.812C68.3213 287.297 68.5013 286.882 68.752 286.567C69.0026 286.248 69.3649 286.005 69.8389 285.836C70.3128 285.663 70.862 285.576 71.4863 285.576C72.1061 285.576 72.6097 285.649 72.9971 285.795C73.3844 285.941 73.6693 286.125 73.8516 286.349C74.0339 286.567 74.1615 286.845 74.2344 287.183C74.2754 287.392 74.2959 287.771 74.2959 288.317V289.958C74.2959 291.102 74.321 291.826 74.3711 292.132C74.4258 292.433 74.5306 292.722 74.6855 293H73.4004C73.2728 292.745 73.1908 292.446 73.1543 292.104ZM73.0518 289.356C72.6051 289.539 71.9352 289.694 71.042 289.821C70.5361 289.894 70.1784 289.976 69.9688 290.067C69.7591 290.159 69.5973 290.293 69.4834 290.471C69.3695 290.644 69.3125 290.838 69.3125 291.052C69.3125 291.38 69.4355 291.653 69.6816 291.872C69.9323 292.091 70.2969 292.2 70.7754 292.2C71.2493 292.2 71.6709 292.098 72.04 291.893C72.4092 291.683 72.6803 291.398 72.8535 291.038C72.9857 290.76 73.0518 290.35 73.0518 289.808V289.356ZM84.8164 293V292.084C84.3561 292.804 83.6794 293.164 82.7861 293.164C82.2074 293.164 81.6742 293.005 81.1865 292.686C80.7035 292.367 80.3275 291.922 80.0586 291.353C79.7943 290.778 79.6621 290.12 79.6621 289.377C79.6621 288.652 79.7829 287.996 80.0244 287.408C80.266 286.816 80.6283 286.362 81.1113 286.048C81.5944 285.733 82.1344 285.576 82.7314 285.576C83.1689 285.576 83.5586 285.67 83.9004 285.856C84.2422 286.039 84.5202 286.278 84.7344 286.574V282.979H85.958V293H84.8164ZM80.9268 289.377C80.9268 290.307 81.1227 291.002 81.5146 291.462C81.9066 291.922 82.3691 292.152 82.9023 292.152C83.4401 292.152 83.8958 291.934 84.2695 291.496C84.6478 291.054 84.8369 290.382 84.8369 289.479C84.8369 288.486 84.6455 287.757 84.2627 287.292C83.8799 286.827 83.4082 286.595 82.8477 286.595C82.3008 286.595 81.8428 286.818 81.4736 287.265C81.109 287.711 80.9268 288.415 80.9268 289.377ZM92.8691 290.662L94.1406 290.819C93.9401 291.562 93.5687 292.139 93.0264 292.549C92.484 292.959 91.7913 293.164 90.9482 293.164C89.8864 293.164 89.0433 292.838 88.4189 292.187C87.7992 291.53 87.4893 290.612 87.4893 289.432C87.4893 288.21 87.8037 287.262 88.4326 286.588C89.0615 285.913 89.8773 285.576 90.8799 285.576C91.8506 285.576 92.6436 285.907 93.2588 286.567C93.874 287.228 94.1816 288.158 94.1816 289.356C94.1816 289.429 94.1794 289.539 94.1748 289.685H88.7607C88.8063 290.482 89.0319 291.093 89.4375 291.517C89.8431 291.94 90.349 292.152 90.9551 292.152C91.4062 292.152 91.7913 292.034 92.1104 291.797C92.4294 291.56 92.6823 291.182 92.8691 290.662ZM88.8291 288.673H92.8828C92.8281 288.062 92.6732 287.604 92.418 287.299C92.026 286.825 91.5179 286.588 90.8936 286.588C90.3285 286.588 89.8522 286.777 89.4648 287.155C89.082 287.534 88.8701 288.039 88.8291 288.673ZM99.1309 289.37C99.1309 288.026 99.5046 287.03 100.252 286.383C100.876 285.845 101.637 285.576 102.535 285.576C103.533 285.576 104.349 285.904 104.982 286.561C105.616 287.212 105.933 288.115 105.933 289.268C105.933 290.202 105.791 290.938 105.509 291.476C105.231 292.009 104.823 292.424 104.285 292.72C103.752 293.016 103.169 293.164 102.535 293.164C101.519 293.164 100.696 292.838 100.067 292.187C99.443 291.535 99.1309 290.596 99.1309 289.37ZM100.396 289.37C100.396 290.3 100.598 290.997 101.004 291.462C101.41 291.922 101.92 292.152 102.535 292.152C103.146 292.152 103.654 291.92 104.06 291.455C104.465 290.99 104.668 290.282 104.668 289.329C104.668 288.431 104.463 287.752 104.053 287.292C103.647 286.827 103.141 286.595 102.535 286.595C101.92 286.595 101.41 286.825 101.004 287.285C100.598 287.745 100.396 288.44 100.396 289.37ZM101.852 284.838L102.761 282.924H104.374L102.87 284.838H101.852ZM107.354 293V282.979H108.585V293H107.354ZM115.469 290.662L116.74 290.819C116.54 291.562 116.168 292.139 115.626 292.549C115.084 292.959 114.391 293.164 113.548 293.164C112.486 293.164 111.643 292.838 111.019 292.187C110.399 291.53 110.089 290.612 110.089 289.432C110.089 288.21 110.403 287.262 111.032 286.588C111.661 285.913 112.477 285.576 113.479 285.576C114.45 285.576 115.243 285.907 115.858 286.567C116.474 287.228 116.781 288.158 116.781 289.356C116.781 289.429 116.779 289.539 116.774 289.685H111.36C111.406 290.482 111.632 291.093 112.037 291.517C112.443 291.94 112.949 292.152 113.555 292.152C114.006 292.152 114.391 292.034 114.71 291.797C115.029 291.56 115.282 291.182 115.469 290.662ZM111.429 288.673H115.482C115.428 288.062 115.273 287.604 115.018 287.299C114.626 286.825 114.118 286.588 113.493 286.588C112.928 286.588 112.452 286.777 112.064 287.155C111.682 287.534 111.47 288.039 111.429 288.673ZM117.834 289.37C117.834 288.026 118.208 287.03 118.955 286.383C119.579 285.845 120.34 285.576 121.238 285.576C122.236 285.576 123.052 285.904 123.686 286.561C124.319 287.212 124.636 288.115 124.636 289.268C124.636 290.202 124.494 290.938 124.212 291.476C123.934 292.009 123.526 292.424 122.988 292.72C122.455 293.016 121.872 293.164 121.238 293.164C120.222 293.164 119.399 292.838 118.771 292.187C118.146 291.535 117.834 290.596 117.834 289.37ZM119.099 289.37C119.099 290.3 119.301 290.997 119.707 291.462C120.113 291.922 120.623 292.152 121.238 292.152C121.849 292.152 122.357 291.92 122.763 291.455C123.168 290.99 123.371 290.282 123.371 289.329C123.371 288.431 123.166 287.752 122.756 287.292C122.35 286.827 121.844 286.595 121.238 286.595C120.623 286.595 120.113 286.825 119.707 287.285C119.301 287.745 119.099 288.44 119.099 289.37Z" fill="#D1D5DB"/>
<path d="M82.8213 315V304.979H84.8174L87.1895 312.074C87.4082 312.735 87.5677 313.229 87.668 313.558C87.7819 313.193 87.9596 312.658 88.2012 311.951L90.6006 304.979H92.3848V315H91.1064V306.612L88.1943 315H86.998L84.0996 306.469V315H82.8213ZM94.5518 315V304.979H101.798V306.161H95.8779V309.23H101.422V310.406H95.8779V313.817H102.03V315H94.5518ZM103.849 315V304.979H105.209L110.473 312.847V304.979H111.744V315H110.384L105.12 307.125V315H103.849ZM113.528 311.78L114.779 311.671C114.839 312.172 114.975 312.585 115.189 312.908C115.408 313.227 115.745 313.487 116.201 313.688C116.657 313.883 117.17 313.981 117.739 313.981C118.245 313.981 118.692 313.906 119.079 313.756C119.466 313.605 119.754 313.4 119.94 313.141C120.132 312.876 120.228 312.589 120.228 312.279C120.228 311.965 120.136 311.691 119.954 311.459C119.772 311.222 119.471 311.024 119.052 310.864C118.783 310.759 118.188 310.598 117.268 310.379C116.347 310.156 115.702 309.946 115.333 309.75C114.854 309.499 114.497 309.189 114.26 308.82C114.027 308.447 113.911 308.03 113.911 307.569C113.911 307.063 114.055 306.592 114.342 306.154C114.629 305.712 115.048 305.377 115.6 305.149C116.151 304.922 116.764 304.808 117.438 304.808C118.181 304.808 118.835 304.928 119.4 305.17C119.97 305.407 120.408 305.758 120.713 306.223C121.018 306.688 121.182 307.214 121.205 307.802L119.934 307.897C119.865 307.264 119.633 306.785 119.236 306.462C118.844 306.138 118.263 305.977 117.493 305.977C116.691 305.977 116.105 306.125 115.736 306.421C115.372 306.713 115.189 307.066 115.189 307.48C115.189 307.84 115.319 308.137 115.579 308.369C115.834 308.602 116.5 308.841 117.575 309.087C118.655 309.328 119.396 309.54 119.797 309.723C120.38 309.992 120.811 310.333 121.089 310.748C121.367 311.158 121.506 311.632 121.506 312.17C121.506 312.703 121.353 313.207 121.048 313.681C120.743 314.15 120.303 314.517 119.729 314.781C119.159 315.041 118.516 315.171 117.801 315.171C116.894 315.171 116.133 315.039 115.518 314.774C114.907 314.51 114.426 314.114 114.075 313.585C113.729 313.052 113.547 312.45 113.528 311.78ZM122.217 315L126.065 304.979H127.494L131.596 315H130.085L128.916 311.965H124.726L123.625 315H122.217ZM125.108 310.885H128.506L127.46 308.109C127.141 307.266 126.904 306.574 126.749 306.031C126.621 306.674 126.441 307.312 126.209 307.945L125.108 310.885ZM132.601 315V304.979H133.927V313.817H138.862V315H132.601Z" fill="#E5E7EB"/>
<path d="M27.4817 346.514C27.4817 345.326 27.8007 344.396 28.4388 343.726C29.0768 343.052 29.9003 342.715 30.9095 342.715C31.5703 342.715 32.166 342.873 32.6966 343.188C33.2272 343.504 33.6308 343.945 33.9075 344.512C34.1874 345.075 34.3274 345.715 34.3274 346.431C34.3274 347.157 34.1809 347.806 33.888 348.379C33.595 348.952 33.18 349.386 32.6429 349.683C32.1057 349.976 31.5263 350.122 30.9046 350.122C30.2307 350.122 29.6285 349.959 29.0979 349.634C28.5673 349.308 28.1653 348.864 27.8919 348.301C27.6184 347.738 27.4817 347.142 27.4817 346.514ZM28.4583 346.528C28.4583 347.391 28.6894 348.071 29.1516 348.569C29.6171 349.064 30.1998 349.312 30.8997 349.312C31.6126 349.312 32.1985 349.061 32.6575 348.56C33.1197 348.058 33.3509 347.347 33.3509 346.426C33.3509 345.843 33.2516 345.335 33.053 344.902C32.8577 344.466 32.5696 344.129 32.1888 343.892C31.8111 343.651 31.3863 343.53 30.9143 343.53C30.2438 343.53 29.666 343.761 29.1809 344.224C28.6992 344.683 28.4583 345.451 28.4583 346.528ZM35.6507 350V345.498H34.8743V344.814H35.6507V344.263C35.6507 343.914 35.6816 343.656 35.7434 343.486C35.8281 343.258 35.9762 343.075 36.1878 342.935C36.4026 342.791 36.7021 342.72 37.0862 342.72C37.3336 342.72 37.607 342.749 37.9065 342.808L37.7747 343.574C37.5924 343.542 37.4199 343.525 37.2571 343.525C36.9902 343.525 36.8014 343.582 36.6907 343.696C36.58 343.81 36.5247 344.023 36.5247 344.336V344.814H37.5354V345.498H36.5247V350H35.6507ZM41.7737 348.33L42.6819 348.442C42.5387 348.973 42.2734 349.385 41.886 349.678C41.4986 349.971 41.0039 350.117 40.4016 350.117C39.6432 350.117 39.041 349.884 38.595 349.419C38.1523 348.95 37.9309 348.294 37.9309 347.451C37.9309 346.579 38.1555 345.902 38.6048 345.42C39.054 344.938 39.6367 344.697 40.3528 344.697C41.0462 344.697 41.6126 344.933 42.052 345.405C42.4915 345.877 42.7112 346.541 42.7112 347.397C42.7112 347.45 42.7096 347.528 42.7063 347.632H38.8391C38.8717 348.201 39.0328 348.638 39.3225 348.94C39.6123 349.243 39.9736 349.395 40.4065 349.395C40.7288 349.395 41.0039 349.31 41.2317 349.141C41.4596 348.971 41.6402 348.701 41.7737 348.33ZM38.888 346.909H41.7835C41.7444 346.473 41.6337 346.146 41.4514 345.928C41.1715 345.589 40.8085 345.42 40.3626 345.42C39.9589 345.42 39.6188 345.555 39.3421 345.825C39.0686 346.095 38.9173 346.457 38.888 346.909ZM43.7805 350V344.814H44.5716V345.601C44.7734 345.233 44.9589 344.99 45.1282 344.873C45.3007 344.756 45.4895 344.697 45.6946 344.697C45.9908 344.697 46.2919 344.792 46.5979 344.98L46.2952 345.796C46.0804 345.669 45.8655 345.605 45.6507 345.605C45.4586 345.605 45.2861 345.664 45.1331 345.781C44.9801 345.895 44.871 346.055 44.8059 346.26C44.7083 346.572 44.6595 346.914 44.6595 347.285V350H43.7805ZM49.0393 349.214L49.1663 349.99C48.9189 350.042 48.6975 350.068 48.5022 350.068C48.1832 350.068 47.9358 350.018 47.76 349.917C47.5843 349.816 47.4606 349.684 47.3889 349.521C47.3173 349.355 47.2815 349.009 47.2815 348.481V345.498H46.637V344.814H47.2815V343.53L48.1555 343.003V344.814H49.0393V345.498H48.1555V348.53C48.1555 348.781 48.1702 348.942 48.1995 349.014C48.232 349.085 48.2825 349.142 48.3509 349.185C48.4225 349.227 48.5234 349.248 48.6536 349.248C48.7513 349.248 48.8798 349.237 49.0393 349.214ZM53.2874 349.36C52.9619 349.637 52.6477 349.832 52.345 349.946C52.0455 350.06 51.7233 350.117 51.3782 350.117C50.8085 350.117 50.3707 349.979 50.0647 349.702C49.7587 349.422 49.6057 349.066 49.6057 348.633C49.6057 348.379 49.6627 348.148 49.7766 347.939C49.8938 347.728 50.0452 347.559 50.2307 347.432C50.4195 347.305 50.6311 347.209 50.8655 347.144C51.038 347.098 51.2985 347.054 51.6468 347.012C52.3564 346.927 52.8789 346.826 53.2141 346.709C53.2174 346.589 53.219 346.512 53.219 346.479C53.219 346.121 53.136 345.869 52.97 345.723C52.7454 345.524 52.4117 345.425 51.969 345.425C51.5556 345.425 51.2496 345.498 51.0511 345.645C50.8557 345.788 50.7109 346.043 50.6165 346.411L49.7571 346.294C49.8352 345.926 49.9638 345.63 50.1429 345.405C50.3219 345.177 50.5807 345.003 50.9192 344.883C51.2578 344.759 51.65 344.697 52.096 344.697C52.5387 344.697 52.8984 344.749 53.1751 344.854C53.4518 344.958 53.6552 345.09 53.7854 345.249C53.9156 345.405 54.0068 345.604 54.0589 345.845C54.0882 345.994 54.1028 346.265 54.1028 346.655V347.827C54.1028 348.644 54.1207 349.162 54.1565 349.38C54.1956 349.595 54.2705 349.801 54.3811 350H53.4632C53.372 349.818 53.3134 349.604 53.2874 349.36ZM53.2141 347.397C52.8951 347.528 52.4166 347.638 51.7786 347.729C51.4173 347.782 51.1617 347.84 51.012 347.905C50.8623 347.97 50.7467 348.066 50.6653 348.193C50.5839 348.317 50.5432 348.455 50.5432 348.608C50.5432 348.843 50.6311 349.038 50.8069 349.194C50.986 349.351 51.2464 349.429 51.5882 349.429C51.9267 349.429 52.2278 349.355 52.4915 349.209C52.7552 349.059 52.9488 348.856 53.0725 348.599C53.1669 348.4 53.2141 348.107 53.2141 347.72V347.397ZM58.2532 351.987V344.814H59.054V345.488C59.2428 345.225 59.456 345.028 59.6936 344.897C59.9313 344.764 60.2194 344.697 60.5579 344.697C61.0006 344.697 61.3912 344.811 61.7298 345.039C62.0683 345.267 62.3238 345.589 62.4964 346.006C62.6689 346.419 62.7552 346.873 62.7552 347.368C62.7552 347.899 62.6591 348.377 62.4671 348.804C62.2783 349.227 62.0016 349.552 61.637 349.78C61.2757 350.005 60.8948 350.117 60.4944 350.117C60.2014 350.117 59.9378 350.055 59.7034 349.932C59.4723 349.808 59.2819 349.652 59.1321 349.463V351.987H58.2532ZM59.0491 347.437C59.0491 348.104 59.1842 348.597 59.4544 348.916C59.7246 349.235 60.0517 349.395 60.4358 349.395C60.8264 349.395 61.1601 349.23 61.4368 348.901C61.7167 348.569 61.8567 348.057 61.8567 347.363C61.8567 346.702 61.72 346.208 61.4466 345.879C61.1764 345.55 60.8525 345.386 60.4749 345.386C60.1005 345.386 59.7685 345.562 59.4788 345.913C59.1923 346.261 59.0491 346.769 59.0491 347.437ZM63.4925 347.407C63.4925 346.447 63.7594 345.736 64.2932 345.273C64.7392 344.889 65.2828 344.697 65.9241 344.697C66.637 344.697 67.2197 344.932 67.6721 345.4C68.1246 345.866 68.3509 346.51 68.3509 347.334C68.3509 348.001 68.2499 348.527 68.0481 348.911C67.8496 349.292 67.5582 349.588 67.1741 349.8C66.7932 350.011 66.3766 350.117 65.9241 350.117C65.1982 350.117 64.6106 349.884 64.1614 349.419C63.7154 348.953 63.4925 348.283 63.4925 347.407ZM64.3958 347.407C64.3958 348.071 64.5406 348.569 64.8304 348.901C65.1201 349.23 65.4846 349.395 65.9241 349.395C66.3603 349.395 66.7233 349.229 67.013 348.896C67.3027 348.564 67.4475 348.058 67.4475 347.378C67.4475 346.737 67.3011 346.252 67.0081 345.923C66.7184 345.591 66.357 345.425 65.9241 345.425C65.4846 345.425 65.1201 345.589 64.8304 345.918C64.5406 346.247 64.3958 346.743 64.3958 347.407ZM69.3763 350V344.814H70.1673V345.601C70.3691 345.233 70.5546 344.99 70.7239 344.873C70.8964 344.756 71.0852 344.697 71.2903 344.697C71.5865 344.697 71.8876 344.792 72.1936 344.98L71.8909 345.796C71.6761 345.669 71.4612 345.605 71.2464 345.605C71.0543 345.605 70.8818 345.664 70.7288 345.781C70.5758 345.895 70.4667 346.055 70.4016 346.26C70.304 346.572 70.2552 346.914 70.2552 347.285V350H69.3763ZM77.4182 349.214L77.5452 349.99C77.2978 350.042 77.0764 350.068 76.8811 350.068C76.5621 350.068 76.3147 350.018 76.1389 349.917C75.9632 349.816 75.8395 349.684 75.7679 349.521C75.6962 349.355 75.6604 349.009 75.6604 348.481V345.498H75.0159V344.814H75.6604V343.53L76.5345 343.003V344.814H77.4182V345.498H76.5345V348.53C76.5345 348.781 76.5491 348.942 76.5784 349.014C76.611 349.085 76.6614 349.142 76.7298 349.185C76.8014 349.227 76.9023 349.248 77.0325 349.248C77.1302 349.248 77.2587 349.237 77.4182 349.214ZM81.8323 348.33L82.7405 348.442C82.5973 348.973 82.332 349.385 81.9446 349.678C81.5572 349.971 81.0624 350.117 80.4602 350.117C79.7018 350.117 79.0996 349.884 78.6536 349.419C78.2109 348.95 77.9895 348.294 77.9895 347.451C77.9895 346.579 78.2141 345.902 78.6634 345.42C79.1126 344.938 79.6953 344.697 80.4114 344.697C81.1048 344.697 81.6712 344.933 82.1106 345.405C82.5501 345.877 82.7698 346.541 82.7698 347.397C82.7698 347.45 82.7682 347.528 82.7649 347.632H78.8977C78.9303 348.201 79.0914 348.638 79.3811 348.94C79.6708 349.243 80.0322 349.395 80.4651 349.395C80.7874 349.395 81.0624 349.31 81.2903 349.141C81.5182 348.971 81.6988 348.701 81.8323 348.33ZM78.9466 346.909H81.8421C81.803 346.473 81.6923 346.146 81.51 345.928C81.2301 345.589 80.8671 345.42 80.4212 345.42C80.0175 345.42 79.6774 345.555 79.4007 345.825C79.1272 346.095 78.9759 346.457 78.9466 346.909ZM83.8489 350V344.814H84.635V345.542C84.7978 345.288 85.0143 345.085 85.2845 344.932C85.5546 344.775 85.8623 344.697 86.2073 344.697C86.5914 344.697 86.9055 344.777 87.1497 344.937C87.3971 345.096 87.5712 345.319 87.6721 345.605C88.0823 345 88.6162 344.697 89.2737 344.697C89.788 344.697 90.1835 344.84 90.4602 345.127C90.7369 345.41 90.8753 345.848 90.8753 346.44V350H90.0013V346.733C90.0013 346.382 89.972 346.13 89.9134 345.977C89.858 345.82 89.7555 345.695 89.6057 345.601C89.456 345.506 89.2802 345.459 89.0784 345.459C88.7138 345.459 88.4111 345.581 88.1702 345.825C87.9293 346.066 87.8089 346.453 87.8089 346.987V350H86.93V346.631C86.93 346.24 86.8583 345.947 86.7151 345.752C86.5719 345.557 86.3375 345.459 86.012 345.459C85.7646 345.459 85.5351 345.524 85.3235 345.654C85.1152 345.785 84.9638 345.975 84.8694 346.226C84.775 346.476 84.7278 346.838 84.7278 347.31V350H83.8489ZM92.179 351.987V344.814H92.9798V345.488C93.1686 345.225 93.3818 345.028 93.6194 344.897C93.857 344.764 94.1451 344.697 94.4837 344.697C94.9264 344.697 95.317 344.811 95.6555 345.039C95.9941 345.267 96.2496 345.589 96.4221 346.006C96.5947 346.419 96.6809 346.873 96.6809 347.368C96.6809 347.899 96.5849 348.377 96.3929 348.804C96.2041 349.227 95.9274 349.552 95.5628 349.78C95.2014 350.005 94.8206 350.117 94.4202 350.117C94.1272 350.117 93.8636 350.055 93.6292 349.932C93.3981 349.808 93.2076 349.652 93.0579 349.463V351.987H92.179ZM92.9749 347.437C92.9749 348.104 93.11 348.597 93.3802 348.916C93.6503 349.235 93.9775 349.395 94.3616 349.395C94.7522 349.395 95.0859 349.23 95.3626 348.901C95.6425 348.569 95.7825 348.057 95.7825 347.363C95.7825 346.702 95.6458 346.208 95.3723 345.879C95.1022 345.55 94.7783 345.386 94.4007 345.386C94.0263 345.386 93.6943 345.562 93.4046 345.913C93.1181 346.261 92.9749 346.769 92.9749 347.437ZM97.4182 347.407C97.4182 346.447 97.6852 345.736 98.219 345.273C98.665 344.889 99.2086 344.697 99.8499 344.697C100.563 344.697 101.145 344.932 101.598 345.4C102.05 345.866 102.277 346.51 102.277 347.334C102.277 348.001 102.176 348.527 101.974 348.911C101.775 349.292 101.484 349.588 101.1 349.8C100.719 350.011 100.302 350.117 99.8499 350.117C99.124 350.117 98.5364 349.884 98.0872 349.419C97.6412 348.953 97.4182 348.283 97.4182 347.407ZM98.3216 347.407C98.3216 348.071 98.4664 348.569 98.7561 348.901C99.0458 349.23 99.4104 349.395 99.8499 349.395C100.286 349.395 100.649 349.229 100.939 348.896C101.228 348.564 101.373 348.058 101.373 347.378C101.373 346.737 101.227 346.252 100.934 345.923C100.644 345.591 100.283 345.425 99.8499 345.425C99.4104 345.425 99.0458 345.589 98.7561 345.918C98.4664 346.247 98.3216 346.743 98.3216 347.407ZM106.075 350V342.842H106.954V350H106.075ZM108.326 343.853V342.842H109.205V343.853H108.326ZM108.326 350V344.814H109.205V350H108.326ZM110.548 350V344.814H111.334V345.542C111.497 345.288 111.713 345.085 111.984 344.932C112.254 344.775 112.561 344.697 112.907 344.697C113.291 344.697 113.605 344.777 113.849 344.937C114.096 345.096 114.27 345.319 114.371 345.605C114.782 345 115.315 344.697 115.973 344.697C116.487 344.697 116.883 344.84 117.159 345.127C117.436 345.41 117.574 345.848 117.574 346.44V350H116.7V346.733C116.7 346.382 116.671 346.13 116.613 345.977C116.557 345.82 116.455 345.695 116.305 345.601C116.155 345.506 115.979 345.459 115.778 345.459C115.413 345.459 115.11 345.581 114.869 345.825C114.629 346.066 114.508 346.453 114.508 346.987V350H113.629V346.631C113.629 346.24 113.558 345.947 113.414 345.752C113.271 345.557 113.037 345.459 112.711 345.459C112.464 345.459 112.234 345.524 112.023 345.654C111.814 345.785 111.663 345.975 111.569 346.226C111.474 346.476 111.427 346.838 111.427 347.31V350H110.548ZM118.883 343.853V342.842H119.762V343.853H118.883ZM118.883 350V344.814H119.762V350H118.883ZM123.024 349.214L123.151 349.99C122.903 350.042 122.682 350.068 122.487 350.068C122.168 350.068 121.92 350.018 121.744 349.917C121.569 349.816 121.445 349.684 121.373 349.521C121.302 349.355 121.266 349.009 121.266 348.481V345.498H120.621V344.814H121.266V343.53L122.14 343.003V344.814H123.024V345.498H122.14V348.53C122.14 348.781 122.155 348.942 122.184 349.014C122.216 349.085 122.267 349.142 122.335 349.185C122.407 349.227 122.508 349.248 122.638 349.248C122.736 349.248 122.864 349.237 123.024 349.214ZM127.272 349.36C126.946 349.637 126.632 349.832 126.329 349.946C126.03 350.06 125.708 350.117 125.363 350.117C124.793 350.117 124.355 349.979 124.049 349.702C123.743 349.422 123.59 349.066 123.59 348.633C123.59 348.379 123.647 348.148 123.761 347.939C123.878 347.728 124.03 347.559 124.215 347.432C124.404 347.305 124.616 347.209 124.85 347.144C125.022 347.098 125.283 347.054 125.631 347.012C126.341 346.927 126.863 346.826 127.199 346.709C127.202 346.589 127.203 346.512 127.203 346.479C127.203 346.121 127.12 345.869 126.954 345.723C126.73 345.524 126.396 345.425 125.953 345.425C125.54 345.425 125.234 345.498 125.035 345.645C124.84 345.788 124.695 346.043 124.601 346.411L123.741 346.294C123.82 345.926 123.948 345.63 124.127 345.405C124.306 345.177 124.565 345.003 124.904 344.883C125.242 344.759 125.634 344.697 126.08 344.697C126.523 344.697 126.883 344.749 127.159 344.854C127.436 344.958 127.64 345.09 127.77 345.249C127.9 345.405 127.991 345.604 128.043 345.845C128.073 345.994 128.087 346.265 128.087 346.655V347.827C128.087 348.644 128.105 349.162 128.141 349.38C128.18 349.595 128.255 349.801 128.366 350H127.448C127.356 349.818 127.298 349.604 127.272 349.36ZM127.199 347.397C126.88 347.528 126.401 347.638 125.763 347.729C125.402 347.782 125.146 347.84 124.996 347.905C124.847 347.97 124.731 348.066 124.65 348.193C124.568 348.317 124.528 348.455 124.528 348.608C124.528 348.843 124.616 349.038 124.791 349.194C124.97 349.351 125.231 349.429 125.573 349.429C125.911 349.429 126.212 349.355 126.476 349.209C126.74 349.059 126.933 348.856 127.057 348.599C127.151 348.4 127.199 348.107 127.199 347.72V347.397ZM132.819 350V349.346C132.49 349.86 132.006 350.117 131.368 350.117C130.955 350.117 130.574 350.003 130.226 349.775C129.881 349.548 129.612 349.23 129.42 348.823C129.231 348.413 129.137 347.943 129.137 347.412C129.137 346.895 129.223 346.426 129.396 346.006C129.568 345.583 129.827 345.259 130.172 345.034C130.517 344.81 130.903 344.697 131.329 344.697C131.642 344.697 131.92 344.764 132.164 344.897C132.408 345.028 132.607 345.199 132.76 345.41V342.842H133.634V350H132.819ZM130.04 347.412C130.04 348.076 130.18 348.573 130.46 348.901C130.74 349.23 131.071 349.395 131.451 349.395C131.836 349.395 132.161 349.238 132.428 348.926C132.698 348.61 132.833 348.13 132.833 347.485C132.833 346.776 132.697 346.255 132.423 345.923C132.15 345.591 131.813 345.425 131.412 345.425C131.022 345.425 130.695 345.584 130.431 345.903C130.171 346.222 130.04 346.725 130.04 347.412ZM134.694 347.407C134.694 346.447 134.961 345.736 135.494 345.273C135.94 344.889 136.484 344.697 137.125 344.697C137.838 344.697 138.421 344.932 138.873 345.4C139.326 345.866 139.552 346.51 139.552 347.334C139.552 348.001 139.451 348.527 139.249 348.911C139.051 349.292 138.759 349.588 138.375 349.8C137.994 350.011 137.578 350.117 137.125 350.117C136.399 350.117 135.812 349.884 135.363 349.419C134.917 348.953 134.694 348.283 134.694 347.407ZM135.597 347.407C135.597 348.071 135.742 348.569 136.032 348.901C136.321 349.23 136.686 349.395 137.125 349.395C137.561 349.395 137.924 349.229 138.214 348.896C138.504 348.564 138.649 348.058 138.649 347.378C138.649 346.737 138.502 346.252 138.209 345.923C137.92 345.591 137.558 345.425 137.125 345.425C136.686 345.425 136.321 345.589 136.032 345.918C135.742 346.247 135.597 346.743 135.597 347.407Z" fill="#4ADE80"/>
<path d="M34.9427 315L31.0598 304.979H32.4954L35.0999 312.259C35.3095 312.842 35.485 313.389 35.6263 313.899C35.7812 313.353 35.9612 312.806 36.1663 312.259L38.8733 304.979H40.2268L36.303 315H34.9427ZM39.2766 315L43.1253 304.979H44.554L48.6555 315H47.1448L45.9759 311.965H41.7854L40.6848 315H39.2766ZM42.1682 310.885H45.5657L44.5198 308.109C44.2008 307.266 43.9638 306.574 43.8089 306.031C43.6813 306.674 43.5013 307.312 43.2688 307.945L42.1682 310.885ZM49.6604 315V304.979H50.9866V313.817H55.9221V315H49.6604ZM57.1048 310.119C57.1048 308.456 57.5514 307.155 58.4446 306.216C59.3378 305.272 60.4908 304.801 61.9036 304.801C62.8287 304.801 63.6627 305.022 64.4055 305.464C65.1484 305.906 65.7135 306.523 66.1009 307.316C66.4928 308.105 66.6888 309 66.6888 310.003C66.6888 311.019 66.4837 311.928 66.0735 312.73C65.6634 313.533 65.0823 314.141 64.3304 314.556C63.5784 314.966 62.7672 315.171 61.8968 315.171C60.9534 315.171 60.1103 314.943 59.3675 314.487C58.6246 314.032 58.0618 313.41 57.679 312.621C57.2962 311.833 57.1048 310.999 57.1048 310.119ZM58.472 310.14C58.472 311.347 58.7955 312.3 59.4427 312.997C60.0944 313.69 60.9101 314.036 61.8899 314.036C62.888 314.036 63.7083 313.685 64.3509 312.983C64.998 312.282 65.3216 311.286 65.3216 309.996C65.3216 309.18 65.1826 308.469 64.9046 307.863C64.6311 307.253 64.2278 306.781 63.6946 306.448C63.166 306.111 62.5712 305.942 61.9104 305.942C60.9716 305.942 60.1627 306.266 59.4837 306.913C58.8092 307.556 58.472 308.631 58.472 310.14ZM68.4251 315V304.979H72.8684C73.7617 304.979 74.4407 305.07 74.9055 305.252C75.3704 305.43 75.7418 305.746 76.0198 306.202C76.2978 306.658 76.4368 307.161 76.4368 307.713C76.4368 308.424 76.2067 309.023 75.7464 309.511C75.2861 309.998 74.5751 310.308 73.6136 310.44C73.9645 310.609 74.2311 310.775 74.4134 310.939C74.8007 311.295 75.1676 311.739 75.5139 312.272L77.2571 315H75.5891L74.263 312.915C73.8756 312.313 73.5566 311.853 73.3059 311.534C73.0553 311.215 72.8297 310.992 72.6292 310.864C72.4332 310.737 72.2327 310.648 72.0276 310.598C71.8772 310.566 71.6311 310.55 71.2893 310.55H69.7513V315H68.4251ZM69.7513 309.401H72.6018C73.208 309.401 73.6819 309.34 74.0237 309.217C74.3655 309.089 74.6253 308.889 74.803 308.615C74.9807 308.337 75.0696 308.036 75.0696 307.713C75.0696 307.239 74.8964 306.849 74.5501 306.544C74.2083 306.239 73.666 306.086 72.9231 306.086H69.7513V309.401Z" fill="url(#paint3_linear_24_8)"/>
<path d="M52.6566 264V253.263H57.4173C58.3744 253.263 59.1019 253.36 59.6 253.556C60.098 253.746 60.496 254.085 60.7938 254.574C61.0917 255.062 61.2406 255.602 61.2406 256.192C61.2406 256.954 60.994 257.596 60.5008 258.119C60.0077 258.641 59.246 258.973 58.2157 259.115C58.5917 259.295 58.8773 259.474 59.0726 259.649C59.4877 260.03 59.8807 260.506 60.2518 261.078L62.1195 264H60.3324L58.9115 261.766C58.4964 261.122 58.1546 260.628 57.8861 260.287C57.6175 259.945 57.3758 259.706 57.161 259.569C56.951 259.432 56.7362 259.337 56.5165 259.283C56.3553 259.249 56.0917 259.232 55.7254 259.232H54.0775V264H52.6566ZM54.0775 258.001H57.1317C57.7811 258.001 58.2889 257.936 58.6551 257.804C59.0213 257.667 59.2997 257.452 59.4901 257.159C59.6805 256.861 59.7757 256.539 59.7757 256.192C59.7757 255.685 59.5902 255.267 59.2191 254.94C58.8529 254.613 58.2718 254.449 57.4759 254.449H54.0775V258.001ZM66.0526 265.545V264.227C65.3934 264.144 64.8563 263.998 64.4413 263.788C64.0311 263.573 63.6747 263.229 63.3719 262.755C63.0741 262.281 62.9007 261.703 62.8519 261.019L64.1776 260.77C64.2801 261.478 64.4608 261.998 64.7196 262.33C65.0907 262.799 65.535 263.06 66.0526 263.114V258.917C65.5106 258.814 64.9564 258.604 64.39 258.287C63.9701 258.053 63.6454 257.728 63.4159 257.313C63.1913 256.898 63.079 256.427 63.079 255.899C63.079 254.962 63.411 254.203 64.0751 253.622C64.5194 253.231 65.1786 252.992 66.0526 252.904V252.274H66.829V252.904C67.5956 252.977 68.2035 253.202 68.6527 253.578C69.2289 254.056 69.5755 254.713 69.6927 255.548L68.3304 255.753C68.2523 255.235 68.0887 254.84 67.8397 254.566C67.5956 254.288 67.2587 254.105 66.829 254.017V257.818C67.493 257.984 67.9325 258.114 68.1473 258.207C68.5575 258.387 68.892 258.607 69.1507 258.866C69.4095 259.125 69.6073 259.432 69.744 259.789C69.8856 260.145 69.9564 260.531 69.9564 260.946C69.9564 261.859 69.6659 262.621 69.0848 263.231C68.5038 263.841 67.7518 264.168 66.829 264.212V265.545H66.0526ZM66.0526 254.002C65.5399 254.081 65.1346 254.286 64.8368 254.618C64.5438 254.95 64.3973 255.343 64.3973 255.797C64.3973 256.246 64.5218 256.622 64.7709 256.925C65.0248 257.228 65.452 257.469 66.0526 257.65V254.002ZM66.829 263.114C67.3417 263.05 67.764 262.828 68.0961 262.447C68.433 262.066 68.6014 261.595 68.6014 261.034C68.6014 260.555 68.4818 260.172 68.2425 259.884C68.0082 259.591 67.537 259.33 66.829 259.1V263.114ZM76.2552 264H74.9369V255.599C74.6195 255.902 74.202 256.205 73.6844 256.507C73.1717 256.81 72.7103 257.037 72.3002 257.188V255.914C73.0375 255.567 73.682 255.147 74.2337 254.654C74.7855 254.161 75.1761 253.683 75.4056 253.219H76.2552V264ZM79.639 258.705C79.639 257.435 79.7684 256.415 80.0272 255.643C80.2909 254.867 80.6791 254.269 81.1918 253.849C81.7093 253.429 82.3587 253.219 83.14 253.219C83.7162 253.219 84.2215 253.336 84.6561 253.57C85.0907 253.8 85.4496 254.134 85.7328 254.574C86.016 255.008 86.2381 255.541 86.3993 256.17C86.5604 256.795 86.641 257.64 86.641 258.705C86.641 259.964 86.5116 260.982 86.2528 261.759C85.994 262.53 85.6058 263.128 85.0882 263.553C84.5755 263.973 83.9261 264.183 83.14 264.183C82.1048 264.183 81.2919 263.812 80.701 263.07C79.993 262.176 79.639 260.721 79.639 258.705ZM80.994 258.705C80.994 260.467 81.1991 261.642 81.6092 262.228C82.0243 262.809 82.5345 263.099 83.14 263.099C83.7455 263.099 84.2533 262.806 84.6634 262.22C85.0785 261.634 85.286 260.462 85.286 258.705C85.286 256.937 85.0785 255.763 84.6634 255.182C84.2533 254.601 83.7406 254.31 83.1254 254.31C82.5199 254.31 82.0365 254.566 81.6752 255.079C81.2211 255.733 80.994 256.942 80.994 258.705ZM87.9886 258.705C87.9886 257.435 88.118 256.415 88.3768 255.643C88.6405 254.867 89.0287 254.269 89.5414 253.849C90.0589 253.429 90.7084 253.219 91.4896 253.219C92.0658 253.219 92.5712 253.336 93.0057 253.57C93.4403 253.8 93.7992 254.134 94.0824 254.574C94.3656 255.008 94.5878 255.541 94.7489 256.17C94.91 256.795 94.9906 257.64 94.9906 258.705C94.9906 259.964 94.8612 260.982 94.6024 261.759C94.3436 262.53 93.9554 263.128 93.4379 263.553C92.9252 263.973 92.2757 264.183 91.4896 264.183C90.4545 264.183 89.6415 263.812 89.0506 263.07C88.3426 262.176 87.9886 260.721 87.9886 258.705ZM89.3436 258.705C89.3436 260.467 89.5487 261.642 89.9588 262.228C90.3739 262.809 90.8841 263.099 91.4896 263.099C92.0951 263.099 92.6029 262.806 93.013 262.22C93.4281 261.634 93.6356 260.462 93.6356 258.705C93.6356 256.937 93.4281 255.763 93.013 255.182C92.6029 254.601 92.0902 254.31 91.475 254.31C90.8695 254.31 90.3861 254.566 90.0248 255.079C89.5707 255.733 89.3436 256.942 89.3436 258.705ZM97.0487 264V262.499H98.5502V264C98.5502 264.552 98.4525 264.996 98.2572 265.333C98.0619 265.675 97.7518 265.938 97.327 266.124L96.9608 265.56C97.2391 265.438 97.4442 265.257 97.576 265.018C97.7079 264.784 97.7811 264.444 97.7958 264H97.0487ZM100.513 258.705C100.513 257.435 100.642 256.415 100.901 255.643C101.165 254.867 101.553 254.269 102.066 253.849C102.583 253.429 103.233 253.219 104.014 253.219C104.59 253.219 105.096 253.336 105.53 253.57C105.965 253.8 106.324 254.134 106.607 254.574C106.89 255.008 107.112 255.541 107.273 256.17C107.434 256.795 107.515 257.64 107.515 258.705C107.515 259.964 107.386 260.982 107.127 261.759C106.868 262.53 106.48 263.128 105.962 263.553C105.45 263.973 104.8 264.183 104.014 264.183C102.979 264.183 102.166 263.812 101.575 263.07C100.867 262.176 100.513 260.721 100.513 258.705ZM101.868 258.705C101.868 260.467 102.073 261.642 102.483 262.228C102.898 262.809 103.409 263.099 104.014 263.099C104.619 263.099 105.127 262.806 105.537 262.22C105.952 261.634 106.16 260.462 106.16 258.705C106.16 256.937 105.952 255.763 105.537 255.182C105.127 254.601 104.615 254.31 103.999 254.31C103.394 254.31 102.911 254.566 102.549 255.079C102.095 255.733 101.868 256.942 101.868 258.705ZM108.863 258.705C108.863 257.435 108.992 256.415 109.251 255.643C109.515 254.867 109.903 254.269 110.415 253.849C110.933 253.429 111.582 253.219 112.364 253.219C112.94 253.219 113.445 253.336 113.88 253.57C114.314 253.8 114.673 254.134 114.956 254.574C115.24 255.008 115.462 255.541 115.623 256.17C115.784 256.795 115.865 257.64 115.865 258.705C115.865 259.964 115.735 260.982 115.476 261.759C115.218 262.53 114.829 263.128 114.312 263.553C113.799 263.973 113.15 264.183 112.364 264.183C111.328 264.183 110.515 263.812 109.925 263.07C109.217 262.176 108.863 260.721 108.863 258.705ZM110.218 258.705C110.218 260.467 110.423 261.642 110.833 262.228C111.248 262.809 111.758 263.099 112.364 263.099C112.969 263.099 113.477 262.806 113.887 262.22C114.302 261.634 114.51 260.462 114.51 258.705C114.51 256.937 114.302 255.763 113.887 255.182C113.477 254.601 112.964 254.31 112.349 254.31C111.744 254.31 111.26 254.566 110.899 255.079C110.445 255.733 110.218 256.942 110.218 258.705Z" fill="white"/>
<defs>
<linearGradient id="paint0_linear_24_8" x1="26.8857" y1="28" x2="145.448" y2="28" gradientUnits="userSpaceOnUse">
<stop stop-color="#EA580C"/>
<stop offset="0.5" stop-color="#D946EF"/>
<stop offset="1" stop-color="#4F46E5"/>
</linearGradient>
<linearGradient id="paint1_linear_24_8" x1="30.9983" y1="114" x2="88.9983" y2="114" gradientUnits="userSpaceOnUse">
<stop stop-color="#E879F9"/>
<stop offset="1" stop-color="#818CF8"/>
</linearGradient>
<linearGradient id="paint2_linear_24_8" x1="26.8857" y1="222" x2="145.448" y2="222" gradientUnits="userSpaceOnUse">
<stop stop-color="#EA580C"/>
<stop offset="0.5" stop-color="#D946EF"/>
<stop offset="1" stop-color="#4F46E5"/>
</linearGradient>
<linearGradient id="paint3_linear_24_8" x1="30.9983" y1="308" x2="88.9983" y2="308" gradientUnits="userSpaceOnUse">
<stop stop-color="#E879F9"/>
<stop offset="1" stop-color="#818CF8"/>
</linearGradient>
</defs>
</svg>
