<svg width="196" height="452" viewBox="0 0 196 452" fill="none" xmlns="http://www.w3.org/2000/svg">
<path d="M32 0.5H139C145.351 0.5 150.5 5.64873 150.5 12V171C150.5 177.351 145.351 182.5 139 182.5H32C25.6487 182.5 20.5 177.351 20.5 171V12C20.5 5.64873 25.6487 0.5 32 0.5Z" fill="#111827"/>
<path d="M32 0.5H139C145.351 0.5 150.5 5.64873 150.5 12V171C150.5 177.351 145.351 182.5 139 182.5H32C25.6487 182.5 20.5 177.351 20.5 171V12C20.5 5.64873 25.6487 0.5 32 0.5Z" stroke="black"/>
<path d="M26.8857 21C26.8857 17.6863 29.572 15 32.8857 15H139.448C142.762 15 145.448 17.6863 145.448 21V35C145.448 38.3137 142.762 41 139.448 41H32.8857C29.572 41 26.8857 38.3137 26.8857 35V21Z" fill="url(#paint0_linear_24_20)"/>
<path d="M40.6155 31V25.2734H42.7757C43.1559 25.2734 43.4462 25.2917 43.6468 25.3281C43.928 25.375 44.1637 25.4648 44.3538 25.5977C44.5439 25.7279 44.6962 25.9115 44.8108 26.1484C44.928 26.3854 44.9866 26.6458 44.9866 26.9297C44.9866 27.4167 44.8316 27.8294 44.5218 28.168C44.2119 28.5039 43.652 28.6719 42.8421 28.6719H41.3733V31H40.6155ZM41.3733 27.9961H42.8538C43.3434 27.9961 43.691 27.9049 43.8968 27.7227C44.1025 27.5404 44.2053 27.2839 44.2053 26.9531C44.2053 26.7135 44.1441 26.5091 44.0218 26.3398C43.902 26.168 43.7431 26.0547 43.5452 26C43.4176 25.9661 43.1819 25.9492 42.8382 25.9492H41.3733V27.9961ZM46.2632 31V25.2734H48.8022C49.3126 25.2734 49.7007 25.3255 49.9663 25.4297C50.2319 25.5312 50.4441 25.7122 50.603 25.9727C50.7619 26.2331 50.8413 26.5208 50.8413 26.8359C50.8413 27.2422 50.7098 27.5846 50.4468 27.8633C50.1837 28.1419 49.7775 28.319 49.228 28.3945C49.4285 28.4909 49.5809 28.5859 49.685 28.6797C49.9064 28.8828 50.116 29.1367 50.3139 29.4414L51.31 31H50.3569L49.5991 29.8086C49.3777 29.4648 49.1954 29.2018 49.0522 29.0195C48.909 28.8372 48.7801 28.7096 48.6655 28.6367C48.5535 28.5638 48.4389 28.513 48.3218 28.4844C48.2358 28.4661 48.0952 28.457 47.8999 28.457H47.021V31H46.2632ZM47.021 27.8008H48.6499C48.9962 27.8008 49.2671 27.7656 49.4624 27.6953C49.6577 27.6224 49.8061 27.5078 49.9077 27.3516C50.0093 27.1927 50.06 27.0208 50.06 26.8359C50.06 26.5651 49.9611 26.3424 49.7632 26.168C49.5678 25.9935 49.2579 25.9062 48.8335 25.9062H47.021V27.8008ZM52.1022 28.2109C52.1022 27.2604 52.3574 26.5169 52.8678 25.9805C53.3783 25.4414 54.0371 25.1719 54.8444 25.1719C55.3731 25.1719 55.8496 25.2982 56.2741 25.5508C56.6986 25.8034 57.0215 26.1562 57.2428 26.6094C57.4668 27.0599 57.5788 27.5716 57.5788 28.1445C57.5788 28.7253 57.4616 29.2448 57.2272 29.7031C56.9928 30.1615 56.6608 30.5091 56.2311 30.7461C55.8014 30.9805 55.3379 31.0977 54.8405 31.0977C54.3014 31.0977 53.8197 30.9674 53.3952 30.707C52.9707 30.4466 52.6491 30.0911 52.4303 29.6406C52.2116 29.1901 52.1022 28.7135 52.1022 28.2109ZM52.8835 28.2227C52.8835 28.9128 53.0684 29.457 53.4382 29.8555C53.8106 30.2513 54.2767 30.4492 54.8366 30.4492C55.4069 30.4492 55.8757 30.2487 56.2428 29.8477C56.6126 29.4466 56.7975 28.8776 56.7975 28.1406C56.7975 27.6745 56.7181 27.2682 56.5593 26.9219C56.403 26.5729 56.1725 26.3034 55.8678 26.1133C55.5658 25.9206 55.2259 25.8242 54.8483 25.8242C54.3119 25.8242 53.8496 26.0091 53.4616 26.3789C53.0762 26.7461 52.8835 27.3607 52.8835 28.2227ZM58.8358 31V25.2734H59.9764L61.3319 29.3281C61.4569 29.7057 61.5481 29.9883 61.6053 30.1758C61.6704 29.9674 61.772 29.6615 61.91 29.2578L63.2811 25.2734H64.3007V31H63.5702V26.207L61.9061 31H61.2225L59.5663 26.125V31H58.8358ZM65.5928 28.2109C65.5928 27.2604 65.8481 26.5169 66.3585 25.9805C66.8689 25.4414 67.5277 25.1719 68.335 25.1719C68.8637 25.1719 69.3402 25.2982 69.7647 25.5508C70.1892 25.8034 70.5121 26.1562 70.7335 26.6094C70.9574 27.0599 71.0694 27.5716 71.0694 28.1445C71.0694 28.7253 70.9522 29.2448 70.7178 29.7031C70.4835 30.1615 70.1514 30.5091 69.7218 30.7461C69.2921 30.9805 68.8285 31.0977 68.3311 31.0977C67.7921 31.0977 67.3103 30.9674 66.8858 30.707C66.4613 30.4466 66.1397 30.0911 65.921 29.6406C65.7022 29.1901 65.5928 28.7135 65.5928 28.2109ZM66.3741 28.2227C66.3741 28.9128 66.559 29.457 66.9288 29.8555C67.3012 30.2513 67.7673 30.4492 68.3272 30.4492C68.8975 30.4492 69.3663 30.2487 69.7335 29.8477C70.1033 29.4466 70.2882 28.8776 70.2882 28.1406C70.2882 27.6745 70.2087 27.2682 70.0499 26.9219C69.8936 26.5729 69.6632 26.3034 69.3585 26.1133C69.0564 25.9206 68.7165 25.8242 68.3389 25.8242C67.8025 25.8242 67.3402 26.0091 66.9522 26.3789C66.5668 26.7461 66.3741 27.3607 66.3741 28.2227ZM76.4358 28.9922L77.1936 29.1836C77.0348 29.806 76.7483 30.2812 76.3343 30.6094C75.9228 30.9349 75.4189 31.0977 74.8225 31.0977C74.2053 31.0977 73.7027 30.9727 73.3147 30.7227C72.9293 30.4701 72.635 30.1055 72.4319 29.6289C72.2314 29.1523 72.1311 28.6406 72.1311 28.0938C72.1311 27.4974 72.2444 26.9779 72.471 26.5352C72.7001 26.0898 73.0244 25.7526 73.4436 25.5234C73.8655 25.2917 74.329 25.1758 74.8343 25.1758C75.4072 25.1758 75.8889 25.3216 76.2796 25.6133C76.6702 25.9049 76.9423 26.3151 77.096 26.8438L76.3499 27.0195C76.2171 26.6029 76.0244 26.2995 75.7718 26.1094C75.5191 25.9193 75.2014 25.8242 74.8186 25.8242C74.3785 25.8242 74.01 25.9297 73.7132 26.1406C73.4189 26.3516 73.2119 26.6354 73.0921 26.9922C72.9723 27.3464 72.9124 27.7122 72.9124 28.0898C72.9124 28.5768 72.9827 29.0026 73.1233 29.3672C73.2665 29.7292 73.4879 30 73.7874 30.1797C74.0869 30.3594 74.4111 30.4492 74.76 30.4492C75.1845 30.4492 75.5439 30.3268 75.8382 30.082C76.1324 29.8372 76.3316 29.474 76.4358 28.9922ZM74.1546 31.6016L74.3577 30.9102H74.8811L74.7522 31.3281C74.9736 31.3542 75.1402 31.4219 75.2522 31.5312C75.3642 31.6432 75.4202 31.7669 75.4202 31.9023C75.4202 32.0977 75.3264 32.2695 75.1389 32.418C74.9514 32.569 74.6689 32.6445 74.2913 32.6445C74.0777 32.6445 73.8902 32.6289 73.7288 32.5977L73.7718 32.1406C73.9384 32.151 74.0608 32.1562 74.1389 32.1562C74.3837 32.1562 74.5556 32.1224 74.6546 32.0547C74.7301 32.0026 74.7678 31.9388 74.7678 31.8633C74.7678 31.8164 74.7522 31.7747 74.721 31.7383C74.6923 31.7018 74.6376 31.6706 74.5569 31.6445C74.4762 31.6185 74.3421 31.6042 74.1546 31.6016ZM77.8022 31L80.0014 25.2734H80.8178L83.1616 31H82.2983L81.6303 29.2656H79.2358L78.6069 31H77.8022ZM79.4546 28.6484H81.396L80.7983 27.0625C80.616 26.5807 80.4806 26.1849 80.3921 25.875C80.3191 26.2422 80.2163 26.6068 80.0835 26.9688L79.4546 28.6484ZM79.1772 24.9219C79.1746 24.651 79.2488 24.4349 79.3999 24.2734C79.5483 24.112 79.7384 24.0312 79.9702 24.0312C80.1316 24.0312 80.3517 24.1016 80.6303 24.2422C80.784 24.3203 80.9064 24.3594 80.9975 24.3594C81.0809 24.3594 81.1447 24.3372 81.1889 24.293C81.2332 24.2461 81.2645 24.1549 81.2827 24.0195H81.7905C81.7827 24.3164 81.7072 24.5391 81.5639 24.6875C81.4233 24.8359 81.2436 24.9102 81.0249 24.9102C80.8608 24.9102 80.6447 24.8372 80.3764 24.6914C80.202 24.5977 80.0744 24.5508 79.9936 24.5508C79.9051 24.5508 79.8335 24.582 79.7788 24.6445C79.7215 24.707 79.6941 24.7995 79.6968 24.9219H79.1772ZM83.8366 28.2109C83.8366 27.2604 84.0918 26.5169 84.6022 25.9805C85.1126 25.4414 85.7715 25.1719 86.5788 25.1719C87.1074 25.1719 87.584 25.2982 88.0085 25.5508C88.4329 25.8034 88.7559 26.1562 88.9772 26.6094C89.2012 27.0599 89.3132 27.5716 89.3132 28.1445C89.3132 28.7253 89.196 29.2448 88.9616 29.7031C88.7272 30.1615 88.3952 30.5091 87.9655 30.7461C87.5358 30.9805 87.0723 31.0977 86.5749 31.0977C86.0358 31.0977 85.554 30.9674 85.1296 30.707C84.7051 30.4466 84.3835 30.0911 84.1647 29.6406C83.946 29.1901 83.8366 28.7135 83.8366 28.2109ZM84.6178 28.2227C84.6178 28.9128 84.8027 29.457 85.1725 29.8555C85.5449 30.2513 86.0111 30.4492 86.571 30.4492C87.1413 30.4492 87.61 30.2487 87.9772 29.8477C88.347 29.4466 88.5319 28.8776 88.5319 28.1406C88.5319 27.6745 88.4525 27.2682 88.2936 26.9219C88.1374 26.5729 87.9069 26.3034 87.6022 26.1133C87.3001 25.9206 86.9603 25.8242 86.5827 25.8242C86.0462 25.8242 85.584 26.0091 85.196 26.3789C84.8106 26.7461 84.6178 27.3607 84.6178 28.2227ZM93.0889 31V25.2734H93.8468V30.3242H96.6671V31H93.0889ZM98.0022 31V25.2734H98.76V31H98.0022ZM100.376 31V25.2734H101.517L102.873 29.3281C102.998 29.7057 103.089 29.9883 103.146 30.1758C103.211 29.9674 103.313 29.6615 103.451 29.2578L104.822 25.2734H105.841V31H105.111V26.207L103.447 31H102.763L101.107 26.125V31H100.376ZM107.493 31V25.2734H108.251V31H107.493ZM111.348 31V25.9492H109.461V25.2734H114V25.9492H112.105V31H111.348ZM113.858 31L116.058 25.2734H116.874L119.218 31H118.355L117.687 29.2656H115.292L114.663 31H113.858ZM115.511 28.6484H117.452L116.855 27.0625C116.672 26.5807 116.537 26.1849 116.448 25.875C116.375 26.2422 116.273 26.6068 116.14 26.9688L115.511 28.6484ZM120.123 31V25.2734H122.096C122.541 25.2734 122.881 25.3008 123.116 25.3555C123.444 25.431 123.724 25.5677 123.955 25.7656C124.257 26.0208 124.483 26.3477 124.631 26.7461C124.782 27.1419 124.858 27.5951 124.858 28.1055C124.858 28.5404 124.807 28.9258 124.705 29.2617C124.604 29.5977 124.474 29.8763 124.315 30.0977C124.156 30.3164 123.981 30.4896 123.791 30.6172C123.604 30.7422 123.376 30.8372 123.108 30.9023C122.842 30.9674 122.536 31 122.19 31H120.123ZM120.881 30.3242H122.104C122.481 30.3242 122.777 30.2891 122.991 30.2188C123.207 30.1484 123.379 30.0495 123.506 29.9219C123.686 29.7422 123.825 29.5013 123.924 29.1992C124.026 28.8945 124.076 28.526 124.076 28.0938C124.076 27.4948 123.977 27.0352 123.78 26.7148C123.584 26.3919 123.346 26.1758 123.065 26.0664C122.862 25.9883 122.535 25.9492 122.084 25.9492H120.881V30.3242ZM125.576 31L127.775 25.2734H128.591L130.935 31H130.072L129.404 29.2656H127.009L126.38 31H125.576ZM127.228 28.6484H129.169L128.572 27.0625C128.389 26.5807 128.254 26.1849 128.166 25.875C128.093 26.2422 127.99 26.6068 127.857 26.9688L127.228 28.6484Z" fill="white"/>
<path d="M27.9111 98.5V88.4785H29.2373V97.3174H34.1728V98.5H27.9111ZM40.3388 97.6045C39.8831 97.9919 39.4433 98.2653 39.0195 98.4248C38.6002 98.5843 38.1491 98.6641 37.666 98.6641C36.8685 98.6641 36.2555 98.4704 35.8271 98.083C35.3987 97.6911 35.1845 97.1921 35.1845 96.5859C35.1845 96.2305 35.2643 95.9069 35.4238 95.6152C35.5879 95.319 35.7998 95.082 36.0595 94.9043C36.3239 94.7266 36.6201 94.5921 36.9482 94.501C37.1898 94.4372 37.5543 94.3757 38.042 94.3164C39.0355 94.1979 39.7669 94.0566 40.2363 93.8926C40.2409 93.724 40.2431 93.6169 40.2431 93.5713C40.2431 93.07 40.1269 92.7168 39.8945 92.5117C39.5801 92.2337 39.1129 92.0947 38.4931 92.0947C37.9144 92.0947 37.486 92.1973 37.208 92.4023C36.9345 92.6029 36.7317 92.9606 36.5996 93.4756L35.3965 93.3115C35.5058 92.7965 35.6858 92.3818 35.9365 92.0674C36.1872 91.7484 36.5495 91.5046 37.0234 91.3359C37.4974 91.1628 38.0465 91.0762 38.6709 91.0762C39.2907 91.0762 39.7942 91.1491 40.1816 91.2949C40.569 91.4408 40.8538 91.6253 41.0361 91.8486C41.2184 92.0674 41.346 92.3454 41.4189 92.6826C41.4599 92.8923 41.4804 93.2705 41.4804 93.8174V95.458C41.4804 96.6019 41.5055 97.3265 41.5556 97.6318C41.6103 97.9326 41.7151 98.222 41.8701 98.5H40.5849C40.4573 98.2448 40.3753 97.9463 40.3388 97.6045ZM40.2363 94.8564C39.7897 95.0387 39.1198 95.1937 38.2265 95.3213C37.7207 95.3942 37.3629 95.4762 37.1533 95.5674C36.9437 95.6585 36.7819 95.793 36.6679 95.9707C36.554 96.1439 36.497 96.3376 36.497 96.5518C36.497 96.8799 36.6201 97.1533 36.8662 97.3721C37.1168 97.5908 37.4814 97.7002 37.9599 97.7002C38.4339 97.7002 38.8554 97.5977 39.2246 97.3926C39.5937 97.1829 39.8649 96.8981 40.0381 96.5381C40.1702 96.2601 40.2363 95.8499 40.2363 95.3076V94.8564ZM45.4111 98.5L42.6494 91.2402H43.9482L45.5068 95.5879C45.6754 96.0573 45.8304 96.5449 45.9717 97.0508C46.081 96.668 46.2337 96.2077 46.4297 95.6699L48.0429 91.2402H49.3076L46.5595 98.5H45.4111ZM55.1318 97.6045C54.6761 97.9919 54.2363 98.2653 53.8125 98.4248C53.3932 98.5843 52.942 98.6641 52.459 98.6641C51.6614 98.6641 51.0485 98.4704 50.6201 98.083C50.1917 97.6911 49.9775 97.1921 49.9775 96.5859C49.9775 96.2305 50.0573 95.9069 50.2168 95.6152C50.3808 95.319 50.5928 95.082 50.8525 94.9043C51.1168 94.7266 51.4131 94.5921 51.7412 94.501C51.9827 94.4372 52.3473 94.3757 52.8349 94.3164C53.8284 94.1979 54.5599 94.0566 55.0293 93.8926C55.0338 93.724 55.0361 93.6169 55.0361 93.5713C55.0361 93.07 54.9199 92.7168 54.6875 92.5117C54.373 92.2337 53.9059 92.0947 53.2861 92.0947C52.7073 92.0947 52.2789 92.1973 52.001 92.4023C51.7275 92.6029 51.5247 92.9606 51.3926 93.4756L50.1894 93.3115C50.2988 92.7965 50.4788 92.3818 50.7295 92.0674C50.9801 91.7484 51.3424 91.5046 51.8164 91.3359C52.2903 91.1628 52.8395 91.0762 53.4638 91.0762C54.0836 91.0762 54.5872 91.1491 54.9746 91.2949C55.362 91.4408 55.6468 91.6253 55.8291 91.8486C56.0114 92.0674 56.139 92.3454 56.2119 92.6826C56.2529 92.8923 56.2734 93.2705 56.2734 93.8174V95.458C56.2734 96.6019 56.2985 97.3265 56.3486 97.6318C56.4033 97.9326 56.5081 98.222 56.6631 98.5H55.3779C55.2503 98.2448 55.1683 97.9463 55.1318 97.6045ZM55.0293 94.8564C54.5827 95.0387 53.9127 95.1937 53.0195 95.3213C52.5136 95.3942 52.1559 95.4762 51.9463 95.5674C51.7366 95.6585 51.5748 95.793 51.4609 95.9707C51.347 96.1439 51.29 96.3376 51.29 96.5518C51.29 96.8799 51.4131 97.1533 51.6592 97.3721C51.9098 97.5908 52.2744 97.7002 52.7529 97.7002C53.2269 97.7002 53.6484 97.5977 54.0176 97.3926C54.3867 97.1829 54.6579 96.8981 54.831 96.5381C54.9632 96.2601 55.0293 95.8499 55.0293 95.3076V94.8564ZM57.9619 99.1016L59.1582 99.2793C59.2083 99.6484 59.3473 99.9173 59.5752 100.086C59.8805 100.314 60.2975 100.428 60.8261 100.428C61.3958 100.428 61.8356 100.314 62.1455 100.086C62.4554 99.8581 62.665 99.5391 62.7744 99.1289C62.8382 98.8783 62.8678 98.3519 62.8633 97.5498C62.3255 98.1833 61.6556 98.5 60.8535 98.5C59.8554 98.5 59.083 98.14 58.5361 97.4199C57.9892 96.6999 57.7158 95.8363 57.7158 94.8291C57.7158 94.1364 57.8411 93.4984 58.0918 92.915C58.3424 92.3271 58.7047 91.8737 59.1787 91.5547C59.6572 91.2357 60.2178 91.0762 60.8603 91.0762C61.7171 91.0762 62.4235 91.4225 62.9795 92.1152V91.2402H64.1142V97.5156C64.1142 98.6458 63.998 99.4456 63.7656 99.915C63.5377 100.389 63.1732 100.763 62.6719 101.036C62.1751 101.31 61.5622 101.446 60.833 101.446C59.9671 101.446 59.2676 101.25 58.7344 100.858C58.2011 100.471 57.9437 99.8854 57.9619 99.1016ZM58.9804 94.7402C58.9804 95.6927 59.1696 96.3877 59.5478 96.8252C59.9261 97.2627 60.4 97.4814 60.9697 97.4814C61.5348 97.4814 62.0088 97.265 62.3916 96.832C62.7744 96.3945 62.9658 95.7109 62.9658 94.7812C62.9658 93.8926 62.7676 93.2227 62.3711 92.7715C61.9791 92.3203 61.5052 92.0947 60.9492 92.0947C60.4023 92.0947 59.9375 92.318 59.5547 92.7646C59.1719 93.2067 58.9804 93.8652 58.9804 94.7402ZM70.9502 96.1621L72.2217 96.3193C72.0211 97.0622 71.6497 97.6387 71.1074 98.0488C70.5651 98.459 69.8724 98.6641 69.0293 98.6641C67.9674 98.6641 67.1243 98.3382 66.5 97.6865C65.8802 97.0303 65.5703 96.112 65.5703 94.9316C65.5703 93.7103 65.8847 92.7624 66.5136 92.0879C67.1426 91.4134 67.9583 91.0762 68.9609 91.0762C69.9316 91.0762 70.7246 91.4066 71.3398 92.0674C71.9551 92.7282 72.2627 93.6579 72.2627 94.8564C72.2627 94.9294 72.2604 95.0387 72.2558 95.1846H66.8418C66.8873 95.9821 67.1129 96.5928 67.5185 97.0166C67.9241 97.4404 68.43 97.6523 69.0361 97.6523C69.4873 97.6523 69.8724 97.5339 70.1914 97.2969C70.5104 97.0599 70.7633 96.6816 70.9502 96.1621ZM66.9101 94.1729H70.9638C70.9092 93.5622 70.7542 93.1042 70.499 92.7988C70.1071 92.3249 69.5989 92.0879 68.9746 92.0879C68.4095 92.0879 67.9332 92.277 67.5459 92.6553C67.1631 93.0335 66.9511 93.5394 66.9101 94.1729ZM73.7734 98.5V91.2402H74.874V92.2588C75.1019 91.9033 75.4049 91.6185 75.7832 91.4043C76.1614 91.1855 76.5921 91.0762 77.0752 91.0762C77.6129 91.0762 78.0527 91.1878 78.3945 91.4111C78.7409 91.6344 78.9847 91.9466 79.126 92.3477C79.7002 91.5 80.4476 91.0762 81.3681 91.0762C82.0882 91.0762 82.6419 91.2767 83.0293 91.6777C83.4166 92.0742 83.6103 92.6872 83.6103 93.5166V98.5H82.3867V93.9268C82.3867 93.4346 82.3457 93.0814 82.2636 92.8672C82.1862 92.6484 82.0426 92.473 81.833 92.3408C81.6233 92.2087 81.3773 92.1426 81.0947 92.1426C80.5843 92.1426 80.1605 92.3135 79.8232 92.6553C79.486 92.9925 79.3174 93.5348 79.3174 94.2822V98.5H78.0869V93.7832C78.0869 93.2363 77.9866 92.8262 77.7861 92.5527C77.5856 92.2793 77.2575 92.1426 76.8017 92.1426C76.4554 92.1426 76.1341 92.2337 75.8379 92.416C75.5462 92.5983 75.3343 92.8649 75.2021 93.2158C75.07 93.5667 75.0039 94.0726 75.0039 94.7334V98.5H73.7734ZM94.0693 95.8408L95.2793 95.998C95.1471 96.832 94.8076 97.486 94.2607 97.96C93.7184 98.4294 93.0508 98.6641 92.2578 98.6641C91.2643 98.6641 90.4645 98.3405 89.8584 97.6934C89.2568 97.0417 88.956 96.1097 88.956 94.8975C88.956 94.1136 89.0859 93.4277 89.3457 92.8398C89.6054 92.252 89.9997 91.8122 90.5283 91.5205C91.0615 91.2243 91.6403 91.0762 92.2646 91.0762C93.053 91.0762 93.6979 91.2767 94.1992 91.6777C94.7005 92.0742 95.0218 92.6393 95.1631 93.373L93.9668 93.5576C93.8528 93.07 93.65 92.7031 93.3584 92.457C93.0713 92.2109 92.7226 92.0879 92.3125 92.0879C91.6927 92.0879 91.1891 92.3112 90.8017 92.7578C90.4144 93.1999 90.2207 93.9017 90.2207 94.8633C90.2207 95.8385 90.4075 96.5472 90.7812 96.9893C91.1549 97.4313 91.6426 97.6523 92.2441 97.6523C92.7272 97.6523 93.1305 97.5042 93.4541 97.208C93.7776 96.9118 93.9827 96.4561 94.0693 95.8408ZM95.874 94.8701C95.874 93.5257 96.2477 92.5299 96.9951 91.8828C97.6194 91.3451 98.3805 91.0762 99.2783 91.0762C100.276 91.0762 101.092 91.4043 101.726 92.0605C102.359 92.7122 102.676 93.6146 102.676 94.7676C102.676 95.7018 102.534 96.4378 102.252 96.9756C101.974 97.5088 101.566 97.9235 101.028 98.2197C100.495 98.516 99.9118 98.6641 99.2783 98.6641C98.262 98.6641 97.4394 98.3382 96.8105 97.6865C96.1862 97.0348 95.874 96.096 95.874 94.8701ZM97.1386 94.8701C97.1386 95.7998 97.3414 96.4971 97.747 96.9619C98.1526 97.4222 98.6631 97.6523 99.2783 97.6523C99.889 97.6523 100.397 97.4199 100.803 96.9551C101.208 96.4902 101.411 95.7816 101.411 94.8291C101.411 93.9313 101.206 93.2523 100.796 92.792C100.39 92.3271 99.8844 92.0947 99.2783 92.0947C98.6631 92.0947 98.1526 92.3249 97.747 92.7852C97.3414 93.2454 97.1386 93.9404 97.1386 94.8701ZM104.125 98.5V91.2402H105.226V92.2588C105.453 91.9033 105.756 91.6185 106.135 91.4043C106.513 91.1855 106.944 91.0762 107.427 91.0762C107.964 91.0762 108.404 91.1878 108.746 91.4111C109.092 91.6344 109.336 91.9466 109.478 92.3477C110.052 91.5 110.799 91.0762 111.72 91.0762C112.44 91.0762 112.993 91.2767 113.381 91.6777C113.768 92.0742 113.962 92.6872 113.962 93.5166V98.5H112.738V93.9268C112.738 93.4346 112.697 93.0814 112.615 92.8672C112.538 92.6484 112.394 92.473 112.185 92.3408C111.975 92.2087 111.729 92.1426 111.446 92.1426C110.936 92.1426 110.512 92.3135 110.175 92.6553C109.838 92.9925 109.669 93.5348 109.669 94.2822V98.5H108.438V93.7832C108.438 93.2363 108.338 92.8262 108.138 92.5527C107.937 92.2793 107.609 92.1426 107.153 92.1426C106.807 92.1426 106.486 92.2337 106.189 92.416C105.898 92.5983 105.686 92.8649 105.554 93.2158C105.422 93.5667 105.355 94.0726 105.355 94.7334V98.5H104.125ZM115.787 101.282V91.2402H116.908V92.1836C117.173 91.8145 117.471 91.5387 117.804 91.3564C118.136 91.1696 118.54 91.0762 119.014 91.0762C119.633 91.0762 120.18 91.2357 120.654 91.5547C121.128 91.8737 121.486 92.3249 121.728 92.9082C121.969 93.487 122.09 94.1227 122.09 94.8154C122.09 95.5583 121.955 96.2282 121.687 96.8252C121.422 97.4176 121.035 97.8734 120.524 98.1924C120.019 98.5068 119.485 98.6641 118.925 98.6641C118.515 98.6641 118.145 98.5775 117.817 98.4043C117.494 98.2311 117.227 98.0124 117.018 97.748V101.282H115.787ZM116.901 94.9111C116.901 95.8454 117.09 96.5358 117.469 96.9824C117.847 97.429 118.305 97.6523 118.843 97.6523C119.39 97.6523 119.857 97.4222 120.244 96.9619C120.636 96.4971 120.832 95.7793 120.832 94.8086C120.832 93.8835 120.641 93.1908 120.258 92.7305C119.88 92.2702 119.426 92.04 118.897 92.04C118.373 92.04 117.909 92.2861 117.503 92.7783C117.102 93.266 116.901 93.9769 116.901 94.9111ZM123.553 98.5V88.4785H124.783V98.5H123.553ZM131.667 96.1621L132.938 96.3193C132.738 97.0622 132.367 97.6387 131.824 98.0488C131.282 98.459 130.589 98.6641 129.746 98.6641C128.684 98.6641 127.841 98.3382 127.217 97.6865C126.597 97.0303 126.287 96.112 126.287 94.9316C126.287 93.7103 126.602 92.7624 127.23 92.0879C127.859 91.4134 128.675 91.0762 129.678 91.0762C130.648 91.0762 131.441 91.4066 132.057 92.0674C132.672 92.7282 132.979 93.6579 132.979 94.8564C132.979 94.9294 132.977 95.0387 132.973 95.1846H127.559C127.604 95.9821 127.83 96.5928 128.235 97.0166C128.641 97.4404 129.147 97.6523 129.753 97.6523C130.204 97.6523 130.589 97.5339 130.908 97.2969C131.227 97.0599 131.48 96.6816 131.667 96.1621ZM127.627 94.1729H131.681C131.626 93.5622 131.471 93.1042 131.216 92.7988C130.824 92.3249 130.316 92.0879 129.691 92.0879C129.126 92.0879 128.65 92.277 128.263 92.6553C127.88 93.0335 127.668 93.5394 127.627 94.1729ZM137.177 97.3994L137.354 98.4863C137.008 98.5592 136.698 98.5957 136.425 98.5957C135.978 98.5957 135.632 98.5251 135.386 98.3838C135.14 98.2425 134.966 98.0579 134.866 97.8301C134.766 97.5977 134.716 97.1123 134.716 96.374V92.1973H133.813V91.2402H134.716V89.4424L135.939 88.7041V91.2402H137.177V92.1973H135.939V96.4424C135.939 96.7933 135.96 97.0189 136.001 97.1191C136.047 97.2194 136.117 97.2992 136.213 97.3584C136.313 97.4176 136.454 97.4473 136.637 97.4473C136.773 97.4473 136.953 97.4313 137.177 97.3994ZM143.124 97.6045C142.668 97.9919 142.228 98.2653 141.805 98.4248C141.385 98.5843 140.934 98.6641 140.451 98.6641C139.654 98.6641 139.041 98.4704 138.612 98.083C138.184 97.6911 137.97 97.1921 137.97 96.5859C137.97 96.2305 138.049 95.9069 138.209 95.6152C138.373 95.319 138.585 95.082 138.845 94.9043C139.109 94.7266 139.405 94.5921 139.733 94.501C139.975 94.4372 140.339 94.3757 140.827 94.3164C141.821 94.1979 142.552 94.0566 143.021 93.8926C143.026 93.724 143.028 93.6169 143.028 93.5713C143.028 93.07 142.912 92.7168 142.68 92.5117C142.365 92.2337 141.898 92.0947 141.278 92.0947C140.7 92.0947 140.271 92.1973 139.993 92.4023C139.72 92.6029 139.517 92.9606 139.385 93.4756L138.182 93.3115C138.291 92.7965 138.471 92.3818 138.722 92.0674C138.972 91.7484 139.335 91.5046 139.809 91.3359C140.283 91.1628 140.832 91.0762 141.456 91.0762C142.076 91.0762 142.579 91.1491 142.967 91.2949C143.354 91.4408 143.639 91.6253 143.821 91.8486C144.004 92.0674 144.131 92.3454 144.204 92.6826C144.245 92.8923 144.266 93.2705 144.266 93.8174V95.458C144.266 96.6019 144.291 97.3265 144.341 97.6318C144.395 97.9326 144.5 98.222 144.655 98.5H143.37C143.242 98.2448 143.16 97.9463 143.124 97.6045ZM143.021 94.8564C142.575 95.0387 141.905 95.1937 141.012 95.3213C140.506 95.3942 140.148 95.4762 139.938 95.5674C139.729 95.6585 139.567 95.793 139.453 95.9707C139.339 96.1439 139.282 96.3376 139.282 96.5518C139.282 96.8799 139.405 97.1533 139.651 97.3721C139.902 97.5908 140.267 97.7002 140.745 97.7002C141.219 97.7002 141.641 97.5977 142.01 97.3926C142.379 97.1829 142.65 96.8981 142.823 96.5381C142.955 96.2601 143.021 95.8499 143.021 95.3076V94.8564Z" fill="#D1D5DB"/>
<path d="M82.8213 121V110.979H84.8174L87.1894 118.074C87.4082 118.735 87.5677 119.229 87.6679 119.558C87.7819 119.193 87.9596 118.658 88.2011 117.951L90.6006 110.979H92.3847V121H91.1064V112.612L88.1943 121H86.998L84.0996 112.469V121H82.8213ZM94.5517 121V110.979H101.798V112.161H95.8779V115.23H101.422V116.406H95.8779V119.817H102.03V121H94.5517ZM103.849 121V110.979H105.209L110.473 118.847V110.979H111.744V121H110.384L105.12 113.125V121H103.849ZM113.528 117.78L114.779 117.671C114.839 118.172 114.975 118.585 115.189 118.908C115.408 119.227 115.745 119.487 116.201 119.688C116.657 119.883 117.17 119.981 117.739 119.981C118.245 119.981 118.692 119.906 119.079 119.756C119.466 119.605 119.754 119.4 119.94 119.141C120.132 118.876 120.228 118.589 120.228 118.279C120.228 117.965 120.136 117.691 119.954 117.459C119.772 117.222 119.471 117.024 119.052 116.864C118.783 116.759 118.188 116.598 117.268 116.379C116.347 116.156 115.702 115.946 115.333 115.75C114.854 115.499 114.497 115.189 114.26 114.82C114.027 114.447 113.911 114.03 113.911 113.569C113.911 113.063 114.055 112.592 114.342 112.154C114.629 111.712 115.048 111.377 115.6 111.149C116.151 110.922 116.764 110.808 117.438 110.808C118.181 110.808 118.835 110.928 119.4 111.17C119.97 111.407 120.408 111.758 120.713 112.223C121.018 112.688 121.182 113.214 121.205 113.802L119.934 113.897C119.865 113.264 119.633 112.785 119.236 112.462C118.844 112.138 118.263 111.977 117.493 111.977C116.691 111.977 116.105 112.125 115.736 112.421C115.372 112.713 115.189 113.066 115.189 113.48C115.189 113.84 115.319 114.137 115.579 114.369C115.834 114.602 116.5 114.841 117.575 115.087C118.655 115.328 119.396 115.54 119.797 115.723C120.38 115.992 120.811 116.333 121.089 116.748C121.367 117.158 121.506 117.632 121.506 118.17C121.506 118.703 121.353 119.207 121.048 119.681C120.742 120.15 120.303 120.517 119.728 120.781C119.159 121.041 118.516 121.171 117.801 121.171C116.894 121.171 116.133 121.039 115.518 120.774C114.907 120.51 114.426 120.114 114.075 119.585C113.729 119.052 113.547 118.45 113.528 117.78ZM122.217 121L126.065 110.979H127.494L131.596 121H130.085L128.916 117.965H124.726L123.625 121H122.217ZM125.108 116.885H128.506L127.46 114.109C127.141 113.266 126.904 112.574 126.749 112.031C126.621 112.674 126.441 113.312 126.209 113.945L125.108 116.885ZM132.601 121V110.979H133.927V119.817H138.862V121H132.601Z" fill="#E5E7EB"/>
<path d="M27.4817 152.514C27.4817 151.326 27.8007 150.396 28.4387 149.726C29.0768 149.052 29.9003 148.715 30.9094 148.715C31.5703 148.715 32.166 148.873 32.6966 149.188C33.2272 149.504 33.6308 149.945 33.9075 150.512C34.1874 151.075 34.3274 151.715 34.3274 152.431C34.3274 153.157 34.1809 153.806 33.888 154.379C33.595 154.952 33.18 155.386 32.6428 155.683C32.1057 155.976 31.5263 156.122 30.9046 156.122C30.2307 156.122 29.6285 155.959 29.0979 155.634C28.5673 155.308 28.1653 154.864 27.8919 154.301C27.6184 153.738 27.4817 153.142 27.4817 152.514ZM28.4583 152.528C28.4583 153.391 28.6894 154.071 29.1516 154.569C29.6171 155.064 30.1998 155.312 30.8997 155.312C31.6126 155.312 32.1985 155.061 32.6575 154.56C33.1197 154.058 33.3509 153.347 33.3509 152.426C33.3509 151.843 33.2516 151.335 33.053 150.902C32.8577 150.466 32.5696 150.129 32.1887 149.892C31.8111 149.651 31.3863 149.53 30.9143 149.53C30.2438 149.53 29.666 149.761 29.1809 150.224C28.6992 150.683 28.4583 151.451 28.4583 152.528ZM35.6507 156V151.498H34.8743V150.814H35.6507V150.263C35.6507 149.914 35.6816 149.656 35.7434 149.486C35.8281 149.258 35.9762 149.075 36.1878 148.935C36.4026 148.791 36.7021 148.72 37.0862 148.72C37.3336 148.72 37.607 148.749 37.9065 148.808L37.7747 149.574C37.5924 149.542 37.4199 149.525 37.2571 149.525C36.9902 149.525 36.8014 149.582 36.6907 149.696C36.58 149.81 36.5247 150.023 36.5247 150.336V150.814H37.5354V151.498H36.5247V156H35.6507ZM41.7737 154.33L42.6819 154.442C42.5387 154.973 42.2734 155.385 41.886 155.678C41.4986 155.971 41.0038 156.117 40.4016 156.117C39.6432 156.117 39.041 155.884 38.595 155.419C38.1523 154.95 37.9309 154.294 37.9309 153.451C37.9309 152.579 38.1555 151.902 38.6048 151.42C39.054 150.938 39.6367 150.697 40.3528 150.697C41.0462 150.697 41.6126 150.933 42.052 151.405C42.4915 151.877 42.7112 152.541 42.7112 153.397C42.7112 153.45 42.7096 153.528 42.7063 153.632H38.8391C38.8717 154.201 39.0328 154.638 39.3225 154.94C39.6122 155.243 39.9736 155.395 40.4065 155.395C40.7288 155.395 41.0038 155.31 41.2317 155.141C41.4596 154.971 41.6402 154.701 41.7737 154.33ZM38.888 152.909H41.7835C41.7444 152.473 41.6337 152.146 41.4514 151.928C41.1715 151.589 40.8085 151.42 40.3626 151.42C39.9589 151.42 39.6188 151.555 39.3421 151.825C39.0686 152.095 38.9173 152.457 38.888 152.909ZM43.7805 156V150.814H44.5716V151.601C44.7734 151.233 44.9589 150.99 45.1282 150.873C45.3007 150.756 45.4895 150.697 45.6946 150.697C45.9908 150.697 46.2919 150.792 46.5979 150.98L46.2952 151.796C46.0803 151.669 45.8655 151.605 45.6507 151.605C45.4586 151.605 45.2861 151.664 45.1331 151.781C44.9801 151.895 44.871 152.055 44.8059 152.26C44.7083 152.572 44.6594 152.914 44.6594 153.285V156H43.7805ZM49.0393 155.214L49.1663 155.99C48.9189 156.042 48.6975 156.068 48.5022 156.068C48.1832 156.068 47.9358 156.018 47.76 155.917C47.5843 155.816 47.4606 155.684 47.3889 155.521C47.3173 155.355 47.2815 155.009 47.2815 154.481V151.498H46.637V150.814H47.2815V149.53L48.1555 149.003V150.814H49.0393V151.498H48.1555V154.53C48.1555 154.781 48.1702 154.942 48.1995 155.014C48.232 155.085 48.2825 155.142 48.3509 155.185C48.4225 155.227 48.5234 155.248 48.6536 155.248C48.7512 155.248 48.8798 155.237 49.0393 155.214ZM53.2874 155.36C52.9619 155.637 52.6477 155.832 52.345 155.946C52.0455 156.06 51.7232 156.117 51.3782 156.117C50.8085 156.117 50.3707 155.979 50.0647 155.702C49.7587 155.422 49.6057 155.066 49.6057 154.633C49.6057 154.379 49.6627 154.148 49.7766 153.939C49.8938 153.728 50.0452 153.559 50.2307 153.432C50.4195 153.305 50.6311 153.209 50.8655 153.144C51.038 153.098 51.2984 153.054 51.6468 153.012C52.3564 152.927 52.8788 152.826 53.2141 152.709C53.2174 152.589 53.219 152.512 53.219 152.479C53.219 152.121 53.136 151.869 52.97 151.723C52.7454 151.524 52.4117 151.425 51.969 151.425C51.5556 151.425 51.2496 151.498 51.051 151.645C50.8557 151.788 50.7109 152.043 50.6165 152.411L49.7571 152.294C49.8352 151.926 49.9638 151.63 50.1428 151.405C50.3219 151.177 50.5807 151.003 50.9192 150.883C51.2578 150.759 51.65 150.697 52.096 150.697C52.5387 150.697 52.8984 150.749 53.1751 150.854C53.4518 150.958 53.6552 151.09 53.7854 151.249C53.9156 151.405 54.0068 151.604 54.0589 151.845C54.0882 151.994 54.1028 152.265 54.1028 152.655V153.827C54.1028 154.644 54.1207 155.162 54.1565 155.38C54.1956 155.595 54.2704 155.801 54.3811 156H53.4632C53.372 155.818 53.3134 155.604 53.2874 155.36ZM53.2141 153.397C52.8951 153.528 52.4166 153.638 51.7786 153.729C51.4173 153.782 51.1617 153.84 51.012 153.905C50.8622 153.97 50.7467 154.066 50.6653 154.193C50.5839 154.317 50.5432 154.455 50.5432 154.608C50.5432 154.843 50.6311 155.038 50.8069 155.194C50.9859 155.351 51.2464 155.429 51.5882 155.429C51.9267 155.429 52.2278 155.355 52.4915 155.209C52.7551 155.059 52.9488 154.856 53.0725 154.599C53.1669 154.4 53.2141 154.107 53.2141 153.72V153.397ZM58.2532 157.987V150.814H59.054V151.488C59.2428 151.225 59.456 151.028 59.6936 150.897C59.9313 150.764 60.2193 150.697 60.5579 150.697C61.0006 150.697 61.3912 150.811 61.7298 151.039C62.0683 151.267 62.3238 151.589 62.4964 152.006C62.6689 152.419 62.7551 152.873 62.7551 153.368C62.7551 153.899 62.6591 154.377 62.4671 154.804C62.2783 155.227 62.0016 155.552 61.637 155.78C61.2757 156.005 60.8948 156.117 60.4944 156.117C60.2014 156.117 59.9378 156.055 59.7034 155.932C59.4723 155.808 59.2818 155.652 59.1321 155.463V157.987H58.2532ZM59.0491 153.437C59.0491 154.104 59.1842 154.597 59.4544 154.916C59.7246 155.235 60.0517 155.395 60.4358 155.395C60.8264 155.395 61.1601 155.23 61.4368 154.901C61.7167 154.569 61.8567 154.057 61.8567 153.363C61.8567 152.702 61.72 152.208 61.4466 151.879C61.1764 151.55 60.8525 151.386 60.4749 151.386C60.1005 151.386 59.7685 151.562 59.4788 151.913C59.1923 152.261 59.0491 152.769 59.0491 153.437ZM63.4925 153.407C63.4925 152.447 63.7594 151.736 64.2932 151.273C64.7392 150.889 65.2828 150.697 65.9241 150.697C66.637 150.697 67.2197 150.932 67.6721 151.4C68.1246 151.866 68.3509 152.51 68.3509 153.334C68.3509 154.001 68.2499 154.527 68.0481 154.911C67.8496 155.292 67.5582 155.588 67.1741 155.8C66.7932 156.011 66.3766 156.117 65.9241 156.117C65.1982 156.117 64.6106 155.884 64.1614 155.419C63.7154 154.953 63.4925 154.283 63.4925 153.407ZM64.3958 153.407C64.3958 154.071 64.5406 154.569 64.8303 154.901C65.1201 155.23 65.4846 155.395 65.9241 155.395C66.3603 155.395 66.7232 155.229 67.013 154.896C67.3027 154.564 67.4475 154.058 67.4475 153.378C67.4475 152.737 67.301 152.252 67.0081 151.923C66.7184 151.591 66.357 151.425 65.9241 151.425C65.4846 151.425 65.1201 151.589 64.8303 151.918C64.5406 152.247 64.3958 152.743 64.3958 153.407ZM69.3762 156V150.814H70.1673V151.601C70.3691 151.233 70.5546 150.99 70.7239 150.873C70.8964 150.756 71.0852 150.697 71.2903 150.697C71.5865 150.697 71.8876 150.792 72.1936 150.98L71.8909 151.796C71.676 151.669 71.4612 151.605 71.2464 151.605C71.0543 151.605 70.8818 151.664 70.7288 151.781C70.5758 151.895 70.4667 152.055 70.4016 152.26C70.304 152.572 70.2551 152.914 70.2551 153.285V156H69.3762ZM77.4182 155.214L77.5452 155.99C77.2978 156.042 77.0764 156.068 76.8811 156.068C76.5621 156.068 76.3147 156.018 76.1389 155.917C75.9632 155.816 75.8395 155.684 75.7678 155.521C75.6962 155.355 75.6604 155.009 75.6604 154.481V151.498H75.0159V150.814H75.6604V149.53L76.5344 149.003V150.814H77.4182V151.498H76.5344V154.53C76.5344 154.781 76.5491 154.942 76.5784 155.014C76.6109 155.085 76.6614 155.142 76.7298 155.185C76.8014 155.227 76.9023 155.248 77.0325 155.248C77.1301 155.248 77.2587 155.237 77.4182 155.214ZM81.8323 154.33L82.7405 154.442C82.5973 154.973 82.332 155.385 81.9446 155.678C81.5572 155.971 81.0624 156.117 80.4602 156.117C79.7018 156.117 79.0996 155.884 78.6536 155.419C78.2109 154.95 77.9895 154.294 77.9895 153.451C77.9895 152.579 78.2141 151.902 78.6634 151.42C79.1126 150.938 79.6953 150.697 80.4114 150.697C81.1048 150.697 81.6712 150.933 82.1106 151.405C82.5501 151.877 82.7698 152.541 82.7698 153.397C82.7698 153.45 82.7682 153.528 82.7649 153.632H78.8977C78.9303 154.201 79.0914 154.638 79.3811 154.94C79.6708 155.243 80.0322 155.395 80.4651 155.395C80.7874 155.395 81.0624 155.31 81.2903 155.141C81.5182 154.971 81.6988 154.701 81.8323 154.33ZM78.9466 152.909H81.8421C81.803 152.473 81.6923 152.146 81.51 151.928C81.2301 151.589 80.8671 151.42 80.4212 151.42C80.0175 151.42 79.6774 151.555 79.4007 151.825C79.1272 152.095 78.9759 152.457 78.9466 152.909ZM83.8489 156V150.814H84.635V151.542C84.7978 151.288 85.0143 151.085 85.2844 150.932C85.5546 150.775 85.8622 150.697 86.2073 150.697C86.5914 150.697 86.9055 150.777 87.1497 150.937C87.3971 151.096 87.5712 151.319 87.6721 151.605C88.0823 151 88.6162 150.697 89.2737 150.697C89.788 150.697 90.1835 150.84 90.4602 151.127C90.7369 151.41 90.8753 151.848 90.8753 152.44V156H90.0012V152.733C90.0012 152.382 89.9719 152.13 89.9134 151.977C89.858 151.82 89.7555 151.695 89.6057 151.601C89.456 151.506 89.2802 151.459 89.0784 151.459C88.7138 151.459 88.4111 151.581 88.1702 151.825C87.9293 152.066 87.8089 152.453 87.8089 152.987V156H86.93V152.631C86.93 152.24 86.8583 151.947 86.7151 151.752C86.5719 151.557 86.3375 151.459 86.012 151.459C85.7646 151.459 85.5351 151.524 85.3235 151.654C85.1152 151.785 84.9638 151.975 84.8694 152.226C84.775 152.476 84.7278 152.838 84.7278 153.31V156H83.8489ZM92.179 157.987V150.814H92.9798V151.488C93.1686 151.225 93.3818 151.028 93.6194 150.897C93.857 150.764 94.1451 150.697 94.4837 150.697C94.9264 150.697 95.317 150.811 95.6555 151.039C95.9941 151.267 96.2496 151.589 96.4221 152.006C96.5947 152.419 96.6809 152.873 96.6809 153.368C96.6809 153.899 96.5849 154.377 96.3928 154.804C96.204 155.227 95.9274 155.552 95.5628 155.78C95.2014 156.005 94.8206 156.117 94.4202 156.117C94.1272 156.117 93.8635 156.055 93.6292 155.932C93.3981 155.808 93.2076 155.652 93.0579 155.463V157.987H92.179ZM92.9749 153.437C92.9749 154.104 93.11 154.597 93.3801 154.916C93.6503 155.235 93.9775 155.395 94.3616 155.395C94.7522 155.395 95.0859 155.23 95.3626 154.901C95.6425 154.569 95.7825 154.057 95.7825 153.363C95.7825 152.702 95.6458 152.208 95.3723 151.879C95.1022 151.55 94.7783 151.386 94.4007 151.386C94.0263 151.386 93.6943 151.562 93.4046 151.913C93.1181 152.261 92.9749 152.769 92.9749 153.437ZM97.4182 153.407C97.4182 152.447 97.6852 151.736 98.219 151.273C98.665 150.889 99.2086 150.697 99.8499 150.697C100.563 150.697 101.145 150.932 101.598 151.4C102.05 151.866 102.277 152.51 102.277 153.334C102.277 154.001 102.176 154.527 101.974 154.911C101.775 155.292 101.484 155.588 101.1 155.8C100.719 156.011 100.302 156.117 99.8499 156.117C99.124 156.117 98.5364 155.884 98.0872 155.419C97.6412 154.953 97.4182 154.283 97.4182 153.407ZM98.3216 153.407C98.3216 154.071 98.4664 154.569 98.7561 154.901C99.0458 155.23 99.4104 155.395 99.8499 155.395C100.286 155.395 100.649 155.229 100.939 154.896C101.228 154.564 101.373 154.058 101.373 153.378C101.373 152.737 101.227 152.252 100.934 151.923C100.644 151.591 100.283 151.425 99.8499 151.425C99.4104 151.425 99.0458 151.589 98.7561 151.918C98.4664 152.247 98.3216 152.743 98.3216 153.407ZM106.075 156V148.842H106.954V156H106.075ZM108.326 149.853V148.842H109.205V149.853H108.326ZM108.326 156V150.814H109.205V156H108.326ZM110.548 156V150.814H111.334V151.542C111.497 151.288 111.713 151.085 111.984 150.932C112.254 150.775 112.561 150.697 112.907 150.697C113.291 150.697 113.605 150.777 113.849 150.937C114.096 151.096 114.27 151.319 114.371 151.605C114.782 151 115.315 150.697 115.973 150.697C116.487 150.697 116.883 150.84 117.159 151.127C117.436 151.41 117.574 151.848 117.574 152.44V156H116.7V152.733C116.7 152.382 116.671 152.13 116.613 151.977C116.557 151.82 116.455 151.695 116.305 151.601C116.155 151.506 115.979 151.459 115.778 151.459C115.413 151.459 115.11 151.581 114.869 151.825C114.629 152.066 114.508 152.453 114.508 152.987V156H113.629V152.631C113.629 152.24 113.558 151.947 113.414 151.752C113.271 151.557 113.037 151.459 112.711 151.459C112.464 151.459 112.234 151.524 112.023 151.654C111.814 151.785 111.663 151.975 111.569 152.226C111.474 152.476 111.427 152.838 111.427 153.31V156H110.548ZM118.883 149.853V148.842H119.762V149.853H118.883ZM118.883 156V150.814H119.762V156H118.883ZM123.024 155.214L123.151 155.99C122.903 156.042 122.682 156.068 122.487 156.068C122.168 156.068 121.92 156.018 121.744 155.917C121.569 155.816 121.445 155.684 121.373 155.521C121.302 155.355 121.266 155.009 121.266 154.481V151.498H120.621V150.814H121.266V149.53L122.14 149.003V150.814H123.024V151.498H122.14V154.53C122.14 154.781 122.155 154.942 122.184 155.014C122.216 155.085 122.267 155.142 122.335 155.185C122.407 155.227 122.508 155.248 122.638 155.248C122.736 155.248 122.864 155.237 123.024 155.214ZM127.272 155.36C126.946 155.637 126.632 155.832 126.329 155.946C126.03 156.06 125.708 156.117 125.363 156.117C124.793 156.117 124.355 155.979 124.049 155.702C123.743 155.422 123.59 155.066 123.59 154.633C123.59 154.379 123.647 154.148 123.761 153.939C123.878 153.728 124.03 153.559 124.215 153.432C124.404 153.305 124.616 153.209 124.85 153.144C125.022 153.098 125.283 153.054 125.631 153.012C126.341 152.927 126.863 152.826 127.199 152.709C127.202 152.589 127.203 152.512 127.203 152.479C127.203 152.121 127.12 151.869 126.954 151.723C126.73 151.524 126.396 151.425 125.953 151.425C125.54 151.425 125.234 151.498 125.035 151.645C124.84 151.788 124.695 152.043 124.601 152.411L123.741 152.294C123.82 151.926 123.948 151.63 124.127 151.405C124.306 151.177 124.565 151.003 124.904 150.883C125.242 150.759 125.634 150.697 126.08 150.697C126.523 150.697 126.883 150.749 127.159 150.854C127.436 150.958 127.64 151.09 127.77 151.249C127.9 151.405 127.991 151.604 128.043 151.845C128.073 151.994 128.087 152.265 128.087 152.655V153.827C128.087 154.644 128.105 155.162 128.141 155.38C128.18 155.595 128.255 155.801 128.366 156H127.448C127.356 155.818 127.298 155.604 127.272 155.36ZM127.199 153.397C126.879 153.528 126.401 153.638 125.763 153.729C125.402 153.782 125.146 153.84 124.996 153.905C124.847 153.97 124.731 154.066 124.65 154.193C124.568 154.317 124.528 154.455 124.528 154.608C124.528 154.843 124.616 155.038 124.791 155.194C124.97 155.351 125.231 155.429 125.573 155.429C125.911 155.429 126.212 155.355 126.476 155.209C126.74 155.059 126.933 154.856 127.057 154.599C127.151 154.4 127.199 154.107 127.199 153.72V153.397ZM132.819 156V155.346C132.49 155.86 132.006 156.117 131.368 156.117C130.955 156.117 130.574 156.003 130.226 155.775C129.881 155.548 129.612 155.23 129.42 154.823C129.231 154.413 129.137 153.943 129.137 153.412C129.137 152.895 129.223 152.426 129.396 152.006C129.568 151.583 129.827 151.259 130.172 151.034C130.517 150.81 130.903 150.697 131.329 150.697C131.642 150.697 131.92 150.764 132.164 150.897C132.408 151.028 132.607 151.199 132.76 151.41V148.842H133.634V156H132.819ZM130.04 153.412C130.04 154.076 130.18 154.573 130.46 154.901C130.74 155.23 131.071 155.395 131.451 155.395C131.836 155.395 132.161 155.238 132.428 154.926C132.698 154.61 132.833 154.13 132.833 153.485C132.833 152.776 132.697 152.255 132.423 151.923C132.15 151.591 131.813 151.425 131.412 151.425C131.022 151.425 130.695 151.584 130.431 151.903C130.171 152.222 130.04 152.725 130.04 153.412ZM134.694 153.407C134.694 152.447 134.961 151.736 135.494 151.273C135.94 150.889 136.484 150.697 137.125 150.697C137.838 150.697 138.421 150.932 138.873 151.4C139.326 151.866 139.552 152.51 139.552 153.334C139.552 154.001 139.451 154.527 139.249 154.911C139.051 155.292 138.759 155.588 138.375 155.8C137.994 156.011 137.578 156.117 137.125 156.117C136.399 156.117 135.812 155.884 135.363 155.419C134.917 154.953 134.694 154.283 134.694 153.407ZM135.597 153.407C135.597 154.071 135.742 154.569 136.032 154.901C136.321 155.23 136.686 155.395 137.125 155.395C137.561 155.395 137.924 155.229 138.214 154.896C138.504 154.564 138.649 154.058 138.649 153.378C138.649 152.737 138.502 152.252 138.209 151.923C137.92 151.591 137.558 151.425 137.125 151.425C136.686 151.425 136.321 151.589 136.032 151.918C135.742 152.247 135.597 152.743 135.597 153.407Z" fill="#4ADE80"/>
<path d="M34.9426 121L31.0598 110.979H32.4954L35.0999 118.259C35.3095 118.842 35.485 119.389 35.6262 119.899C35.7812 119.353 35.9612 118.806 36.1663 118.259L38.8733 110.979H40.2268L36.303 121H34.9426ZM39.2766 121L43.1253 110.979H44.554L48.6555 121H47.1448L45.9759 117.965H41.7854L40.6848 121H39.2766ZM42.1682 116.885H45.5657L44.5198 114.109C44.2008 113.266 43.9638 112.574 43.8089 112.031C43.6813 112.674 43.5012 113.312 43.2688 113.945L42.1682 116.885ZM49.6604 121V110.979H50.9866V119.817H55.9221V121H49.6604ZM57.1048 116.119C57.1048 114.456 57.5514 113.155 58.4446 112.216C59.3378 111.272 60.4908 110.801 61.9036 110.801C62.8287 110.801 63.6627 111.022 64.4055 111.464C65.1484 111.906 65.7135 112.523 66.1009 113.316C66.4928 114.105 66.6887 115 66.6887 116.003C66.6887 117.019 66.4837 117.928 66.0735 118.73C65.6634 119.533 65.0823 120.141 64.3303 120.556C63.5784 120.966 62.7672 121.171 61.8968 121.171C60.9534 121.171 60.1103 120.943 59.3675 120.487C58.6246 120.032 58.0618 119.41 57.679 118.621C57.2962 117.833 57.1048 116.999 57.1048 116.119ZM58.4719 116.14C58.4719 117.347 58.7955 118.3 59.4426 118.997C60.0943 119.69 60.9101 120.036 61.8899 120.036C62.888 120.036 63.7083 119.685 64.3509 118.983C64.998 118.282 65.3216 117.286 65.3216 115.996C65.3216 115.18 65.1826 114.469 64.9046 113.863C64.6311 113.253 64.2278 112.781 63.6946 112.448C63.166 112.111 62.5712 111.942 61.9104 111.942C60.9716 111.942 60.1627 112.266 59.4837 112.913C58.8092 113.556 58.4719 114.631 58.4719 116.14ZM68.4251 121V110.979H72.8684C73.7617 110.979 74.4407 111.07 74.9055 111.252C75.3704 111.43 75.7418 111.746 76.0198 112.202C76.2978 112.658 76.4368 113.161 76.4368 113.713C76.4368 114.424 76.2066 115.023 75.7464 115.511C75.2861 115.998 74.5751 116.308 73.6135 116.44C73.9645 116.609 74.2311 116.775 74.4134 116.939C74.8007 117.295 75.1676 117.739 75.5139 118.272L77.2571 121H75.5891L74.263 118.915C73.8756 118.313 73.5566 117.853 73.3059 117.534C73.0553 117.215 72.8297 116.992 72.6292 116.864C72.4332 116.737 72.2327 116.648 72.0276 116.598C71.8772 116.566 71.6311 116.55 71.2893 116.55H69.7512V121H68.4251ZM69.7512 115.401H72.6018C73.2079 115.401 73.6819 115.34 74.0237 115.217C74.3655 115.089 74.6253 114.889 74.803 114.615C74.9807 114.337 75.0696 114.036 75.0696 113.713C75.0696 113.239 74.8964 112.849 74.5501 112.544C74.2083 112.239 73.666 112.086 72.9231 112.086H69.7512V115.401Z" fill="url(#paint1_linear_24_20)"/>
<path d="M52.6566 70V59.2627H57.4173C58.3744 59.2627 59.1019 59.3604 59.6 59.5557C60.098 59.7461 60.4959 60.0854 60.7938 60.5737C61.0917 61.062 61.2406 61.6016 61.2406 62.1924C61.2406 62.9541 60.994 63.5962 60.5008 64.1187C60.0077 64.6411 59.2459 64.9731 58.2157 65.1147C58.5917 65.2954 58.8773 65.4736 59.0726 65.6494C59.4876 66.0303 59.8807 66.5063 60.2518 67.0776L62.1195 70H60.3324L58.9115 67.7661C58.4964 67.1216 58.1546 66.6284 57.8861 66.2866C57.6175 65.9448 57.3758 65.7056 57.161 65.5688C56.951 65.4321 56.7362 65.3369 56.5165 65.2832C56.3553 65.249 56.0917 65.2319 55.7254 65.2319H54.0775V70H52.6566ZM54.0775 64.0015H57.1317C57.7811 64.0015 58.2889 63.9355 58.6551 63.8037C59.0213 63.667 59.2997 63.4521 59.4901 63.1592C59.6805 62.8613 59.7757 62.5391 59.7757 62.1924C59.7757 61.6846 59.5902 61.2671 59.2191 60.9399C58.8529 60.6128 58.2718 60.4492 57.4759 60.4492H54.0775V64.0015ZM66.0526 71.5454V70.2271C65.3934 70.144 64.8563 69.9976 64.4413 69.7876C64.0311 69.5728 63.6747 69.2285 63.3719 68.7549C63.0741 68.2812 62.9007 67.7026 62.8519 67.019L64.1776 66.77C64.2801 67.478 64.4608 67.998 64.7196 68.3301C65.0907 68.7988 65.535 69.0601 66.0526 69.1138V64.917C65.5106 64.8145 64.9564 64.6045 64.39 64.2871C63.9701 64.0527 63.6454 63.728 63.4159 63.313C63.1913 62.8979 63.079 62.4268 63.079 61.8994C63.079 60.9619 63.411 60.2026 64.0751 59.6216C64.5194 59.231 65.1786 58.9917 66.0526 58.9038V58.2739H66.829V58.9038C67.5956 58.9771 68.2035 59.2017 68.6527 59.5776C69.2289 60.0562 69.5755 60.7129 69.6927 61.5479L68.3304 61.7529C68.2523 61.2354 68.0887 60.8398 67.8397 60.5664C67.5956 60.2881 67.2586 60.105 66.829 60.0171V63.8184C67.493 63.9844 67.9325 64.1138 68.1473 64.2065C68.5575 64.3872 68.8919 64.6069 69.1507 64.8657C69.4095 65.1245 69.6073 65.4321 69.744 65.7886C69.8856 66.145 69.9564 66.5308 69.9564 66.9458C69.9564 67.8589 69.6659 68.6206 69.0848 69.231C68.5038 69.8413 67.7518 70.1685 66.829 70.2124V71.5454H66.0526ZM66.0526 60.0024C65.5399 60.0806 65.1346 60.2856 64.8368 60.6177C64.5438 60.9497 64.3973 61.3428 64.3973 61.7969C64.3973 62.2461 64.5218 62.6221 64.7709 62.9248C65.0248 63.2275 65.452 63.4692 66.0526 63.6499V60.0024ZM66.829 69.1138C67.3417 69.0503 67.764 68.8281 68.096 68.4473C68.433 68.0664 68.6014 67.5952 68.6014 67.0337C68.6014 66.5552 68.4818 66.1719 68.2425 65.8838C68.0082 65.5908 67.537 65.3296 66.829 65.1001V69.1138ZM78.1302 61.8921L76.8192 61.9946C76.702 61.4771 76.536 61.1011 76.3211 60.8667C75.9647 60.4907 75.5252 60.3027 75.0028 60.3027C74.5829 60.3027 74.2142 60.4199 73.8968 60.6543C73.4818 60.957 73.1546 61.3989 72.9154 61.98C72.6761 62.561 72.5516 63.3887 72.5418 64.4629C72.8592 63.9795 73.2474 63.6206 73.7064 63.3862C74.1654 63.1519 74.6463 63.0347 75.1493 63.0347C76.0282 63.0347 76.7752 63.3594 77.3905 64.0088C78.0106 64.6533 78.3207 65.4883 78.3207 66.5137C78.3207 67.1875 78.1742 67.8149 77.8812 68.396C77.5931 68.9722 77.1952 69.4141 76.6874 69.7217C76.1795 70.0293 75.6034 70.1831 74.9588 70.1831C73.8602 70.1831 72.9642 69.7803 72.2709 68.9746C71.5775 68.1641 71.2308 66.8311 71.2308 64.9756C71.2308 62.9004 71.6141 61.3916 72.3807 60.4492C73.0497 59.6289 73.9505 59.2188 75.0834 59.2188C75.9281 59.2188 76.619 59.4556 77.1561 59.9292C77.6981 60.4028 78.0228 61.0571 78.1302 61.8921ZM72.7469 66.521C72.7469 66.9751 72.8421 67.4097 73.0326 67.8247C73.2279 68.2397 73.4989 68.5571 73.8456 68.7769C74.1922 68.9917 74.556 69.0991 74.9369 69.0991C75.4935 69.0991 75.972 68.8745 76.3724 68.4253C76.7728 67.9761 76.973 67.3657 76.973 66.5942C76.973 65.8521 76.7752 65.2686 76.3797 64.8438C75.9842 64.4141 75.4862 64.1992 74.8856 64.1992C74.2899 64.1992 73.7845 64.4141 73.3695 64.8438C72.9544 65.2686 72.7469 65.8276 72.7469 66.521ZM79.639 64.7046C79.639 63.4351 79.7684 62.4146 80.0272 61.6431C80.2909 60.8667 80.6791 60.2686 81.1917 59.8486C81.7093 59.4287 82.3587 59.2188 83.14 59.2188C83.7162 59.2188 84.2215 59.3359 84.6561 59.5703C85.0907 59.7998 85.4496 60.1343 85.7328 60.5737C86.016 61.0083 86.2381 61.5405 86.3993 62.1704C86.5604 62.7954 86.641 63.6401 86.641 64.7046C86.641 65.9644 86.5116 66.9824 86.2528 67.7588C85.994 68.5303 85.6058 69.1284 85.0882 69.5532C84.5755 69.9731 83.9261 70.1831 83.14 70.1831C82.1048 70.1831 81.2918 69.812 80.701 69.0698C79.993 68.1763 79.639 66.7212 79.639 64.7046ZM80.994 64.7046C80.994 66.4673 81.1991 67.6416 81.6092 68.2275C82.0243 68.8086 82.5345 69.0991 83.14 69.0991C83.7455 69.0991 84.2533 68.8062 84.6634 68.2202C85.0785 67.6343 85.286 66.4624 85.286 64.7046C85.286 62.937 85.0785 61.7627 84.6634 61.1816C84.2533 60.6006 83.7406 60.3101 83.1253 60.3101C82.5199 60.3101 82.0365 60.5664 81.6751 61.0791C81.221 61.7334 80.994 62.9419 80.994 64.7046ZM88.6991 70V68.4985H90.2005V70C90.2005 70.5518 90.1029 70.9961 89.9076 71.333C89.7123 71.6748 89.4022 71.9385 88.9774 72.124L88.6112 71.5601C88.8895 71.438 89.0946 71.2573 89.2264 71.0181C89.3583 70.7837 89.4315 70.4443 89.4461 70H88.6991ZM92.1634 64.7046C92.1634 63.4351 92.2928 62.4146 92.5516 61.6431C92.8153 60.8667 93.2035 60.2686 93.7162 59.8486C94.2337 59.4287 94.8832 59.2188 95.6644 59.2188C96.2406 59.2188 96.7459 59.3359 97.1805 59.5703C97.6151 59.7998 97.974 60.1343 98.2572 60.5737C98.5404 61.0083 98.7626 61.5405 98.9237 62.1704C99.0848 62.7954 99.1654 63.6401 99.1654 64.7046C99.1654 65.9644 99.036 66.9824 98.7772 67.7588C98.5184 68.5303 98.1302 69.1284 97.6126 69.5532C97.1 69.9731 96.4505 70.1831 95.6644 70.1831C94.6292 70.1831 93.8163 69.812 93.2254 69.0698C92.5174 68.1763 92.1634 66.7212 92.1634 64.7046ZM93.5184 64.7046C93.5184 66.4673 93.7235 67.6416 94.1336 68.2275C94.5487 68.8086 95.0589 69.0991 95.6644 69.0991C96.2699 69.0991 96.7777 68.8062 97.1878 68.2202C97.6029 67.6343 97.8104 66.4624 97.8104 64.7046C97.8104 62.937 97.6029 61.7627 97.1878 61.1816C96.7777 60.6006 96.265 60.3101 95.6498 60.3101C95.0443 60.3101 94.5609 60.5664 94.1996 61.0791C93.7455 61.7334 93.5184 62.9419 93.5184 64.7046ZM100.513 64.7046C100.513 63.4351 100.642 62.4146 100.901 61.6431C101.165 60.8667 101.553 60.2686 102.066 59.8486C102.583 59.4287 103.233 59.2188 104.014 59.2188C104.59 59.2188 105.096 59.3359 105.53 59.5703C105.965 59.7998 106.324 60.1343 106.607 60.5737C106.89 61.0083 107.112 61.5405 107.273 62.1704C107.434 62.7954 107.515 63.6401 107.515 64.7046C107.515 65.9644 107.386 66.9824 107.127 67.7588C106.868 68.5303 106.48 69.1284 105.962 69.5532C105.45 69.9731 104.8 70.1831 104.014 70.1831C102.979 70.1831 102.166 69.812 101.575 69.0698C100.867 68.1763 100.513 66.7212 100.513 64.7046ZM101.868 64.7046C101.868 66.4673 102.073 67.6416 102.483 68.2275C102.898 68.8086 103.409 69.0991 104.014 69.0991C104.619 69.0991 105.127 68.8062 105.537 68.2202C105.952 67.6343 106.16 66.4624 106.16 64.7046C106.16 62.937 105.952 61.7627 105.537 61.1816C105.127 60.6006 104.615 60.3101 103.999 60.3101C103.394 60.3101 102.91 60.5664 102.549 61.0791C102.095 61.7334 101.868 62.9419 101.868 64.7046Z" fill="white"/>
<defs>
<linearGradient id="paint0_linear_24_20" x1="26.8857" y1="28" x2="145.448" y2="28" gradientUnits="userSpaceOnUse">
<stop stop-color="#EA580C"/>
<stop offset="0.5" stop-color="#D946EF"/>
<stop offset="1" stop-color="#4F46E5"/>
</linearGradient>
<linearGradient id="paint1_linear_24_20" x1="30.9983" y1="114" x2="88.9983" y2="114" gradientUnits="userSpaceOnUse">
<stop stop-color="#E879F9"/>
<stop offset="1" stop-color="#818CF8"/>
</linearGradient>
</defs>
</svg>
