<svg width="20" height="20" viewBox="0 0 20 20" fill="none" xmlns="http://www.w3.org/2000/svg">
<g clip-path="url(#clip0_14_2579)">
<g clip-path="url(#clip1_14_2579)">
<path d="M7.5 10C7.5 8.619 8.619 7.5 10 7.5C11.381 7.5 12.5 8.619 12.5 10C12.5 11.381 11.381 12.5 10 12.5C8.619 12.5 7.5 11.381 7.5 10Z" fill="white"/>
<path d="M13.438 2.18799H6.56299C4.14599 2.18799 2.18799 4.14599 2.18799 6.56299V13.438C2.18799 15.854 4.14599 17.813 6.56299 17.813H13.438C15.854 17.813 17.813 15.854 17.813 13.438V6.56299C17.813 4.14599 15.854 2.18799 13.438 2.18799ZM9.99999 13.75C7.92899 13.75 6.24999 12.071 6.24999 9.99999C6.24999 7.92899 7.92899 6.24999 9.99999 6.24999C12.071 6.24999 13.75 7.92899 13.75 9.99999C13.75 12.071 12.071 13.75 9.99999 13.75ZM14.063 6.87499C13.545 6.87499 13.125 6.45499 13.125 5.93799C13.125 5.41999 13.545 4.99999 14.063 4.99999C14.58 4.99999 15 5.41999 15 5.93799C15 6.45499 14.58 6.87499 14.063 6.87499Z" fill="white"/>
</g>
</g>
<defs>
<clipPath id="clip0_14_2579">
<rect width="20" height="20" fill="white"/>
</clipPath>
<clipPath id="clip1_14_2579">
<rect width="20" height="20" fill="white"/>
</clipPath>
</defs>
</svg>
